<?xml version="1.0" encoding="UTF-8"?>
<!DOCTYPE svg PUBLIC "-//W3C//DTD SVG 1.1//EN" "http://www.w3.org/Graphics/SVG/1.1/DTD/svg11.dtd">
<svg xmlns="http://www.w3.org/2000/svg" version="1.1" width="600px" height="600px" style="shape-rendering:geometricPrecision; text-rendering:geometricPrecision; image-rendering:optimizeQuality; fill-rule:evenodd; clip-rule:evenodd" xmlns:xlink="http://www.w3.org/1999/xlink">
<g><path style="opacity:0.737" fill="#b0b0b0" d="M 243.5,43.5 C 249.653,42.3467 255.986,42.18 262.5,43C 263.737,43.2321 264.737,43.7321 265.5,44.5C 258.201,43.6502 250.868,43.3169 243.5,43.5 Z"/></g>
<g><path style="opacity:1" fill="#181818" d="M 243.5,43.5 C 250.868,43.3169 258.201,43.6502 265.5,44.5C 269.933,45.2145 273.6,47.2145 276.5,50.5C 277.5,51.8333 278.5,53.1667 279.5,54.5C 276.871,53.0392 274.371,51.3725 272,49.5C 270.636,50.2583 269.469,49.7583 268.5,48C 267.167,47.3333 265.833,47.3333 264.5,48C 265.448,48.4828 266.448,48.6495 267.5,48.5C 267.756,50.7925 267.423,52.9592 266.5,55C 270.076,59.5054 269.91,63.6721 266,67.5C 264.086,65.1435 261.919,63.1435 259.5,61.5C 261.511,59.333 262.678,56.6663 263,53.5C 263.035,47.4057 259.869,45.0724 253.5,46.5C 249.859,46.3148 246.526,46.9814 243.5,48.5C 242.508,48.3284 241.842,48.6618 241.5,49.5C 234.343,50.574 227.676,53.074 221.5,57C 218.954,58.7106 216.954,60.8773 215.5,63.5C 214.206,64.2899 213.039,65.2899 212,66.5C 211.964,68.9412 211.131,70.9412 209.5,72.5C 207.414,80.3023 209.081,87.1357 214.5,93C 217.758,94.4665 221.092,95.6332 224.5,96.5C 225.22,90.8623 225.553,85.1956 225.5,79.5C 225.816,74.536 227.483,70.2027 230.5,66.5C 231.831,126.264 231.831,185.931 230.5,245.5C 230.667,186.832 230.5,128.166 230,69.5C 228.872,71.3453 228.372,73.3453 228.5,75.5C 227.602,91.5053 226.602,107.505 225.5,123.5C 225.666,117.824 225.499,112.157 225,106.5C 224.667,107.167 224.333,107.833 224,108.5C 222.248,104.521 219.081,102.355 214.5,102C 211.948,97.062 208.782,92.562 205,88.5C 203.291,79.2013 205.458,71.0346 211.5,64C 209.432,64.0173 207.766,65.0173 206.5,67C 204.406,67.4453 202.906,66.612 202,64.5C 201.1,65.7702 199.934,66.7702 198.5,67.5C 198.846,68.6956 199.346,68.6956 200,67.5C 200.333,78.8333 200.667,90.1667 201,101.5C 203.959,109.721 206.126,118.221 207.5,127C 207.167,127.5 206.833,128 206.5,128.5C 202.551,127.199 199.551,124.865 197.5,121.5C 199.754,122.415 201.754,123.748 203.5,125.5C 204.476,123.877 203.976,122.543 202,121.5C 200.823,114.009 198.489,107.009 195,100.5C 194.667,92.5 194.333,84.5 194,76.5C 191.926,78.3425 190.093,80.3425 188.5,82.5C 188.97,79.2548 190.303,76.4214 192.5,74C 192,73.5 191.5,73 191,72.5C 178.458,82.2973 174.458,94.9639 179,110.5C 179.807,118.086 182.64,124.753 187.5,130.5C 184.668,130.427 182.334,131.761 180.5,134.5C 178.833,133.5 177.5,132.167 176.5,130.5C 176.732,126.133 177.732,121.966 179.5,118C 174.588,106.154 174.255,94.1543 178.5,82C 177.944,81.6174 177.611,81.1174 177.5,80.5C 178.5,78.8333 179.833,77.5 181.5,76.5C 183.749,75.9202 185.415,74.5869 186.5,72.5C 188.027,72.573 189.027,71.9063 189.5,70.5C 196.141,66.2049 202.808,61.8715 209.5,57.5C 211.027,57.573 212.027,56.9063 212.5,55.5C 213.514,54.3263 214.847,53.6596 216.5,53.5C 218.819,53.0075 220.819,52.0075 222.5,50.5C 224.426,48.7073 226.759,47.7073 229.5,47.5C 231.898,47.7406 233.898,47.0739 235.5,45.5C 237.838,43.9605 240.505,43.2938 243.5,43.5 Z"/></g>
<g><path style="opacity:1" fill="#7e7e7e" d="M 235.5,45.5 C 233.898,47.0739 231.898,47.7406 229.5,47.5C 231.214,46.2616 233.214,45.595 235.5,45.5 Z"/></g>
<g><path style="opacity:0.988" fill="#818181" d="M 324.5,46.5 C 324.027,47.9063 323.027,48.573 321.5,48.5C 321.973,47.0937 322.973,46.427 324.5,46.5 Z"/></g>
<g><path style="opacity:1" fill="#757575" d="M 241.5,49.5 C 246.214,49.1734 250.88,49.5067 255.5,50.5C 254.273,53.8947 251.94,56.0614 248.5,57C 249.5,57.3333 250.5,57.6667 251.5,58C 247.975,58.1787 244.641,58.6787 241.5,59.5C 237.024,60.571 233.357,62.9043 230.5,66.5C 227.483,70.2027 225.816,74.536 225.5,79.5C 225.167,79.5 224.833,79.5 224.5,79.5C 222.629,79.1412 221.129,78.1412 220,76.5C 219.667,76.8333 219.333,77.1667 219,77.5C 218.833,76 218.667,74.5 218.5,73C 219.614,69.1925 220.781,65.3591 222,61.5C 223.627,60.4677 224.793,59.1344 225.5,57.5C 230.565,54.3009 235.898,51.6343 241.5,49.5 Z"/></g>
<g><path style="opacity:1" fill="#595959" d="M 254.5,59.5 C 250.167,59.5 245.833,59.5 241.5,59.5C 244.641,58.6787 247.975,58.1787 251.5,58C 250.5,57.6667 249.5,57.3333 248.5,57C 251.94,56.0614 254.273,53.8947 255.5,50.5C 250.88,49.5067 246.214,49.1734 241.5,49.5C 241.842,48.6618 242.508,48.3284 243.5,48.5C 248.805,47.5581 254.139,47.3914 259.5,48C 259.975,52.5705 258.308,56.4038 254.5,59.5 Z"/></g>
<g><path style="opacity:1" fill="#737373" d="M 351.5,48.5 C 357.818,49.5427 363.484,51.8761 368.5,55.5C 375.327,61.3809 377.16,68.7143 374,77.5C 372.774,79.5477 371.274,79.881 369.5,78.5C 369.5,78.1667 369.5,77.8333 369.5,77.5C 369.405,75.2143 368.738,73.2143 367.5,71.5C 364.754,64.12 359.421,60.12 351.5,59.5C 348.359,58.6787 345.025,58.1787 341.5,58C 342.167,57.6667 342.833,57.3333 343.5,57C 339.195,55.9146 337.195,53.0812 337.5,48.5C 342.167,48.5 346.833,48.5 351.5,48.5 Z"/></g>
<g><path style="opacity:0.392" fill="#b7b7b7" d="M 222.5,50.5 C 220.819,52.0075 218.819,53.0075 216.5,53.5C 217.911,51.461 219.911,50.461 222.5,50.5 Z"/></g>
<g><path style="opacity:0.047" fill="#b7b7b7" d="M 276.5,50.5 C 279.167,51.1667 280.833,52.8333 281.5,55.5C 280.833,55.1667 280.167,54.8333 279.5,54.5C 278.5,53.1667 277.5,51.8333 276.5,50.5 Z"/></g>
<g><path style="opacity:1" fill="#373737" d="M 259.5,61.5 C 257.597,61.2041 255.93,60.5375 254.5,59.5C 258.308,56.4038 259.975,52.5705 259.5,48C 254.139,47.3914 248.805,47.5581 243.5,48.5C 246.526,46.9814 249.859,46.3148 253.5,46.5C 259.869,45.0724 263.035,47.4057 263,53.5C 262.678,56.6663 261.511,59.333 259.5,61.5 Z"/></g>
<g><path style="opacity:0.98" fill="#858585" d="M 212.5,55.5 C 212.027,56.9063 211.027,57.573 209.5,57.5C 209.973,56.0937 210.973,55.427 212.5,55.5 Z"/></g>
<g><path style="opacity:0.478" fill="#bdbdbd" d="M 309.5,61.5 C 309.573,63.0269 308.906,64.0269 307.5,64.5C 307.427,62.9731 308.094,61.9731 309.5,61.5 Z"/></g>
<g><path style="opacity:1" fill="#0e0e0e" d="M 279.5,54.5 C 280.167,54.8333 280.833,55.1667 281.5,55.5C 286.982,61.4613 290.649,68.4613 292.5,76.5C 293.241,82.4707 293.575,88.4707 293.5,94.5C 292.935,100.963 290.269,106.296 285.5,110.5C 284.094,110.973 283.427,111.973 283.5,113.5C 279.742,117.592 275.409,120.926 270.5,123.5C 269.507,131.984 269.174,140.651 269.5,149.5C 268.691,147.708 268.191,145.708 268,143.5C 267.189,174.167 266.356,204.834 265.5,235.5C 264.75,229.501 264.084,223.501 263.5,217.5C 264.323,171.522 264.823,125.522 265,79.5C 267.394,75.0928 266.894,71.0928 263.5,67.5C 262.5,68.1667 261.5,68.8333 260.5,69.5C 259.682,67.8917 259.015,66.2251 258.5,64.5C 258.043,63.7025 257.376,63.3691 256.5,63.5C 256.167,63.5 255.833,63.5 255.5,63.5C 254.432,62.5655 253.099,62.2322 251.5,62.5C 247.967,61.2854 244.301,61.2854 240.5,62.5C 239.508,62.3284 238.842,62.6618 238.5,63.5C 237.883,63.6107 237.383,63.944 237,64.5C 236.833,66.3333 236.667,68.1667 236.5,70C 237.24,119.031 237.24,168.031 236.5,217C 237.273,223.129 237.773,229.296 238,235.5C 242.458,237.437 246.958,237.604 251.5,236C 252.38,234.644 252.714,233.144 252.5,231.5C 251.041,231.567 249.708,231.234 248.5,230.5C 248.5,229.5 248.5,228.5 248.5,227.5C 252.147,226.127 252.314,224.461 249,222.5C 248.503,220.19 248.337,217.857 248.5,215.5C 249.5,215.5 250.5,215.5 251.5,215.5C 251.5,214.5 251.5,213.5 251.5,212.5C 250.5,212.5 249.5,212.5 248.5,212.5C 248.5,208.167 248.5,203.833 248.5,199.5C 248.5,198.833 248.5,198.167 248.5,197.5C 248.658,195.179 249.658,193.346 251.5,192C 250.275,173.065 250.275,154.065 251.5,135C 251.228,130.613 250.561,126.78 249.5,123.5C 249.629,121.784 249.962,120.117 250.5,118.5C 254.478,114.45 254.478,110.284 250.5,106C 251.951,106.263 253.284,106.096 254.5,105.5C 253.167,104.5 251.833,103.5 250.5,102.5C 252.11,99.0416 254.443,98.5416 257.5,101C 258.304,102.771 259.471,104.271 261,105.5C 260.543,147.265 260.377,189.098 260.5,231C 260.291,235.027 260.958,238.86 262.5,242.5C 264.003,243.052 265.669,243.052 267.5,242.5C 265.331,244.416 262.665,245.75 259.5,246.5C 258.201,245.91 257.368,244.91 257,243.5C 256.667,241.5 256.333,239.5 256,237.5C 255.439,236.978 254.772,236.645 254,236.5C 252.277,238.08 250.444,239.58 248.5,241C 244.336,241.506 240.336,241.173 236.5,240C 235.594,243.979 233.761,247.479 231,250.5C 230.209,249.255 229.709,247.922 229.5,246.5C 229.5,245.833 229.833,245.5 230.5,245.5C 231.831,185.931 231.831,126.264 230.5,66.5C 233.357,62.9043 237.024,60.571 241.5,59.5C 245.833,59.5 250.167,59.5 254.5,59.5C 255.93,60.5375 257.597,61.2041 259.5,61.5C 261.919,63.1435 264.086,65.1435 266,67.5C 269.91,63.6721 270.076,59.5054 266.5,55C 267.423,52.9592 267.756,50.7925 267.5,48.5C 266.448,48.6495 265.448,48.4828 264.5,48C 265.833,47.3333 267.167,47.3333 268.5,48C 269.469,49.7583 270.636,50.2583 272,49.5C 274.371,51.3725 276.871,53.0392 279.5,54.5 Z"/></g>
<g><path style="opacity:1" fill="#0d0d0d" d="M 335.5,61.5 C 340.676,59.8164 346.009,59.1497 351.5,59.5C 359.421,60.12 364.754,64.12 367.5,71.5C 367.672,72.4916 367.338,73.1583 366.5,73.5C 366.205,71.5767 365.372,69.9101 364,68.5C 363.824,126.351 363.324,184.185 362.5,242C 362.822,244.327 364.156,245.494 366.5,245.5C 364.721,247.344 362.388,248.01 359.5,247.5C 360.646,203.522 360.812,159.522 360,115.5C 358.907,155.486 358.074,195.486 357.5,235.5C 356.808,236.025 356.308,236.692 356,237.5C 355.667,237.167 355.333,236.833 355,236.5C 354.517,237.448 354.351,238.448 354.5,239.5C 341.495,241.154 336.495,235.488 339.5,222.5C 341.167,222.5 342.833,222.5 344.5,222.5C 344.5,220.167 344.5,217.833 344.5,215.5C 342.143,215.663 339.81,215.497 337.5,215C 340.076,213.544 342.742,212.377 345.5,211.5C 346.283,215.146 346.45,218.812 346,222.5C 344.989,223.337 343.822,223.67 342.5,223.5C 342.343,224.873 342.51,226.207 343,227.5C 344.465,226.631 345.631,227.131 346.5,229C 345.322,231.073 344.156,232.907 343,234.5C 351.632,240.027 355.799,237.694 355.5,227.5C 355.332,223.475 354.999,219.475 354.5,215.5C 356.495,168.845 357.162,121.845 356.5,74.5C 357.511,70.8878 357.678,67.2211 357,63.5C 355.989,62.6634 354.822,62.33 353.5,62.5C 351.527,61.8373 349.361,61.5039 347,61.5C 337.899,60.6383 334.899,64.6383 338,73.5C 339.518,78.5251 341.018,83.5251 342.5,88.5C 340.977,90.5857 341.31,92.2524 343.5,93.5C 343.918,94.2216 344.584,94.7216 345.5,95C 342.214,96.035 341.88,97.535 344.5,99.5C 343.975,100.192 343.308,100.692 342.5,101C 343.308,101.308 343.975,101.808 344.5,102.5C 340.864,104.207 340.864,105.374 344.5,106C 343.944,106.383 343.611,106.883 343.5,107.5C 342.883,107.611 342.383,107.944 342,108.5C 341.432,111.221 341.099,113.888 341,116.5C 342.65,115.109 343.15,113.609 342.5,112C 343.126,111.25 343.626,110.416 344,109.5C 344.748,114.179 343.582,118.346 340.5,122C 340.667,122.5 340.833,123 341,123.5C 341.615,121.884 342.615,120.551 344,119.5C 344.167,120 344.333,120.5 344.5,121C 342.118,125.486 341.118,130.32 341.5,135.5C 341.737,155.06 342.737,174.393 344.5,193.5C 341.612,199.191 338.945,205.024 336.5,211C 336.833,211.333 337.167,211.667 337.5,212C 336.23,212.9 335.23,214.066 334.5,215.5C 333.833,224.833 333.167,234.167 332.5,243.5C 331.402,242.385 330.235,242.385 329,243.5C 327.97,243.164 327.47,242.497 327.5,241.5C 328.856,210.32 328.689,178.987 327,147.5C 326.722,148.416 326.222,149.082 325.5,149.5C 325.5,140.5 325.5,131.5 325.5,122.5C 326.711,116.295 326.544,109.962 325,103.5C 324.667,106.167 324.333,108.833 324,111.5C 323.07,109.064 321.903,106.731 320.5,104.5C 315.338,103.647 310.338,103.647 305.5,104.5C 303,101.34 301.667,97.6734 301.5,93.5C 301.327,87.0645 301.994,80.7311 303.5,74.5C 303.263,73.209 303.596,72.209 304.5,71.5C 305.825,70.0474 306.658,70.3808 307,72.5C 307.911,69.4245 309.744,67.0911 312.5,65.5C 314.607,62.2906 315.94,58.7906 316.5,55C 317.416,54.6258 318.25,54.1258 319,53.5C 320.049,55.1066 321.549,55.7733 323.5,55.5C 323.472,51.845 325.139,49.1783 328.5,47.5C 329.656,48.5761 329.489,49.5761 328,50.5C 327.333,55.1667 327.333,59.8333 328,64.5C 328.308,65.3081 328.808,65.9747 329.5,66.5C 331.544,64.7806 333.544,63.1139 335.5,61.5 Z"/></g>
<g><path style="opacity:1" fill="#717171" d="M 251.5,62.5 C 252.739,63.212 253.239,64.212 253,65.5C 249.472,68.5573 246.305,71.8906 243.5,75.5C 240.327,71.6287 239.327,67.2954 240.5,62.5C 244.301,61.2854 247.967,61.2854 251.5,62.5 Z"/></g>
<g><path style="opacity:1" fill="#535353" d="M 368.5,55.5 C 370.517,56.5294 372.517,57.5294 374.5,58.5C 374.685,60.1958 375.519,61.5291 377,62.5C 377.943,67.1615 378.776,71.8282 379.5,76.5C 378.692,78.9252 377.692,81.2585 376.5,83.5C 374.468,84.819 372.468,84.819 370.5,83.5C 370.737,82.209 370.404,81.209 369.5,80.5C 369.5,79.8333 369.5,79.1667 369.5,78.5C 371.274,79.881 372.774,79.5477 374,77.5C 377.16,68.7143 375.327,61.3809 368.5,55.5 Z"/></g>
<g><path style="opacity:1" fill="#161616" d="M 256.5,63.5 C 257.376,63.3691 258.043,63.7025 258.5,64.5C 259.015,66.2251 259.682,67.8917 260.5,69.5C 261.5,68.8333 262.5,68.1667 263.5,67.5C 266.894,71.0928 267.394,75.0928 265,79.5C 264.823,125.522 264.323,171.522 263.5,217.5C 264.084,223.501 264.75,229.501 265.5,235.5C 266.356,204.834 267.189,174.167 268,143.5C 268.191,145.708 268.691,147.708 269.5,149.5C 269.667,179.169 269.5,208.835 269,238.5C 268.209,239.745 267.709,241.078 267.5,242.5C 265.669,243.052 264.003,243.052 262.5,242.5C 260.958,238.86 260.291,235.027 260.5,231C 260.377,189.098 260.543,147.265 261,105.5C 259.471,104.271 258.304,102.771 257.5,101C 254.443,98.5416 252.11,99.0416 250.5,102.5C 251.833,103.5 253.167,104.5 254.5,105.5C 253.284,106.096 251.951,106.263 250.5,106C 254.478,110.284 254.478,114.45 250.5,118.5C 248.264,110.4 248.598,102.566 251.5,95C 251,94.5 250.5,94 250,93.5C 249.333,89.8333 249.333,86.1667 250,82.5C 254.419,76.9826 256.586,70.6493 256.5,63.5 Z"/></g>
<g><path style="opacity:1" fill="#1d1d1d" d="M 401.5,68.5 C 401.5,68.8333 401.5,69.1667 401.5,69.5C 402.701,70.5066 402.701,72.1732 401.5,74.5C 402.822,74.33 403.989,74.6634 405,75.5C 408.478,83.98 409.145,92.6467 407,101.5C 406.626,103.491 405.793,105.158 404.5,106.5C 407.456,97.3309 407.123,88.3309 403.5,79.5C 401.869,76.0348 399.369,73.3682 396,71.5C 395.667,82.1667 395.333,92.8333 395,103.5C 393.733,108.4 392.566,113.234 391.5,118C 391.198,123.667 392.531,124.5 395.5,120.5C 396.855,118.479 398.521,116.812 400.5,115.5C 398.254,118.989 396.254,122.656 394.5,126.5C 392.036,129.159 389.203,129.826 386,128.5C 385.449,123.455 385.782,118.455 387,113.5C 389.14,108.276 390.973,102.943 392.5,97.5C 391.777,95.2178 391.443,92.8845 391.5,90.5C 389.833,90.5 388.167,90.5 386.5,90.5C 386.66,92.1992 386.494,93.8659 386,95.5C 385.667,95.1667 385.333,94.8333 385,94.5C 381.876,97.6767 379.043,101.177 376.5,105C 372.585,106.064 370.418,104.564 370,100.5C 369.5,93.8417 369.334,87.175 369.5,80.5C 370.404,81.209 370.737,82.209 370.5,83.5C 370.5,85.5 370.5,87.5 370.5,89.5C 370.335,92.8499 370.502,96.1832 371,99.5C 383.853,94.4648 388.853,85.1314 386,71.5C 383.699,67.8414 381.199,64.5081 378.5,61.5C 377.167,60.5 375.833,59.5 374.5,58.5C 372.517,57.5294 370.517,56.5294 368.5,55.5C 363.484,51.8761 357.818,49.5427 351.5,48.5C 345.347,47.3467 339.014,47.18 332.5,48C 331.569,51.8411 331.903,55.6744 333.5,59.5C 333.747,60.7133 334.414,61.38 335.5,61.5C 333.544,63.1139 331.544,64.7806 329.5,66.5C 328.808,65.9747 328.308,65.3081 328,64.5C 327.333,59.8333 327.333,55.1667 328,50.5C 329.489,49.5761 329.656,48.5761 328.5,47.5C 325.139,49.1783 323.472,51.845 323.5,55.5C 321.549,55.7733 320.049,55.1066 319,53.5C 318.25,54.1258 317.416,54.6258 316.5,55C 315.94,58.7906 314.607,62.2906 312.5,65.5C 309.744,67.0911 307.911,69.4245 307,72.5C 306.658,70.3808 305.825,70.0474 304.5,71.5C 304.935,68.8427 305.935,66.5093 307.5,64.5C 308.906,64.0269 309.573,63.0269 309.5,61.5C 312.113,55.887 316.113,51.5537 321.5,48.5C 323.027,48.573 324.027,47.9063 324.5,46.5C 327.135,44.672 330.135,43.5053 333.5,43C 350.658,41.4945 366.658,45.1611 381.5,54C 388.445,58.621 395.112,63.4543 401.5,68.5 Z"/></g>
<g><path style="opacity:1" fill="#444444" d="M 351.5,48.5 C 346.833,48.5 342.167,48.5 337.5,48.5C 337.195,53.0812 339.195,55.9146 343.5,57C 342.833,57.3333 342.167,57.6667 341.5,58C 345.025,58.1787 348.359,58.6787 351.5,59.5C 346.009,59.1497 340.676,59.8164 335.5,61.5C 334.414,61.38 333.747,60.7133 333.5,59.5C 331.903,55.6744 331.569,51.8411 332.5,48C 339.014,47.18 345.347,47.3467 351.5,48.5 Z"/></g>
<g><path style="opacity:0.388" fill="#c1c1c1" d="M 401.5,69.5 C 401.5,69.1667 401.5,68.8333 401.5,68.5C 403.38,68.2291 404.713,68.8958 405.5,70.5C 404.167,70.1667 402.833,69.8333 401.5,69.5 Z"/></g>
<g><path style="opacity:1" fill="#545454" d="M 225.5,57.5 C 224.793,59.1344 223.627,60.4677 222,61.5C 220.781,65.3591 219.614,69.1925 218.5,73C 218.667,74.5 218.833,76 219,77.5C 219.333,77.1667 219.667,76.8333 220,76.5C 221.129,78.1412 222.629,79.1412 224.5,79.5C 224.5,81.5 224.5,83.5 224.5,85.5C 217.437,84.7449 214.104,80.7449 214.5,73.5C 217.104,68.5912 219.604,63.5912 222,58.5C 223.011,57.6634 224.178,57.33 225.5,57.5 Z"/></g>
<g><path style="opacity:0.886" fill="#a5a5a5" d="M 189.5,70.5 C 189.027,71.9063 188.027,72.573 186.5,72.5C 186.973,71.0937 187.973,70.427 189.5,70.5 Z"/></g>
<g><path style="opacity:1" fill="#060606" d="M 225.5,123.5 C 225.782,128.927 225.449,134.26 224.5,139.5C 223.508,139.328 222.842,139.662 222.5,140.5C 221.432,141.434 220.099,141.768 218.5,141.5C 210.167,142.833 201.833,142.833 193.5,141.5C 190.759,141.293 188.426,140.293 186.5,138.5C 186.027,137.094 185.027,136.427 183.5,136.5C 183.027,135.094 182.027,134.427 180.5,134.5C 182.334,131.761 184.668,130.427 187.5,130.5C 182.64,124.753 179.807,118.086 179,110.5C 174.458,94.9639 178.458,82.2973 191,72.5C 191.5,73 192,73.5 192.5,74C 190.303,76.4214 188.97,79.2548 188.5,82.5C 186.733,86.9076 186.233,91.5743 187,96.5C 188.487,105.827 191.987,114.16 197.5,121.5C 199.551,124.865 202.551,127.199 206.5,128.5C 206.833,128 207.167,127.5 207.5,127C 206.126,118.221 203.959,109.721 201,101.5C 200.667,90.1667 200.333,78.8333 200,67.5C 199.346,68.6956 198.846,68.6956 198.5,67.5C 199.934,66.7702 201.1,65.7702 202,64.5C 202.906,66.612 204.406,67.4453 206.5,67C 207.766,65.0173 209.432,64.0173 211.5,64C 205.458,71.0346 203.291,79.2013 205,88.5C 208.782,92.562 211.948,97.062 214.5,102C 219.081,102.355 222.248,104.521 224,108.5C 224.333,107.833 224.667,107.167 225,106.5C 225.499,112.157 225.666,117.824 225.5,123.5 Z"/></g>
<g><path style="opacity:1" fill="#070707" d="M 401.5,69.5 C 402.833,69.8333 404.167,70.1667 405.5,70.5C 406.492,70.3284 407.158,70.6618 407.5,71.5C 407.549,74.5719 409.049,77.2386 412,79.5C 422.972,97.7259 421.472,114.893 407.5,131C 409.577,131.192 411.577,131.692 413.5,132.5C 412.237,134.029 411.237,135.695 410.5,137.5C 409.089,139.539 407.089,140.539 404.5,140.5C 395.251,142.744 385.918,143.078 376.5,141.5C 374.447,141.598 372.78,140.931 371.5,139.5C 371.44,138.957 371.107,138.624 370.5,138.5C 369.571,139.689 369.238,141.022 369.5,142.5C 368.626,120.297 368.126,97.9633 368,75.5C 368.278,76.4158 368.778,77.0825 369.5,77.5C 369.5,77.8333 369.5,78.1667 369.5,78.5C 369.5,79.1667 369.5,79.8333 369.5,80.5C 369.334,87.175 369.5,93.8417 370,100.5C 370.418,104.564 372.585,106.064 376.5,105C 379.043,101.177 381.876,97.6767 385,94.5C 385.333,94.8333 385.667,95.1667 386,95.5C 386.494,93.8659 386.66,92.1992 386.5,90.5C 388.167,90.5 389.833,90.5 391.5,90.5C 391.443,92.8845 391.777,95.2178 392.5,97.5C 390.973,102.943 389.14,108.276 387,113.5C 385.782,118.455 385.449,123.455 386,128.5C 389.203,129.826 392.036,129.159 394.5,126.5C 396.254,122.656 398.254,118.989 400.5,115.5C 401.597,112.314 402.93,109.314 404.5,106.5C 405.793,105.158 406.626,103.491 407,101.5C 409.145,92.6467 408.478,83.98 405,75.5C 403.989,74.6634 402.822,74.33 401.5,74.5C 402.701,72.1732 402.701,70.5066 401.5,69.5 Z"/></g>
<g><path style="opacity:0.039" fill="#cbcbcb" d="M 411.5,74.5 C 413.027,74.427 414.027,75.0937 414.5,76.5C 412.973,76.573 411.973,75.9063 411.5,74.5 Z"/></g>
<g><path style="opacity:1" fill="#6c6c6c" d="M 186.5,72.5 C 185.415,74.5869 183.749,75.9202 181.5,76.5C 182.585,74.4131 184.251,73.0798 186.5,72.5 Z"/></g>
<g><path style="opacity:1" fill="#3f3f3f" d="M 241.5,49.5 C 235.898,51.6343 230.565,54.3009 225.5,57.5C 224.178,57.33 223.011,57.6634 222,58.5C 219.604,63.5912 217.104,68.5912 214.5,73.5C 214.104,80.7449 217.437,84.7449 224.5,85.5C 224.372,87.0898 223.705,88.4231 222.5,89.5C 217.954,88.5161 214.454,86.1828 212,82.5C 211.029,75.6487 212.195,69.3154 215.5,63.5C 216.954,60.8773 218.954,58.7106 221.5,57C 227.676,53.074 234.343,50.574 241.5,49.5 Z"/></g>
<g><path style="opacity:1" fill="#a4a4a4" d="M 303.5,74.5 C 301.994,80.7311 301.327,87.0645 301.5,93.5C 299.907,86.9621 300.573,80.6288 303.5,74.5 Z"/></g>
<g><path style="opacity:1" fill="#4c4c4c" d="M 240.5,62.5 C 239.327,67.2954 240.327,71.6287 243.5,75.5C 246.305,71.8906 249.472,68.5573 253,65.5C 253.239,64.212 252.739,63.212 251.5,62.5C 253.099,62.2322 254.432,62.5655 255.5,63.5C 255.322,66.2165 254.822,68.8832 254,71.5C 250.944,75.048 248.111,78.7147 245.5,82.5C 244.311,83.4287 242.978,83.762 241.5,83.5C 241.768,81.901 241.434,80.5676 240.5,79.5C 239.952,77.3736 239.285,75.3736 238.5,73.5C 238.5,70.1667 238.5,66.8333 238.5,63.5C 238.842,62.6618 239.508,62.3284 240.5,62.5 Z"/></g>
<g><path style="opacity:1" fill="#3d3d3d" d="M 367.5,71.5 C 368.738,73.2143 369.405,75.2143 369.5,77.5C 368.778,77.0825 368.278,76.4158 368,75.5C 368.126,97.9633 368.626,120.297 369.5,142.5C 369.5,142.833 369.5,143.167 369.5,143.5C 368.502,175.329 368.168,207.329 368.5,239.5C 368.167,240.833 367.833,242.167 367.5,243.5C 366.133,244.853 365.133,244.519 364.5,242.5C 365.163,186.039 365.829,129.706 366.5,73.5C 367.338,73.1583 367.672,72.4916 367.5,71.5 Z"/></g>
<g><path style="opacity:1" fill="#3f3f3f" d="M 374.5,58.5 C 375.833,59.5 377.167,60.5 378.5,61.5C 382.535,68.1139 383.368,75.1139 381,82.5C 378.907,87.1157 375.407,89.449 370.5,89.5C 370.5,87.5 370.5,85.5 370.5,83.5C 372.468,84.819 374.468,84.819 376.5,83.5C 377.692,81.2585 378.692,78.9252 379.5,76.5C 378.776,71.8282 377.943,67.1615 377,62.5C 375.519,61.5291 374.685,60.1958 374.5,58.5 Z"/></g>
<g><path style="opacity:1" fill="#535353" d="M 416.5,78.5 C 418.984,80.8003 420.984,83.4669 422.5,86.5C 419.262,84.844 417.262,82.1773 416.5,78.5 Z"/></g>
<g><path style="opacity:1" fill="#2b2b2b" d="M 215.5,63.5 C 212.195,69.3154 211.029,75.6487 212,82.5C 214.454,86.1828 217.954,88.5161 222.5,89.5C 223.705,88.4231 224.372,87.0898 224.5,85.5C 224.5,83.5 224.5,81.5 224.5,79.5C 224.833,79.5 225.167,79.5 225.5,79.5C 225.553,85.1956 225.22,90.8623 224.5,96.5C 221.092,95.6332 217.758,94.4665 214.5,93C 209.081,87.1357 207.414,80.3023 209.5,72.5C 211.131,70.9412 211.964,68.9412 212,66.5C 213.039,65.2899 214.206,64.2899 215.5,63.5 Z"/></g>
<g><path style="opacity:0.672" fill="#b4b4b4" d="M 292.5,76.5 C 293.97,79.886 294.637,83.5527 294.5,87.5C 294.497,90.0254 294.163,92.3587 293.5,94.5C 293.575,88.4707 293.241,82.4707 292.5,76.5 Z"/></g>
<g><path style="opacity:0.478" fill="#c1c1c1" d="M 422.5,86.5 C 423.906,86.9731 424.573,87.9731 424.5,89.5C 423.094,89.0269 422.427,88.0269 422.5,86.5 Z"/></g>
<g><path style="opacity:0.451" fill="#c3c3c3" d="M 172.5,87.5 C 172.573,89.0269 171.906,90.0269 170.5,90.5C 170.427,88.9731 171.094,87.9731 172.5,87.5 Z"/></g>
<g><path style="opacity:1" fill="#e5e5e5" d="M 342.5,88.5 C 344.635,88.147 345.968,88.9803 346.5,91C 346.252,92.7491 345.252,93.5824 343.5,93.5C 341.31,92.2524 340.977,90.5857 342.5,88.5 Z"/></g>
<g><path style="opacity:1" fill="#232323" d="M 378.5,61.5 C 381.199,64.5081 383.699,67.8414 386,71.5C 388.853,85.1314 383.853,94.4648 371,99.5C 370.502,96.1832 370.335,92.8499 370.5,89.5C 375.407,89.449 378.907,87.1157 381,82.5C 383.368,75.1139 382.535,68.1139 378.5,61.5 Z"/></g>
<g><path style="opacity:1" fill="#252525" d="M 238.5,73.5 C 239.285,75.3736 239.952,77.3736 240.5,79.5C 240.798,89.1431 240.798,98.4764 240.5,107.5C 240.709,108.994 241.376,110.161 242.5,111C 241.606,113.068 240.94,115.235 240.5,117.5C 240.53,150.067 240.53,182.733 240.5,215.5C 238.505,168.512 237.838,121.178 238.5,73.5 Z"/></g>
<g><path style="opacity:1" fill="#222222" d="M 407.5,71.5 C 409.404,71.7376 410.738,72.7376 411.5,74.5C 411.973,75.9063 412.973,76.573 414.5,76.5C 415.5,76.8333 416.167,77.5 416.5,78.5C 417.262,82.1773 419.262,84.844 422.5,86.5C 422.427,88.0269 423.094,89.0269 424.5,89.5C 425.404,90.209 425.737,91.209 425.5,92.5C 427.182,99.7121 427.848,107.045 427.5,114.5C 427.5,114.833 427.5,115.167 427.5,115.5C 426.069,116.78 425.402,118.447 425.5,120.5C 422.958,128.373 417.958,134.039 410.5,137.5C 411.237,135.695 412.237,134.029 413.5,132.5C 411.577,131.692 409.577,131.192 407.5,131C 421.472,114.893 422.972,97.7259 412,79.5C 409.049,77.2386 407.549,74.5719 407.5,71.5 Z"/></g>
<g><path style="opacity:0.992" fill="#9f9f9f" d="M 169.5,93.5 C 169.435,96.4282 168.768,99.0948 167.5,101.5C 167.294,98.5049 167.96,95.8383 169.5,93.5 Z"/></g>
<g><path style="opacity:1" fill="#272727" d="M 403.5,79.5 C 401.151,79.4583 399.818,80.6249 399.5,83C 400.597,88.4599 400.764,93.9599 400,99.5C 398.057,106.45 395.89,113.284 393.5,120C 394.094,120.464 394.761,120.631 395.5,120.5C 392.531,124.5 391.198,123.667 391.5,118C 392.566,113.234 393.733,108.4 395,103.5C 395.333,92.8333 395.667,82.1667 396,71.5C 399.369,73.3682 401.869,76.0348 403.5,79.5 Z"/></g>
<g><path style="opacity:1" fill="#272727" d="M 366.5,73.5 C 365.829,129.706 365.163,186.039 364.5,242.5C 365.133,244.519 366.133,244.853 367.5,243.5C 367.672,244.492 367.338,245.158 366.5,245.5C 364.156,245.494 362.822,244.327 362.5,242C 363.324,184.185 363.824,126.351 364,68.5C 365.372,69.9101 366.205,71.5767 366.5,73.5 Z"/></g>
<g><path style="opacity:0.814" fill="#9c9c9c" d="M 425.5,92.5 C 426.927,94.1484 427.76,96.1484 428,98.5C 428.817,104.016 428.651,109.35 427.5,114.5C 427.848,107.045 427.182,99.7121 425.5,92.5 Z"/></g>
<g><path style="opacity:1" fill="#393939" d="M 403.5,79.5 C 407.123,88.3309 407.456,97.3309 404.5,106.5C 402.93,109.314 401.597,112.314 400.5,115.5C 398.521,116.812 396.855,118.479 395.5,120.5C 394.761,120.631 394.094,120.464 393.5,120C 395.89,113.284 398.057,106.45 400,99.5C 400.764,93.9599 400.597,88.4599 399.5,83C 399.818,80.6249 401.151,79.4583 403.5,79.5 Z"/></g>
<g><path style="opacity:1" fill="#3d3d3d" d="M 197.5,121.5 C 191.987,114.16 188.487,105.827 187,96.5C 186.233,91.5743 186.733,86.9076 188.5,82.5C 190.093,80.3425 191.926,78.3425 194,76.5C 194.333,84.5 194.667,92.5 195,100.5C 198.489,107.009 200.823,114.009 202,121.5C 203.976,122.543 204.476,123.877 203.5,125.5C 201.754,123.748 199.754,122.415 197.5,121.5 Z"/></g>
<g><path style="opacity:0.004" fill="#cdcdcd" d="M 285.5,110.5 C 285.573,112.027 284.906,113.027 283.5,113.5C 283.427,111.973 284.094,110.973 285.5,110.5 Z"/></g>
<g><path style="opacity:1" fill="#151515" d="M 325.5,122.5 C 324.833,122.5 324.167,122.5 323.5,122.5C 323.027,121.094 322.027,120.427 320.5,120.5C 314.096,116.431 309.096,111.098 305.5,104.5C 310.338,103.647 315.338,103.647 320.5,104.5C 321.903,106.731 323.07,109.064 324,111.5C 324.333,108.833 324.667,106.167 325,103.5C 326.544,109.962 326.711,116.295 325.5,122.5 Z"/></g>
<g><path style="opacity:1" fill="#363636" d="M 177.5,80.5 C 177.611,81.1174 177.944,81.6174 178.5,82C 174.255,94.1543 174.588,106.154 179.5,118C 177.732,121.966 176.732,126.133 176.5,130.5C 168.44,122.324 165.44,112.657 167.5,101.5C 168.768,99.0948 169.435,96.4282 169.5,93.5C 169.263,92.209 169.596,91.209 170.5,90.5C 171.906,90.0269 172.573,89.0269 172.5,87.5C 173.433,84.6298 175.1,82.2964 177.5,80.5 Z"/></g>
<g><path style="opacity:1" fill="#343434" d="M 255.5,63.5 C 255.833,63.5 256.167,63.5 256.5,63.5C 256.586,70.6493 254.419,76.9826 250,82.5C 249.333,86.1667 249.333,89.8333 250,93.5C 250.5,94 251,94.5 251.5,95C 248.598,102.566 248.264,110.4 250.5,118.5C 249.962,120.117 249.629,121.784 249.5,123.5C 247.795,148.254 247.461,172.921 248.5,197.5C 248.5,198.167 248.5,198.833 248.5,199.5C 247.156,204.163 245.49,208.83 243.5,213.5C 244.376,214.251 245.376,214.751 246.5,215C 244.527,215.495 242.527,215.662 240.5,215.5C 240.53,182.733 240.53,150.067 240.5,117.5C 240.94,115.235 241.606,113.068 242.5,111C 241.376,110.161 240.709,108.994 240.5,107.5C 240.798,98.4764 240.798,89.1431 240.5,79.5C 241.434,80.5676 241.768,81.901 241.5,83.5C 242.978,83.762 244.311,83.4287 245.5,82.5C 248.111,78.7147 250.944,75.048 254,71.5C 254.822,68.8832 255.322,66.2165 255.5,63.5 Z"/></g>
<g><path style="opacity:0.588" fill="#c5c5c5" d="M 427.5,115.5 C 427.598,117.553 426.931,119.22 425.5,120.5C 425.402,118.447 426.069,116.78 427.5,115.5 Z"/></g>
<g><path style="opacity:1" fill="#373737" d="M 353.5,62.5 C 354.822,62.33 355.989,62.6634 357,63.5C 357.678,67.2211 357.511,70.8878 356.5,74.5C 355.154,80.448 354.488,86.6147 354.5,93C 355.06,100.695 355.06,108.528 354.5,116.5C 353.165,138.988 352.332,161.655 352,184.5C 351.607,187.633 350.774,190.633 349.5,193.5C 347.971,188.993 347.305,184.326 347.5,179.5C 347.806,161.118 347.806,142.784 347.5,124.5C 346.972,122.664 346.306,120.997 345.5,119.5C 345.984,115.173 345.318,111.173 343.5,107.5C 343.611,106.883 343.944,106.383 344.5,106C 340.864,105.374 340.864,104.207 344.5,102.5C 343.975,101.808 343.308,101.308 342.5,101C 343.308,100.692 343.975,100.192 344.5,99.5C 341.88,97.535 342.214,96.035 345.5,95C 344.584,94.7216 343.918,94.2216 343.5,93.5C 345.252,93.5824 346.252,92.7491 346.5,91C 345.968,88.9803 344.635,88.147 342.5,88.5C 341.018,83.5251 339.518,78.5251 338,73.5C 334.899,64.6383 337.899,60.6383 347,61.5C 349.361,61.5039 351.527,61.8373 353.5,62.5 Z"/></g>
<g><path style="opacity:1" fill="#757575" d="M 353.5,62.5 C 353.923,63.2646 354.257,64.0979 354.5,65C 353.434,68.0937 352.768,71.2604 352.5,74.5C 347.294,73.6293 343.961,70.6293 342.5,65.5C 342.608,64.5581 342.941,63.7247 343.5,63C 346.817,62.5017 350.15,62.335 353.5,62.5 Z"/></g>
<g><path style="opacity:0.702" fill="#a5a5a5" d="M 320.5,120.5 C 322.027,120.427 323.027,121.094 323.5,122.5C 321.973,122.573 320.973,121.906 320.5,120.5 Z"/></g>
<g><path style="opacity:1" fill="#262626" d="M 249.5,123.5 C 250.561,126.78 251.228,130.613 251.5,135C 250.275,154.065 250.275,173.065 251.5,192C 249.658,193.346 248.658,195.179 248.5,197.5C 247.461,172.921 247.795,148.254 249.5,123.5 Z"/></g>
<g><path style="opacity:1" fill="#202020" d="M 343.5,107.5 C 345.318,111.173 345.984,115.173 345.5,119.5C 345.841,143.738 346.508,167.905 347.5,192C 346.234,197.876 347.234,203.71 350.5,209.5C 348.978,210.562 347.312,211.229 345.5,211.5C 345.823,205.31 345.49,199.31 344.5,193.5C 342.737,174.393 341.737,155.06 341.5,135.5C 341.118,130.32 342.118,125.486 344.5,121C 344.333,120.5 344.167,120 344,119.5C 342.615,120.551 341.615,121.884 341,123.5C 340.833,123 340.667,122.5 340.5,122C 343.582,118.346 344.748,114.179 344,109.5C 343.626,110.416 343.126,111.25 342.5,112C 343.15,113.609 342.65,115.109 341,116.5C 341.099,113.888 341.432,111.221 342,108.5C 342.383,107.944 342.883,107.611 343.5,107.5 Z"/></g>
<g><path style="opacity:1" fill="#2b2b2b" d="M 354.5,116.5 C 354.5,149.5 354.5,182.5 354.5,215.5C 354.999,219.475 355.332,223.475 355.5,227.5C 355.799,237.694 351.632,240.027 343,234.5C 344.156,232.907 345.322,231.073 346.5,229C 345.631,227.131 344.465,226.631 343,227.5C 342.51,226.207 342.343,224.873 342.5,223.5C 343.822,223.67 344.989,223.337 346,222.5C 346.45,218.812 346.283,215.146 345.5,211.5C 347.312,211.229 348.978,210.562 350.5,209.5C 347.234,203.71 346.234,197.876 347.5,192C 346.508,167.905 345.841,143.738 345.5,119.5C 346.306,120.997 346.972,122.664 347.5,124.5C 347.806,142.784 347.806,161.118 347.5,179.5C 347.305,184.326 347.971,188.993 349.5,193.5C 350.774,190.633 351.607,187.633 352,184.5C 352.332,161.655 353.165,138.988 354.5,116.5 Z"/></g>
<g><path style="opacity:1" fill="#222222" d="M 356.5,74.5 C 357.162,121.845 356.495,168.845 354.5,215.5C 354.5,182.5 354.5,149.5 354.5,116.5C 355.06,108.528 355.06,100.695 354.5,93C 354.488,86.6147 355.154,80.448 356.5,74.5 Z"/></g>
<g><path style="opacity:0.753" fill="#9e9e9e" d="M 180.5,134.5 C 182.027,134.427 183.027,135.094 183.5,136.5C 181.973,136.573 180.973,135.906 180.5,134.5 Z"/></g>
<g><path style="opacity:0.639" fill="#a6a6a6" d="M 183.5,136.5 C 185.027,136.427 186.027,137.094 186.5,138.5C 184.973,138.573 183.973,137.906 183.5,136.5 Z"/></g>
<g><path style="opacity:0.4" fill="#d7d7d7" d="M 371.5,139.5 C 370.523,142.287 370.19,145.287 370.5,148.5C 376.69,148.177 382.69,148.51 388.5,149.5C 382.167,149.5 375.833,149.5 369.5,149.5C 369.5,147.5 369.5,145.5 369.5,143.5C 369.5,143.167 369.5,142.833 369.5,142.5C 369.238,141.022 369.571,139.689 370.5,138.5C 371.107,138.624 371.44,138.957 371.5,139.5 Z"/></g>
<g><path style="opacity:0.4" fill="#c4c4c4" d="M 193.5,141.5 C 201.833,142.833 210.167,142.833 218.5,141.5C 214.609,143.007 210.442,143.674 206,143.5C 201.558,143.674 197.391,143.007 193.5,141.5 Z"/></g>
<g><path style="opacity:0.741" fill="#b2b2b2" d="M 404.5,140.5 C 402.852,141.927 400.852,142.76 398.5,143C 395.5,143.167 392.5,143.333 389.5,143.5C 384.893,143.684 380.56,143.017 376.5,141.5C 385.918,143.078 395.251,142.744 404.5,140.5 Z"/></g>
<g><path style="opacity:0.382" fill="#dedede" d="M 222.5,140.5 C 222.842,139.662 223.508,139.328 224.5,139.5C 225.479,142.625 225.813,145.958 225.5,149.5C 219.167,149.5 212.833,149.5 206.5,149.5C 212.31,148.51 218.31,148.177 224.5,148.5C 225.036,145.302 224.369,142.635 222.5,140.5 Z"/></g>
<g><path style="opacity:0.498" fill="#bebebe" d="M 323.5,122.5 C 324.167,122.5 324.833,122.5 325.5,122.5C 325.5,131.5 325.5,140.5 325.5,149.5C 306.833,149.5 288.167,149.5 269.5,149.5C 269.174,140.651 269.507,131.984 270.5,123.5C 270.5,131.833 270.5,140.167 270.5,148.5C 288.5,148.5 306.5,148.5 324.5,148.5C 324.803,139.749 324.47,131.082 323.5,122.5 Z"/></g>
<g><path style="opacity:1" fill="#0b0b0b" d="M 369.5,149.5 C 375.833,149.5 382.167,149.5 388.5,149.5C 392.042,149.187 395.375,149.521 398.5,150.5C 402.615,151.943 406.948,152.943 411.5,153.5C 416.098,154.465 420.098,156.465 423.5,159.5C 424.623,161.958 424.623,164.125 423.5,166C 435.633,179.371 442.133,195.204 443,213.5C 444.609,233.731 443.276,253.731 439,273.5C 437.494,278.675 435.327,283.508 432.5,288C 432.728,288.399 433.062,288.565 433.5,288.5C 431.212,289.074 429.045,290.074 427,291.5C 425.667,290.833 424.667,289.833 424,288.5C 422.445,290.515 420.611,290.848 418.5,289.5C 421.683,287.493 425.016,286.993 428.5,288C 436.324,272.143 439.991,255.31 439.5,237.5C 440.903,221.253 438.903,205.586 433.5,190.5C 426.497,168.814 411.497,158.147 388.5,158.5C 388.334,164.176 388.501,169.843 389,175.5C 393.366,180.695 397.866,185.695 402.5,190.5C 410.836,201.676 419.002,213.009 427,224.5C 429.072,227.971 430.572,231.638 431.5,235.5C 432.779,239.521 432.612,243.521 431,247.5C 430.818,244.774 430.318,242.107 429.5,239.5C 428.828,240.949 428.161,242.282 427.5,243.5C 427.106,237.703 425.272,232.37 422,227.5C 416.719,219.059 410.886,211.059 404.5,203.5C 399.001,194.49 392.168,186.49 384,179.5C 382.584,173.285 382.084,166.952 382.5,160.5C 378.167,160.5 373.833,160.5 369.5,160.5C 369.5,156.833 369.5,153.167 369.5,149.5 Z"/></g>
<g><path style="opacity:0.349" fill="#c6c6c6" d="M 398.5,150.5 C 403.192,150.425 407.526,151.425 411.5,153.5C 406.948,152.943 402.615,151.943 398.5,150.5 Z"/></g>
<g><path style="opacity:0.937" fill="#8f8f8f" d="M 196.5,150.5 C 192.8,152.281 188.8,153.281 184.5,153.5C 188.163,151.584 192.163,150.584 196.5,150.5 Z"/></g>
<g><path style="opacity:1" fill="#2b2b2b" d="M 230.5,245.5 C 229.833,245.5 229.5,245.833 229.5,246.5C 228.5,246.167 227.833,245.5 227.5,244.5C 228.499,188.336 228.832,132.002 228.5,75.5C 228.372,73.3453 228.872,71.3453 230,69.5C 230.5,128.166 230.667,186.832 230.5,245.5 Z"/></g>
<g><path style="opacity:0.945" fill="#979797" d="M 177.5,156.5 C 177.027,157.906 176.027,158.573 174.5,158.5C 174.973,157.094 175.973,156.427 177.5,156.5 Z"/></g>
<g><path style="opacity:1" fill="#191919" d="M 238.5,63.5 C 238.5,66.8333 238.5,70.1667 238.5,73.5C 237.838,121.178 238.505,168.512 240.5,215.5C 242.527,215.662 244.527,215.495 246.5,215C 245.376,214.751 244.376,214.251 243.5,213.5C 245.49,208.83 247.156,204.163 248.5,199.5C 248.5,203.833 248.5,208.167 248.5,212.5C 249.5,212.5 250.5,212.5 251.5,212.5C 251.5,213.5 251.5,214.5 251.5,215.5C 250.5,215.5 249.5,215.5 248.5,215.5C 248.337,217.857 248.503,220.19 249,222.5C 252.314,224.461 252.147,226.127 248.5,227.5C 247.548,225.888 247.214,224.388 247.5,223C 244.832,222.433 242.166,221.933 239.5,221.5C 239.334,225.846 239.501,230.179 240,234.5C 242.737,235.61 245.571,235.777 248.5,235C 249.413,233.586 249.413,232.086 248.5,230.5C 249.708,231.234 251.041,231.567 252.5,231.5C 252.714,233.144 252.38,234.644 251.5,236C 246.958,237.604 242.458,237.437 238,235.5C 237.773,229.296 237.273,223.129 236.5,217C 237.24,168.031 237.24,119.031 236.5,70C 236.667,68.1667 236.833,66.3333 237,64.5C 237.383,63.944 237.883,63.6107 238.5,63.5 Z"/></g>
<g><path style="opacity:0.933" fill="#a1a1a1" d="M 170.5,161.5 C 168.5,164.167 166.167,166.5 163.5,168.5C 164.833,165.167 167.167,162.833 170.5,161.5 Z"/></g>
<g><path style="opacity:1" fill="#040404" d="M 366.5,245.5 C 367.338,245.158 367.672,244.492 367.5,243.5C 367.833,242.167 368.167,240.833 368.5,239.5C 369.167,215.997 369.833,192.33 370.5,168.5C 377.164,172.808 381.664,178.808 384,186.5C 387.706,189.511 391.373,192.511 395,195.5C 397.788,199.429 400.288,203.429 402.5,207.5C 401.25,220.457 405.417,231.124 415,239.5C 425.383,255.359 424.55,270.692 412.5,285.5C 408.981,288.175 404.981,289.842 400.5,290.5C 397.038,289.518 393.371,289.185 389.5,289.5C 384.668,288.872 379.668,288.705 374.5,289C 380.877,288.638 380.877,287.471 374.5,285.5C 374.167,286.167 373.833,286.833 373.5,287.5C 365.236,282.729 359.736,275.729 357,266.5C 355.269,264.383 353.102,262.883 350.5,262C 342.833,261.667 335.167,261.333 327.5,261C 322.946,260.536 318.613,259.369 314.5,257.5C 313.711,257.217 313.044,256.717 312.5,256C 302.833,255.333 293.167,255.333 283.5,256C 282.956,256.717 282.289,257.217 281.5,257.5C 278.425,258.517 275.425,259.683 272.5,261C 264.147,261.168 255.813,261.668 247.5,262.5C 252.833,263.167 258.167,263.833 263.5,264.5C 257.337,266.932 251.337,266.766 245.5,264C 245.833,263.667 246.167,263.333 246.5,263C 243.38,262.641 240.88,263.808 239,266.5C 233.725,283.342 222.559,291.008 205.5,289.5C 204.833,289.5 204.167,289.5 203.5,289.5C 190.982,291.494 182.149,286.828 177,275.5C 174.124,266.264 173.79,256.931 176,247.5C 180.241,240.915 184.907,234.582 190,228.5C 190.601,217.285 193.767,206.951 199.5,197.5C 202.981,193.83 206.814,190.497 211,187.5C 212.556,182.72 214.889,178.387 218,174.5C 220.128,172.192 222.628,170.526 225.5,169.5C 225.5,172.5 225.5,175.5 225.5,178.5C 221.779,179.06 219.445,181.226 218.5,185C 219.886,188.005 221.886,188.338 224.5,186C 223.251,183.79 223.418,181.624 225,179.5C 225.333,199.5 225.667,219.5 226,239.5C 226.608,241.154 227.108,242.821 227.5,244.5C 227.833,245.5 228.5,246.167 229.5,246.5C 229.709,247.922 230.209,249.255 231,250.5C 233.761,247.479 235.594,243.979 236.5,240C 240.336,241.173 244.336,241.506 248.5,241C 250.444,239.58 252.277,238.08 254,236.5C 254.772,236.645 255.439,236.978 256,237.5C 256.333,239.5 256.667,241.5 257,243.5C 257.368,244.91 258.201,245.91 259.5,246.5C 262.665,245.75 265.331,244.416 267.5,242.5C 267.709,241.078 268.209,239.745 269,238.5C 269.5,208.835 269.667,179.169 269.5,149.5C 288.167,149.5 306.833,149.5 325.5,149.5C 325.333,179.502 325.5,209.502 326,239.5C 326.717,240.044 327.217,240.711 327.5,241.5C 327.47,242.497 327.97,243.164 329,243.5C 330.235,242.385 331.402,242.385 332.5,243.5C 333.167,234.167 333.833,224.833 334.5,215.5C 335.23,214.066 336.23,212.9 337.5,212C 337.167,211.667 336.833,211.333 336.5,211C 338.945,205.024 341.612,199.191 344.5,193.5C 345.49,199.31 345.823,205.31 345.5,211.5C 342.742,212.377 340.076,213.544 337.5,215C 339.81,215.497 342.143,215.663 344.5,215.5C 344.5,217.833 344.5,220.167 344.5,222.5C 342.833,222.5 341.167,222.5 339.5,222.5C 336.495,235.488 341.495,241.154 354.5,239.5C 354.351,238.448 354.517,237.448 355,236.5C 355.333,236.833 355.667,237.167 356,237.5C 356.308,236.692 356.808,236.025 357.5,235.5C 358.074,195.486 358.907,155.486 360,115.5C 360.812,159.522 360.646,203.522 359.5,247.5C 362.388,248.01 364.721,247.344 366.5,245.5 Z"/></g>
<g><path style="opacity:1" fill="#343434" d="M 316.5,170.5 C 313.5,173.833 310.5,177.167 307.5,180.5C 306.533,179.194 305.199,178.527 303.5,178.5C 303.5,177.5 303.5,176.5 303.5,175.5C 297.824,175.666 292.157,175.499 286.5,175C 284.085,170.618 281.752,166.285 279.5,162C 279.833,161.667 280.167,161.333 280.5,161C 293.5,160.333 306.5,160.333 319.5,161C 317.816,163.887 316.816,167.054 316.5,170.5 Z"/></g>
<g><path style="opacity:1" fill="#2f2f2f" d="M 184.5,153.5 C 184.389,154.117 184.056,154.617 183.5,155C 185.577,155.192 187.577,155.692 189.5,156.5C 173.397,162.104 162.897,173.104 158,189.5C 149.334,218.823 149.334,248.156 158,277.5C 159.432,281.531 161.266,285.364 163.5,289C 162.584,289.278 161.918,289.778 161.5,290.5C 161.167,290.5 160.833,290.5 160.5,290.5C 159.127,290.343 157.793,290.51 156.5,291C 155.61,293.665 153.943,295.499 151.5,296.5C 150.596,297.209 150.263,298.209 150.5,299.5C 149.5,299.5 148.5,299.5 147.5,299.5C 147.5,297.833 147.5,296.167 147.5,294.5C 148.11,292.566 149.11,290.899 150.5,289.5C 152.924,289.808 155.257,289.474 157.5,288.5C 157.376,287.893 157.043,287.56 156.5,287.5C 151.834,278.486 149.167,268.819 148.5,258.5C 147.167,241.833 147.167,225.167 148.5,208.5C 148.205,206.265 148.539,204.265 149.5,202.5C 151.281,198.8 152.281,194.8 152.5,190.5C 153.204,185.71 154.871,181.377 157.5,177.5C 158.906,177.027 159.573,176.027 159.5,174.5C 159.845,171.802 161.178,169.802 163.5,168.5C 166.167,166.5 168.5,164.167 170.5,161.5C 171.262,159.738 172.596,158.738 174.5,158.5C 176.027,158.573 177.027,157.906 177.5,156.5C 179.426,154.707 181.759,153.707 184.5,153.5 Z"/></g>
<g><path style="opacity:1" fill="#303030" d="M 433.5,190.5 C 431.952,190.179 431.285,189.179 431.5,187.5C 429.876,187.64 428.71,186.973 428,185.5C 425.787,186.76 423.287,187.426 420.5,187.5C 414.836,186.505 409.169,185.505 403.5,184.5C 403.795,186.735 403.461,188.735 402.5,190.5C 397.866,185.695 393.366,180.695 389,175.5C 388.501,169.843 388.334,164.176 388.5,158.5C 411.497,158.147 426.497,168.814 433.5,190.5 Z"/></g>
<g><path style="opacity:1" fill="#2b2b2b" d="M 316.5,170.5 C 316.816,167.054 317.816,163.887 319.5,161C 306.5,160.333 293.5,160.333 280.5,161C 280.167,161.333 279.833,161.667 279.5,162C 281.752,166.285 284.085,170.618 286.5,175C 292.157,175.499 297.824,175.666 303.5,175.5C 303.5,176.5 303.5,177.5 303.5,178.5C 305.199,178.527 306.533,179.194 307.5,180.5C 306.58,183.508 305.246,186.341 303.5,189C 299.514,189.499 295.514,189.666 291.5,189.5C 288.16,178.818 281.493,170.818 271.5,165.5C 272.052,163.997 272.052,162.331 271.5,160.5C 289.146,159.586 306.813,159.252 324.5,159.5C 324.662,161.527 324.495,163.527 324,165.5C 321.213,166.805 318.713,168.472 316.5,170.5 Z"/></g>
<g><path style="opacity:0.604" fill="#b7b7b7" d="M 159.5,174.5 C 159.573,176.027 158.906,177.027 157.5,177.5C 157.427,175.973 158.094,174.973 159.5,174.5 Z"/></g>
<g><path style="opacity:1" fill="#303030" d="M 225.5,160.5 C 225.5,163.5 225.5,166.5 225.5,169.5C 222.628,170.526 220.128,172.192 218,174.5C 214.889,178.387 212.556,182.72 211,187.5C 206.814,190.497 202.981,193.83 199.5,197.5C 198.038,196.529 196.705,196.862 195.5,198.5C 201.096,191.06 206.929,183.727 213,176.5C 213.499,171.177 213.666,165.844 213.5,160.5C 217.5,160.5 221.5,160.5 225.5,160.5 Z"/></g>
<g><path style="opacity:1" fill="#2e2e2e" d="M 369.5,143.5 C 369.5,145.5 369.5,147.5 369.5,149.5C 369.5,153.167 369.5,156.833 369.5,160.5C 373.833,160.5 378.167,160.5 382.5,160.5C 382.084,166.952 382.584,173.285 384,179.5C 392.168,186.49 399.001,194.49 404.5,203.5C 403.502,203.344 402.502,203.844 401.5,205C 402.252,205.671 402.586,206.504 402.5,207.5C 400.288,203.429 397.788,199.429 395,195.5C 391.373,192.511 387.706,189.511 384,186.5C 381.664,178.808 377.164,172.808 370.5,168.5C 369.833,192.33 369.167,215.997 368.5,239.5C 368.168,207.329 368.502,175.329 369.5,143.5 Z"/></g>
<g><path style="opacity:1" fill="#222222" d="M 327.5,241.5 C 327.217,240.711 326.717,240.044 326,239.5C 325.5,209.502 325.333,179.502 325.5,149.5C 326.222,149.082 326.722,148.416 327,147.5C 328.689,178.987 328.856,210.32 327.5,241.5 Z"/></g>
<g><path style="opacity:1" fill="#242424" d="M 433.5,190.5 C 438.903,205.586 440.903,221.253 439.5,237.5C 438.167,237.5 436.833,237.5 435.5,237.5C 435.5,235.833 435.5,234.167 435.5,232.5C 434.5,232.5 433.5,232.5 432.5,232.5C 432.737,233.791 432.404,234.791 431.5,235.5C 430.572,231.638 429.072,227.971 427,224.5C 419.002,213.009 410.836,201.676 402.5,190.5C 403.461,188.735 403.795,186.735 403.5,184.5C 409.169,185.505 414.836,186.505 420.5,187.5C 423.287,187.426 425.787,186.76 428,185.5C 428.71,186.973 429.876,187.64 431.5,187.5C 431.285,189.179 431.952,190.179 433.5,190.5 Z"/></g>
<g><path style="opacity:1" fill="#4b4b4b" d="M 228.5,75.5 C 228.832,132.002 228.499,188.336 227.5,244.5C 227.108,242.821 226.608,241.154 226,239.5C 225.667,219.5 225.333,199.5 225,179.5C 223.418,181.624 223.251,183.79 224.5,186C 221.886,188.338 219.886,188.005 218.5,185C 219.445,181.226 221.779,179.06 225.5,178.5C 225.5,175.5 225.5,172.5 225.5,169.5C 225.5,166.5 225.5,163.5 225.5,160.5C 225.5,156.833 225.5,153.167 225.5,149.5C 225.813,145.958 225.479,142.625 224.5,139.5C 225.449,134.26 225.782,128.927 225.5,123.5C 226.602,107.505 227.602,91.5053 228.5,75.5 Z"/></g>
<g><path style="opacity:1" fill="#8e8e8e" d="M 152.5,190.5 C 152.281,194.8 151.281,198.8 149.5,202.5C 149.584,198.163 150.584,194.163 152.5,190.5 Z"/></g>
<g><path style="opacity:0.988" fill="#adadad" d="M 443.5,190.5 C 445.26,194.547 446.26,198.88 446.5,203.5C 444.74,199.453 443.74,195.12 443.5,190.5 Z"/></g>
<g><path style="opacity:1" fill="#343434" d="M 423.5,159.5 C 433.931,167.351 440.597,177.684 443.5,190.5C 443.74,195.12 444.74,199.453 446.5,203.5C 448.641,213.071 449.641,222.905 449.5,233C 449.586,241.047 448.919,248.88 447.5,256.5C 446.011,261.617 445.011,266.951 444.5,272.5C 444.405,274.786 443.738,276.786 442.5,278.5C 440.144,280.557 439.144,283.224 439.5,286.5C 438.596,287.209 438.263,288.209 438.5,289.5C 437.778,289.082 437.278,288.416 437,287.5C 435.989,288.337 434.822,288.67 433.5,288.5C 433.062,288.565 432.728,288.399 432.5,288C 435.327,283.508 437.494,278.675 439,273.5C 443.276,253.731 444.609,233.731 443,213.5C 442.133,195.204 435.633,179.371 423.5,166C 424.623,164.125 424.623,161.958 423.5,159.5 Z"/></g>
<g><path style="opacity:1" fill="#292929" d="M 207.5,211.5 C 208.833,211.5 210.167,211.5 211.5,211.5C 212.034,217.499 212.701,223.499 213.5,229.5C 214.921,232.009 216.588,234.343 218.5,236.5C 216.813,237.568 215.146,237.401 213.5,236C 210.567,233.736 208.4,230.902 207,227.5C 206.568,222.154 206.734,216.82 207.5,211.5 Z"/></g>
<g><path style="opacity:1" fill="#1d1d1d" d="M 286.5,201.5 C 294.167,201.5 301.833,201.5 309.5,201.5C 308.823,207.526 306.99,213.192 304,218.5C 302.54,227.577 303.706,236.244 307.5,244.5C 301.167,245.833 294.833,245.833 288.5,244.5C 294.32,232.139 293.82,220.139 287,208.5C 286.503,206.19 286.337,203.857 286.5,201.5 Z"/></g>
<g><path style="opacity:1" fill="#2b2b2b" d="M 248.5,227.5 C 248.5,228.5 248.5,229.5 248.5,230.5C 249.413,232.086 249.413,233.586 248.5,235C 245.571,235.777 242.737,235.61 240,234.5C 239.501,230.179 239.334,225.846 239.5,221.5C 242.166,221.933 244.832,222.433 247.5,223C 247.214,224.388 247.548,225.888 248.5,227.5 Z"/></g>
<g><path style="opacity:0.712" fill="#bcbcbc" d="M 148.5,208.5 C 147.167,225.167 147.167,241.833 148.5,258.5C 146.989,250.388 146.322,242.054 146.5,233.5C 146.322,224.946 146.989,216.612 148.5,208.5 Z"/></g>
<g><path style="opacity:1" fill="#181818" d="M 199.5,197.5 C 193.767,206.951 190.601,217.285 190,228.5C 184.907,234.582 180.241,240.915 176,247.5C 173.79,256.931 174.124,266.264 177,275.5C 182.149,286.828 190.982,291.494 203.5,289.5C 200.713,290.477 197.713,290.81 194.5,290.5C 192.94,292.156 191.94,294.156 191.5,296.5C 191.5,294.5 191.5,292.5 191.5,290.5C 189.5,290.5 187.5,290.5 185.5,290.5C 186.895,289.352 186.728,288.352 185,287.5C 183.559,288.26 182.059,288.926 180.5,289.5C 178.142,287.976 176.309,285.976 175,283.5C 172.16,277.634 169.327,271.801 166.5,266C 164.821,258.446 164.655,250.946 166,243.5C 166.333,247.5 166.667,251.5 167,255.5C 167.22,245.611 169.553,236.277 174,227.5C 180.7,217.409 187.867,207.742 195.5,198.5C 196.705,196.862 198.038,196.529 199.5,197.5 Z"/></g>
<g><path style="opacity:1" fill="#2d2d2d" d="M 196.5,234.5 C 202.178,232.316 206.844,233.816 210.5,239C 205.929,237.573 201.262,236.073 196.5,234.5 Z"/></g>
<g><path style="opacity:1" fill="#171717" d="M 404.5,203.5 C 410.886,211.059 416.719,219.059 422,227.5C 425.272,232.37 427.106,237.703 427.5,243.5C 431.018,260.769 427.184,276.102 416,289.5C 416.667,287.5 417.333,285.5 418,283.5C 416.639,286.118 414.806,286.785 412.5,285.5C 424.55,270.692 425.383,255.359 415,239.5C 405.417,231.124 401.25,220.457 402.5,207.5C 402.586,206.504 402.252,205.671 401.5,205C 402.502,203.844 403.502,203.344 404.5,203.5 Z"/></g>
<g><path style="opacity:1" fill="#7c7c7c" d="M 310.5,248.5 C 302.167,249.833 293.833,249.833 285.5,248.5C 293.833,247.167 302.167,247.167 310.5,248.5 Z"/></g>
<g><path style="opacity:1" fill="#595959" d="M 379.5,248.5 C 385.866,248.516 385.866,249.516 379.5,251.5C 378.438,250.575 378.438,249.575 379.5,248.5 Z"/></g>
<g><path style="opacity:1" fill="#353535" d="M 285.5,248.5 C 293.833,249.833 302.167,249.833 310.5,248.5C 311.043,248.56 311.376,248.893 311.5,249.5C 302.5,250.833 293.5,250.833 284.5,249.5C 284.624,248.893 284.957,248.56 285.5,248.5 Z"/></g>
<g><path style="opacity:1" fill="#2d2d2d" d="M 219.5,254.5 C 217.579,253.637 215.579,252.971 213.5,252.5C 212.194,251.533 211.527,250.199 211.5,248.5C 214.372,248.804 217.039,248.971 219.5,249C 221.167,250.667 222.833,252.333 224.5,254C 223.004,254.507 221.837,254.007 221,252.5C 220.283,253.044 219.783,253.711 219.5,254.5 Z"/></g>
<g><path style="opacity:1" fill="#565656" d="M 376.5,248.5 C 377.525,248.897 377.692,249.563 377,250.5C 375.578,252.638 373.745,253.805 371.5,254C 373.373,252.296 375.04,250.463 376.5,248.5 Z"/></g>
<g><path style="opacity:1" fill="#797979" d="M 213.5,252.5 C 215.579,252.971 217.579,253.637 219.5,254.5C 221.866,256.35 224.533,257.683 227.5,258.5C 221.696,259.174 216.696,257.34 212.5,253C 212.728,252.601 213.062,252.435 213.5,252.5 Z"/></g>
<g><path style="opacity:1" fill="#797979" d="M 314.5,257.5 C 303.5,258.833 292.5,258.833 281.5,257.5C 282.289,257.217 282.956,256.717 283.5,256C 293.167,255.333 302.833,255.333 312.5,256C 313.044,256.717 313.711,257.217 314.5,257.5 Z"/></g>
<g><path style="opacity:1" fill="#787878" d="M 378.5,252.5 C 380.199,252.34 381.866,252.506 383.5,253C 378.956,257.135 373.622,259.135 367.5,259C 371.814,257.846 375.481,255.679 378.5,252.5 Z"/></g>
<g><path style="opacity:1" fill="#111111" d="M 281.5,257.5 C 292.5,258.833 303.5,258.833 314.5,257.5C 318.613,259.369 322.946,260.536 327.5,261C 335.167,261.333 342.833,261.667 350.5,262C 353.102,262.883 355.269,264.383 357,266.5C 359.736,275.729 365.236,282.729 373.5,287.5C 373.833,286.833 374.167,286.167 374.5,285.5C 380.877,287.471 380.877,288.638 374.5,289C 379.668,288.705 384.668,288.872 389.5,289.5C 328.169,290.829 266.835,290.829 205.5,289.5C 222.559,291.008 233.725,283.342 239,266.5C 240.88,263.808 243.38,262.641 246.5,263C 246.167,263.333 245.833,263.667 245.5,264C 251.337,266.766 257.337,266.932 263.5,264.5C 258.167,263.833 252.833,263.167 247.5,262.5C 255.813,261.668 264.147,261.168 272.5,261C 275.425,259.683 278.425,258.517 281.5,257.5 Z"/></g>
<g><path style="opacity:1" fill="#2d2d2d" d="M 179.5,259.5 C 180.833,259.5 182.167,259.5 183.5,259.5C 183.228,263.902 183.561,268.235 184.5,272.5C 184,273.5 183.5,274.5 183,275.5C 179.841,270.684 178.674,265.351 179.5,259.5 Z"/></g>
<g><path style="opacity:1" fill="#2a2a2a" d="M 414.5,259.5 C 415.777,260.694 416.444,262.36 416.5,264.5C 416.615,267.388 415.948,270.055 414.5,272.5C 414.182,268.266 414.182,263.933 414.5,259.5 Z"/></g>
<g><path style="opacity:0.467" fill="#c6c6c6" d="M 447.5,256.5 C 447.504,262.142 446.504,267.475 444.5,272.5C 445.011,266.951 446.011,261.617 447.5,256.5 Z"/></g>
<g><path style="opacity:1" fill="#515151" d="M 214.5,281.5 C 214.483,275.36 213.649,269.36 212,263.5C 209.168,262.214 206.335,262.214 203.5,263.5C 203.5,262.5 203.5,261.5 203.5,260.5C 206.518,260.335 209.518,260.502 212.5,261C 214.825,265.116 215.825,269.616 215.5,274.5C 215.497,277.025 215.163,279.359 214.5,281.5 Z"/></g>
<g><path style="opacity:1" fill="#565656" d="M 391.5,274.5 C 391.5,270.5 391.5,266.5 391.5,262.5C 388.881,262.232 386.381,262.565 384,263.5C 382.189,269.365 381.356,275.365 381.5,281.5C 379.954,274.812 380.454,268.145 383,261.5C 386.057,260.549 389.223,260.216 392.5,260.5C 392.819,265.363 392.486,270.03 391.5,274.5 Z"/></g>
<g><path style="opacity:1" fill="#7d7d7d" d="M 214.5,281.5 C 214.158,282.338 213.492,282.672 212.5,282.5C 210.955,281.77 210.122,280.437 210,278.5C 208.871,276.859 207.371,275.859 205.5,275.5C 203.577,271.971 202.911,267.971 203.5,263.5C 206.335,262.214 209.168,262.214 212,263.5C 213.649,269.36 214.483,275.36 214.5,281.5 Z"/></g>
<g><path style="opacity:1" fill="#777777" d="M 391.5,274.5 C 390.167,275.933 388.667,277.267 387,278.5C 386.271,282.333 387.937,283.999 392,283.5C 395.089,282.379 398.255,281.379 401.5,280.5C 401.762,281.978 401.429,283.311 400.5,284.5C 395.889,285.61 391.222,285.777 386.5,285C 384.569,284.098 382.903,282.931 381.5,281.5C 381.356,275.365 382.189,269.365 384,263.5C 386.381,262.565 388.881,262.232 391.5,262.5C 391.5,266.5 391.5,270.5 391.5,274.5 Z"/></g>
<g><path style="opacity:1" fill="#383838" d="M 323.5,270.5 C 322.833,270.5 322.5,270.833 322.5,271.5C 321.193,270.847 319.86,270.18 318.5,269.5C 305.62,269.562 292.62,269.562 279.5,269.5C 279.5,268.5 279.5,267.5 279.5,266.5C 291.505,266.333 303.505,266.5 315.5,267C 318.53,267.578 321.197,268.745 323.5,270.5 Z"/></g>
<g><path style="opacity:1" fill="#4c4c4c" d="M 196.5,270.5 C 198.308,271.918 198.975,273.918 198.5,276.5C 197.5,276.5 196.5,276.5 195.5,276.5C 195.325,274.379 195.659,272.379 196.5,270.5 Z"/></g>
<g><path style="opacity:1" fill="#4a4a4a" d="M 397.5,270.5 C 398.496,270.414 399.329,270.748 400,271.5C 400.808,273.579 400.641,275.579 399.5,277.5C 398.914,277.291 398.414,276.957 398,276.5C 397.505,274.527 397.338,272.527 397.5,270.5 Z"/></g>
<g><path style="opacity:1" fill="#666666" d="M 271.5,270.5 C 273.379,270.393 273.712,270.893 272.5,272C 261.833,277.333 251.167,282.667 240.5,288C 239.5,288.667 238.5,288.667 237.5,288C 249.051,282.392 260.384,276.559 271.5,270.5 Z"/></g>
<g><path style="opacity:1" fill="#343434" d="M 272.5,273.5 C 274.379,273.393 274.712,273.893 273.5,275C 266.261,278.96 258.928,282.293 251.5,285C 258.562,281.139 265.562,277.305 272.5,273.5 Z"/></g>
<g><path style="opacity:1" fill="#696969" d="M 322.5,271.5 C 322.5,270.833 322.833,270.5 323.5,270.5C 334.963,276.065 346.297,281.898 357.5,288C 345.679,283.092 334.012,277.592 322.5,271.5 Z"/></g>
<g><path style="opacity:1" fill="#727272" d="M 442.5,278.5 C 442.267,281.542 441.267,284.208 439.5,286.5C 439.144,283.224 440.144,280.557 442.5,278.5 Z"/></g>
<g><path style="opacity:1" fill="#595959" d="M 205.5,275.5 C 207.371,275.859 208.871,276.859 210,278.5C 210.122,280.437 210.955,281.77 212.5,282.5C 207.361,286.899 201.694,287.566 195.5,284.5C 194.167,283.167 194.167,281.833 195.5,280.5C 199.098,283.135 203.098,283.968 207.5,283C 208.554,281.612 208.72,280.112 208,278.5C 206.955,277.627 206.122,276.627 205.5,275.5 Z"/></g>
<g><path style="opacity:1" fill="#434343" d="M 336.5,282.5 C 336.56,281.957 336.893,281.624 337.5,281.5C 341.993,283.579 346.326,285.912 350.5,288.5C 345.893,287.219 341.226,285.219 336.5,282.5 Z"/></g>
<g><path style="opacity:0.294" fill="#e8e8e8" d="M 156.5,287.5 C 157.043,287.56 157.376,287.893 157.5,288.5C 155.257,289.474 152.924,289.808 150.5,289.5C 152.5,288.833 154.5,288.167 156.5,287.5 Z"/></g>
<g><path style="opacity:0.282" fill="#e9e9e9" d="M 439.5,286.5 C 440.802,288.028 442.469,289.028 444.5,289.5C 442.5,289.5 440.5,289.5 438.5,289.5C 438.263,288.209 438.596,287.209 439.5,286.5 Z"/></g>
<g><path style="opacity:1" fill="#848484" d="M 203.5,289.5 C 204.167,289.5 204.833,289.5 205.5,289.5C 266.835,290.829 328.169,290.829 389.5,289.5C 393.371,289.185 397.038,289.518 400.5,290.5C 400.795,292.735 400.461,294.735 399.5,296.5C 398.167,296.5 396.833,296.5 395.5,296.5C 364.833,296.5 334.167,296.5 303.5,296.5C 299.5,296.5 295.5,296.5 291.5,296.5C 259.5,296.5 227.5,296.5 195.5,296.5C 194.539,294.735 194.205,292.735 194.5,290.5C 197.713,290.81 200.713,290.477 203.5,289.5 Z"/></g>
<g><path style="opacity:0.58" fill="#a3a3a3" d="M 446.5,292.5 C 448.213,293.635 448.88,295.302 448.5,297.5C 447.463,296.07 446.796,294.403 446.5,292.5 Z"/></g>
<g><path style="opacity:1" fill="#0f0f0f" d="M 439.5,237.5 C 439.991,255.31 436.324,272.143 428.5,288C 425.016,286.993 421.683,287.493 418.5,289.5C 420.611,290.848 422.445,290.515 424,288.5C 424.667,289.833 425.667,290.833 427,291.5C 429.045,290.074 431.212,289.074 433.5,288.5C 434.822,288.67 435.989,288.337 437,287.5C 437.278,288.416 437.778,289.082 438.5,289.5C 440.5,289.5 442.5,289.5 444.5,289.5C 445.906,289.973 446.573,290.973 446.5,292.5C 446.796,294.403 447.463,296.07 448.5,297.5C 449.263,298.268 450.263,298.768 451.5,299C 451.272,299.399 450.938,299.565 450.5,299.5C 450.167,299.5 449.833,299.5 449.5,299.5C 447.167,299.5 444.833,299.5 442.5,299.5C 442.675,296.671 441.342,295.004 438.5,294.5C 437.833,291.167 435.833,289.833 432.5,290.5C 430.16,291.572 429.827,293.239 431.5,295.5C 429.604,296.466 427.604,296.799 425.5,296.5C 425.5,297.5 425.5,298.5 425.5,299.5C 427.167,299.5 428.833,299.5 430.5,299.5C 428.834,354.139 427.667,408.806 427,463.5C 425.624,480.343 424.124,497.176 422.5,514C 422.637,516.898 423.137,519.731 424,522.5C 424.739,523.574 425.739,524.241 427,524.5C 428.652,524.14 430.318,523.807 432,523.5C 432.49,524.793 432.657,526.127 432.5,527.5C 430.1,530.903 427.1,533.57 423.5,535.5C 423.804,534.85 424.137,534.183 424.5,533.5C 422.955,532.548 421.288,532.215 419.5,532.5C 417.962,526.707 417.295,520.707 417.5,514.5C 418.337,498.122 419.67,481.788 421.5,465.5C 419.519,414.256 418.852,362.923 419.5,311.5C 418.167,311.5 416.833,311.5 415.5,311.5C 416.592,324.808 416.758,338.141 416,351.5C 413.889,387.495 411.889,423.495 410,459.5C 408.271,463.29 406.271,466.956 404,470.5C 403.506,472.134 403.34,473.801 403.5,475.5C 402.167,475.5 400.833,475.5 399.5,475.5C 399.657,474.127 399.49,472.793 399,471.5C 398.178,474.117 397.678,476.784 397.5,479.5C 387.5,479.5 377.5,479.5 367.5,479.5C 367.5,480.833 367.5,482.167 367.5,483.5C 312.833,483.5 258.167,483.5 203.5,483.5C 203.5,482.167 203.5,480.833 203.5,479.5C 200.5,479.5 197.5,479.5 194.5,479.5C 194.5,478.167 194.5,476.833 194.5,475.5C 193.5,475.5 192.5,475.5 191.5,475.5C 191.5,474.167 191.5,472.833 191.5,471.5C 190.167,471.5 188.833,471.5 187.5,471.5C 186.854,467.203 185.354,463.203 183,459.5C 180.553,409.694 179.053,359.861 178.5,310C 178.707,306.477 179.04,302.977 179.5,299.5C 182.5,299.5 185.5,299.5 188.5,299.5C 187.081,300.451 185.415,300.784 183.5,300.5C 185.236,338.81 186.569,377.143 187.5,415.5C 188.5,415.5 189.5,415.5 190.5,415.5C 191.119,430.159 191.452,444.825 191.5,459.5C 192.833,459.5 194.167,459.5 195.5,459.5C 195.5,460.833 195.5,462.167 195.5,463.5C 199.5,463.5 203.5,463.5 207.5,463.5C 207.5,464.833 207.5,466.167 207.5,467.5C 233.502,467.667 259.502,467.5 285.5,467C 280.436,463.047 277.269,457.88 276,451.5C 275.169,444.808 275.336,438.142 276.5,431.5C 277.167,436.833 277.833,442.167 278.5,447.5C 279.48,444.914 279.813,442.247 279.5,439.5C 283.5,439.5 287.5,439.5 291.5,439.5C 291.5,440.833 291.5,442.167 291.5,443.5C 292.552,443.351 293.552,443.517 294.5,444C 288.18,444.435 288.013,445.269 294,446.5C 294.333,448.167 294.667,449.833 295,451.5C 295.383,450.944 295.883,450.611 296.5,450.5C 298.252,450.582 299.252,449.749 299.5,448C 299.252,446.251 298.252,445.418 296.5,445.5C 297.933,443.976 300.267,442.976 303.5,442.5C 303.5,440.167 303.5,437.833 303.5,435.5C 300.833,435.5 298.167,435.5 295.5,435.5C 295.227,433.549 295.893,432.049 297.5,431C 296.833,430.667 296.167,430.333 295.5,430C 296.737,429.768 297.737,429.268 298.5,428.5C 299.404,427.791 299.737,426.791 299.5,425.5C 300.077,424.227 300.743,424.227 301.5,425.5C 302.747,427.323 303.414,429.323 303.5,431.5C 306.167,431.5 308.833,431.5 311.5,431.5C 311.5,436.833 311.5,442.167 311.5,447.5C 312.833,447.5 314.167,447.5 315.5,447.5C 315.666,452.179 315.499,456.845 315,461.5C 314.29,462.973 313.124,463.64 311.5,463.5C 311.67,464.822 311.337,465.989 310.5,467C 312.833,467.667 315.167,467.667 317.5,467C 318.874,463.59 319.541,463.757 319.5,467.5C 340.833,467.5 362.167,467.5 383.5,467.5C 383.5,466.5 383.5,465.5 383.5,464.5C 388.181,464.331 392.848,463.998 397.5,463.5C 398.109,458.188 398.609,452.854 399,447.5C 399.173,451.541 399.673,455.541 400.5,459.5C 401.216,442.352 402.382,425.352 404,408.5C 404.5,394.837 404.667,381.171 404.5,367.5C 405.5,367.5 406.5,367.5 407.5,367.5C 407.981,346.17 408.315,324.836 408.5,303.5C 410.942,303.646 411.609,302.813 410.5,301C 408.19,300.503 405.857,300.337 403.5,300.5C 402.167,300.5 400.833,300.5 399.5,300.5C 399.5,299.167 399.5,297.833 399.5,296.5C 400.461,294.735 400.795,292.735 400.5,290.5C 404.981,289.842 408.981,288.175 412.5,285.5C 414.806,286.785 416.639,286.118 418,283.5C 417.333,285.5 416.667,287.5 416,289.5C 427.184,276.102 431.018,260.769 427.5,243.5C 428.161,242.282 428.828,240.949 429.5,239.5C 430.318,242.107 430.818,244.774 431,247.5C 432.612,243.521 432.779,239.521 431.5,235.5C 432.404,234.791 432.737,233.791 432.5,232.5C 433.5,232.5 434.5,232.5 435.5,232.5C 435.5,234.167 435.5,235.833 435.5,237.5C 436.833,237.5 438.167,237.5 439.5,237.5 Z"/></g>
<g><path style="opacity:1" fill="#767676" d="M 403.5,290.5 C 406.167,290.5 408.833,290.5 411.5,290.5C 411.833,292.5 412.167,294.5 412.5,296.5C 409.5,296.5 406.5,296.5 403.5,296.5C 403.5,294.5 403.5,292.5 403.5,290.5 Z"/></g>
<g><path style="opacity:1" fill="#737373" d="M 160.5,290.5 C 158.65,292.866 157.317,295.533 156.5,298.5C 155.583,299.127 154.583,299.461 153.5,299.5C 151.952,299.179 151.285,298.179 151.5,296.5C 153.943,295.499 155.61,293.665 156.5,291C 157.793,290.51 159.127,290.343 160.5,290.5 Z"/></g>
<g><path style="opacity:1" fill="#282828" d="M 195.5,296.5 C 227.5,296.5 259.5,296.5 291.5,296.5C 291.056,298.113 290.056,299.28 288.5,300C 257.662,300.297 226.662,300.131 195.5,299.5C 195.5,298.5 195.5,297.5 195.5,296.5 Z"/></g>
<g><path style="opacity:1" fill="#1c1c1c" d="M 291.5,296.5 C 295.5,296.5 299.5,296.5 303.5,296.5C 303.804,297.15 304.137,297.817 304.5,298.5C 332.477,300.276 360.477,300.776 388.5,300C 389.667,299.5 390.5,298.667 391,297.5C 392.77,299.418 394.937,299.918 397.5,299C 396.244,298.583 395.577,297.75 395.5,296.5C 396.833,296.5 398.167,296.5 399.5,296.5C 399.5,297.833 399.5,299.167 399.5,300.5C 400.833,300.5 402.167,300.5 403.5,300.5C 402.391,301.29 401.058,301.79 399.5,302C 400.833,302.333 402.167,302.667 403.5,303C 402.552,303.483 401.552,303.649 400.5,303.5C 400.14,308.943 399.14,314.276 397.5,319.5C 398.167,322.167 398.833,324.833 399.5,327.5C 398.023,338.119 396.69,348.786 395.5,359.5C 394.167,359.5 392.833,359.5 391.5,359.5C 391.5,366.167 391.5,372.833 391.5,379.5C 388.833,379.5 386.167,379.5 383.5,379.5C 383.5,380.833 383.5,382.167 383.5,383.5C 384.833,383.5 386.167,383.5 387.5,383.5C 387.5,386.167 387.5,388.833 387.5,391.5C 386.167,391.5 384.833,391.5 383.5,391.5C 383.5,392.833 383.5,394.167 383.5,395.5C 382.167,395.5 380.833,395.5 379.5,395.5C 379.5,396.833 379.5,398.167 379.5,399.5C 364.833,399.5 350.167,399.5 335.5,399.5C 335.5,402.167 335.5,404.833 335.5,407.5C 330.167,407.5 324.833,407.5 319.5,407.5C 319.667,381.165 319.5,354.831 319,328.5C 311.246,312.211 299.412,308.377 283.5,317C 280.129,320.236 277.629,324.069 276,328.5C 275.5,352.164 275.333,375.831 275.5,399.5C 252.833,399.5 230.167,399.5 207.5,399.5C 207.5,394.167 207.5,388.833 207.5,383.5C 206.167,383.5 204.833,383.5 203.5,383.5C 203.5,376.833 203.5,370.167 203.5,363.5C 201.396,363.799 199.396,363.466 197.5,362.5C 199.224,359.05 199.891,355.383 199.5,351.5C 198.167,351.5 196.833,351.5 195.5,351.5C 194.599,335.315 193.766,318.981 193,302.5C 191.984,301.366 191.317,301.699 191,303.5C 190.517,302.552 190.351,301.552 190.5,300.5C 192.415,300.784 194.081,300.451 195.5,299.5C 226.662,300.131 257.662,300.297 288.5,300C 290.056,299.28 291.056,298.113 291.5,296.5 Z"/></g>
<g><path style="opacity:1" fill="#292929" d="M 303.5,296.5 C 334.167,296.5 364.833,296.5 395.5,296.5C 395.577,297.75 396.244,298.583 397.5,299C 394.937,299.918 392.77,299.418 391,297.5C 390.5,298.667 389.667,299.5 388.5,300C 360.477,300.776 332.477,300.276 304.5,298.5C 304.137,297.817 303.804,297.15 303.5,296.5 Z"/></g>
<g><path style="opacity:1" fill="#3c3c3c" d="M 432.5,290.5 C 435.833,289.833 437.833,291.167 438.5,294.5C 441.342,295.004 442.675,296.671 442.5,299.5C 444.833,299.5 447.167,299.5 449.5,299.5C 448.502,354.108 447.002,408.774 445,463.5C 444.509,474.602 443.176,485.602 441,496.5C 440.3,498.032 439.134,499.032 437.5,499.5C 436.692,501.423 436.192,503.423 436,505.5C 435.586,505.043 435.086,504.709 434.5,504.5C 434.167,502.333 433.833,500.167 433.5,498C 435.452,481.221 436.618,464.388 437,447.5C 437.543,398.435 439.043,349.435 441.5,300.5C 440.311,299.571 438.978,299.238 437.5,299.5C 436.178,299.67 435.011,299.337 434,298.5C 433.433,295.832 432.933,293.166 432.5,290.5 Z"/></g>
<g><path style="opacity:1" fill="#4e4e4e" d="M 147.5,294.5 C 147.5,296.167 147.5,297.833 147.5,299.5C 148.5,299.5 149.5,299.5 150.5,299.5C 151.719,352.161 152.886,404.828 154,457.5C 154.502,468.193 155.336,478.86 156.5,489.5C 156.564,491.389 156.064,493.056 155,494.5C 153.25,492.743 152.084,490.743 151.5,488.5C 149.132,430.13 146.799,371.63 144.5,313C 144.557,307.918 145.224,303.085 146.5,298.5C 146.5,298.167 146.5,297.833 146.5,297.5C 146.263,296.209 146.596,295.209 147.5,294.5 Z"/></g>
<g><path style="opacity:1" fill="#444444" d="M 151.5,296.5 C 151.285,298.179 151.952,299.179 153.5,299.5C 154.536,352.168 155.703,404.834 157,457.5C 157.753,475.545 158.753,493.545 160,511.5C 159.667,509.833 159.333,508.167 159,506.5C 158.667,506.833 158.333,507.167 158,507.5C 154.895,504.934 153.228,501.934 153,498.5C 152.174,495.207 151.674,491.874 151.5,488.5C 152.084,490.743 153.25,492.743 155,494.5C 156.064,493.056 156.564,491.389 156.5,489.5C 155.336,478.86 154.502,468.193 154,457.5C 152.886,404.828 151.719,352.161 150.5,299.5C 150.263,298.209 150.596,297.209 151.5,296.5 Z"/></g>
<g><path style="opacity:1" fill="#262626" d="M 160.5,299.5 C 162.026,351.49 163.193,403.49 164,455.5C 164.703,478.198 165.87,500.864 167.5,523.5C 165.208,523.756 163.041,523.423 161,522.5C 160.536,523.094 160.369,523.761 160.5,524.5C 156.885,520.941 154.551,516.607 153.5,511.5C 153.343,510.127 153.51,508.793 154,507.5C 154.71,508.973 155.876,509.64 157.5,509.5C 159.194,513.37 161.194,517.036 163.5,520.5C 163.833,517.333 164.167,514.167 164.5,511C 163.073,492.517 161.906,474.017 161,455.5C 159.808,403.496 158.641,351.496 157.5,299.5C 158.5,299.5 159.5,299.5 160.5,299.5 Z"/></g>
<g><path style="opacity:1" fill="#181818" d="M 160.5,299.5 C 161.833,299.5 163.167,299.5 164.5,299.5C 166.187,356.17 167.521,412.837 168.5,469.5C 168.167,470.833 167.833,472.167 167.5,473.5C 171.042,491.343 172.209,509.343 171,527.5C 169.094,529.408 168.26,531.408 168.5,533.5C 165.097,531.1 162.43,528.1 160.5,524.5C 160.369,523.761 160.536,523.094 161,522.5C 163.041,523.423 165.208,523.756 167.5,523.5C 165.87,500.864 164.703,478.198 164,455.5C 163.193,403.49 162.026,351.49 160.5,299.5 Z"/></g>
<g><path style="opacity:1" fill="#090909" d="M 206.5,149.5 C 212.833,149.5 219.167,149.5 225.5,149.5C 225.5,153.167 225.5,156.833 225.5,160.5C 221.5,160.5 217.5,160.5 213.5,160.5C 213.666,165.844 213.499,171.177 213,176.5C 206.929,183.727 201.096,191.06 195.5,198.5C 187.867,207.742 180.7,217.409 174,227.5C 169.553,236.277 167.22,245.611 167,255.5C 166.667,251.5 166.333,247.5 166,243.5C 164.655,250.946 164.821,258.446 166.5,266C 169.327,271.801 172.16,277.634 175,283.5C 176.309,285.976 178.142,287.976 180.5,289.5C 182.059,288.926 183.559,288.26 185,287.5C 186.728,288.352 186.895,289.352 185.5,290.5C 184.5,290.5 183.5,290.5 182.5,290.5C 182.5,292.5 182.5,294.5 182.5,296.5C 185.5,296.5 188.5,296.5 191.5,296.5C 191.94,294.156 192.94,292.156 194.5,290.5C 194.205,292.735 194.539,294.735 195.5,296.5C 195.5,297.5 195.5,298.5 195.5,299.5C 193.167,299.5 190.833,299.5 188.5,299.5C 185.5,299.5 182.5,299.5 179.5,299.5C 179.04,302.977 178.707,306.477 178.5,310C 179.053,359.861 180.553,409.694 183,459.5C 185.354,463.203 186.854,467.203 187.5,471.5C 188.833,471.5 190.167,471.5 191.5,471.5C 191.5,472.833 191.5,474.167 191.5,475.5C 192.5,475.5 193.5,475.5 194.5,475.5C 194.5,476.833 194.5,478.167 194.5,479.5C 197.5,479.5 200.5,479.5 203.5,479.5C 203.5,480.833 203.5,482.167 203.5,483.5C 258.167,483.5 312.833,483.5 367.5,483.5C 367.5,482.167 367.5,480.833 367.5,479.5C 377.5,479.5 387.5,479.5 397.5,479.5C 397.678,476.784 398.178,474.117 399,471.5C 399.49,472.793 399.657,474.127 399.5,475.5C 400.833,475.5 402.167,475.5 403.5,475.5C 403.34,473.801 403.506,472.134 404,470.5C 406.271,466.956 408.271,463.29 410,459.5C 411.889,423.495 413.889,387.495 416,351.5C 416.758,338.141 416.592,324.808 415.5,311.5C 416.833,311.5 418.167,311.5 419.5,311.5C 418.852,362.923 419.519,414.256 421.5,465.5C 419.67,481.788 418.337,498.122 417.5,514.5C 417.295,520.707 417.962,526.707 419.5,532.5C 421.288,532.215 422.955,532.548 424.5,533.5C 424.137,534.183 423.804,534.85 423.5,535.5C 420.753,538.207 417.42,539.873 413.5,540.5C 413.918,539.778 414.584,539.278 415.5,539C 414.833,538.833 414.167,538.667 413.5,538.5C 408.736,540.13 406.069,540.463 405.5,539.5C 405.5,538.167 405.5,536.833 405.5,535.5C 407.5,535.5 409.5,535.5 411.5,535.5C 411.5,520.833 411.5,506.167 411.5,491.5C 408.833,491.5 406.167,491.5 403.5,491.5C 403.5,492.833 403.5,494.167 403.5,495.5C 402.167,495.5 400.833,495.5 399.5,495.5C 399.5,496.833 399.5,498.167 399.5,499.5C 335.5,499.5 271.5,499.5 207.5,499.5C 207.5,498.167 207.5,496.833 207.5,495.5C 200.833,495.5 194.167,495.5 187.5,495.5C 187.5,494.167 187.5,492.833 187.5,491.5C 184.833,491.5 182.167,491.5 179.5,491.5C 179.5,500.833 179.5,510.167 179.5,519.5C 180.833,519.5 182.167,519.5 183.5,519.5C 183.5,523.5 183.5,527.5 183.5,531.5C 188.5,531.5 193.5,531.5 198.5,531.5C 198.195,535.347 199.528,538.347 202.5,540.5C 209.152,540.337 216.152,540.337 223.5,540.5C 209.635,541.434 195.969,541.434 182.5,540.5C 182.167,540.5 181.833,540.5 181.5,540.5C 178.759,540.293 176.426,539.293 174.5,537.5C 174.027,536.094 173.027,535.427 171.5,535.5C 171.027,534.094 170.027,533.427 168.5,533.5C 168.26,531.408 169.094,529.408 171,527.5C 172.209,509.343 171.042,491.343 167.5,473.5C 167.833,472.167 168.167,470.833 168.5,469.5C 167.521,412.837 166.187,356.17 164.5,299.5C 165.5,299.5 166.5,299.5 167.5,299.5C 167.5,298.5 167.5,297.5 167.5,296.5C 160.722,297.607 159.389,295.773 163.5,291C 162.906,290.536 162.239,290.369 161.5,290.5C 161.918,289.778 162.584,289.278 163.5,289C 161.266,285.364 159.432,281.531 158,277.5C 149.334,248.156 149.334,218.823 158,189.5C 162.897,173.104 173.397,162.104 189.5,156.5C 187.577,155.692 185.577,155.192 183.5,155C 184.056,154.617 184.389,154.117 184.5,153.5C 188.8,153.281 192.8,152.281 196.5,150.5C 199.625,149.521 202.958,149.187 206.5,149.5 Z"/></g>
<g><path style="opacity:1" fill="#787878" d="M 185.5,290.5 C 187.5,290.5 189.5,290.5 191.5,290.5C 191.5,292.5 191.5,294.5 191.5,296.5C 188.5,296.5 185.5,296.5 182.5,296.5C 182.5,294.5 182.5,292.5 182.5,290.5C 183.5,290.5 184.5,290.5 185.5,290.5 Z"/></g>
<g><path style="opacity:1" fill="#1f1f1f" d="M 183.5,202.5 C 175.995,213.508 168.995,224.841 162.5,236.5C 161.522,236.023 160.689,235.357 160,234.5C 159.667,232.5 159.333,230.5 159,228.5C 158.667,231.167 158.333,233.833 158,236.5C 156.368,228.331 156.035,219.998 157,211.5C 157.311,207.91 158.144,204.577 159.5,201.5C 159.369,202.376 159.702,203.043 160.5,203.5C 161.574,201.018 162.908,198.684 164.5,196.5C 165.893,197.863 167.559,198.696 169.5,199C 174.5,199.333 179.5,199.667 184.5,200C 183.748,200.671 183.414,201.504 183.5,202.5 Z"/></g>
<g><path style="opacity:1" fill="#2c2c2c" d="M 172.5,172.5 C 173.239,172.369 173.906,172.536 174.5,173C 173.167,173.667 173.167,174.333 174.5,175C 181.492,175.5 188.492,175.666 195.5,175.5C 195.5,176.833 195.5,178.167 195.5,179.5C 198.167,179.5 200.833,179.5 203.5,179.5C 196.587,187.02 189.921,194.687 183.5,202.5C 183.414,201.504 183.748,200.671 184.5,200C 179.5,199.667 174.5,199.333 169.5,199C 167.559,198.696 165.893,197.863 164.5,196.5C 162.908,198.684 161.574,201.018 160.5,203.5C 159.702,203.043 159.369,202.376 159.5,201.5C 160.897,190.384 165.23,180.717 172.5,172.5 Z"/></g>
<g><path style="opacity:1" fill="#343434" d="M 203.5,179.5 C 200.833,179.5 198.167,179.5 195.5,179.5C 195.5,178.167 195.5,176.833 195.5,175.5C 188.492,175.666 181.492,175.5 174.5,175C 173.167,174.333 173.167,173.667 174.5,173C 173.906,172.536 173.239,172.369 172.5,172.5C 177.879,165.803 184.879,161.636 193.5,160C 198.118,159.006 202.785,158.506 207.5,158.5C 207.666,163.511 207.499,168.511 207,173.5C 206.576,176.025 205.41,178.025 203.5,179.5 Z"/></g>
<g><path style="opacity:1" fill="#151515" d="M 188.5,299.5 C 190.833,299.5 193.167,299.5 195.5,299.5C 194.081,300.451 192.415,300.784 190.5,300.5C 190.351,301.552 190.517,302.552 191,303.5C 191.317,301.699 191.984,301.366 193,302.5C 193.766,318.981 194.599,335.315 195.5,351.5C 196.833,351.5 198.167,351.5 199.5,351.5C 199.891,355.383 199.224,359.05 197.5,362.5C 199.396,363.466 201.396,363.799 203.5,363.5C 203.5,370.167 203.5,376.833 203.5,383.5C 204.833,383.5 206.167,383.5 207.5,383.5C 207.5,388.833 207.5,394.167 207.5,399.5C 230.167,399.5 252.833,399.5 275.5,399.5C 275.333,375.831 275.5,352.164 276,328.5C 277.629,324.069 280.129,320.236 283.5,317C 299.412,308.377 311.246,312.211 319,328.5C 319.5,354.831 319.667,381.165 319.5,407.5C 324.833,407.5 330.167,407.5 335.5,407.5C 335.5,404.833 335.5,402.167 335.5,399.5C 350.167,399.5 364.833,399.5 379.5,399.5C 379.5,398.167 379.5,396.833 379.5,395.5C 380.833,395.5 382.167,395.5 383.5,395.5C 383.5,394.167 383.5,392.833 383.5,391.5C 384.833,391.5 386.167,391.5 387.5,391.5C 387.5,388.833 387.5,386.167 387.5,383.5C 386.167,383.5 384.833,383.5 383.5,383.5C 383.5,382.167 383.5,380.833 383.5,379.5C 386.167,379.5 388.833,379.5 391.5,379.5C 391.5,372.833 391.5,366.167 391.5,359.5C 392.833,359.5 394.167,359.5 395.5,359.5C 396.69,348.786 398.023,338.119 399.5,327.5C 398.833,324.833 398.167,322.167 397.5,319.5C 399.14,314.276 400.14,308.943 400.5,303.5C 401.552,303.649 402.552,303.483 403.5,303C 402.167,302.667 400.833,302.333 399.5,302C 401.058,301.79 402.391,301.29 403.5,300.5C 405.857,300.337 408.19,300.503 410.5,301C 411.609,302.813 410.942,303.646 408.5,303.5C 408.315,324.836 407.981,346.17 407.5,367.5C 406.5,367.5 405.5,367.5 404.5,367.5C 404.667,381.171 404.5,394.837 404,408.5C 402.382,425.352 401.216,442.352 400.5,459.5C 399.673,455.541 399.173,451.541 399,447.5C 398.609,452.854 398.109,458.188 397.5,463.5C 392.848,463.998 388.181,464.331 383.5,464.5C 383.5,465.5 383.5,466.5 383.5,467.5C 362.167,467.5 340.833,467.5 319.5,467.5C 319.541,463.757 318.874,463.59 317.5,467C 315.167,467.667 312.833,467.667 310.5,467C 311.337,465.989 311.67,464.822 311.5,463.5C 313.124,463.64 314.29,462.973 315,461.5C 315.499,456.845 315.666,452.179 315.5,447.5C 314.167,447.5 312.833,447.5 311.5,447.5C 311.5,442.167 311.5,436.833 311.5,431.5C 308.833,431.5 306.167,431.5 303.5,431.5C 303.414,429.323 302.747,427.323 301.5,425.5C 300.743,424.227 300.077,424.227 299.5,425.5C 298.292,424.766 296.959,424.433 295.5,424.5C 295.5,425.833 295.5,427.167 295.5,428.5C 296.5,428.5 297.5,428.5 298.5,428.5C 297.737,429.268 296.737,429.768 295.5,430C 296.167,430.333 296.833,430.667 297.5,431C 295.893,432.049 295.227,433.549 295.5,435.5C 298.167,435.5 300.833,435.5 303.5,435.5C 303.5,437.833 303.5,440.167 303.5,442.5C 300.267,442.976 297.933,443.976 296.5,445.5C 295.167,447.167 295.167,448.833 296.5,450.5C 295.883,450.611 295.383,450.944 295,451.5C 294.667,449.833 294.333,448.167 294,446.5C 288.013,445.269 288.18,444.435 294.5,444C 293.552,443.517 292.552,443.351 291.5,443.5C 291.5,442.167 291.5,440.833 291.5,439.5C 287.5,439.5 283.5,439.5 279.5,439.5C 279.813,442.247 279.48,444.914 278.5,447.5C 277.833,442.167 277.167,436.833 276.5,431.5C 275.336,438.142 275.169,444.808 276,451.5C 277.269,457.88 280.436,463.047 285.5,467C 259.502,467.5 233.502,467.667 207.5,467.5C 207.5,466.167 207.5,464.833 207.5,463.5C 203.5,463.5 199.5,463.5 195.5,463.5C 195.5,462.167 195.5,460.833 195.5,459.5C 194.167,459.5 192.833,459.5 191.5,459.5C 191.452,444.825 191.119,430.159 190.5,415.5C 189.5,415.5 188.5,415.5 187.5,415.5C 186.569,377.143 185.236,338.81 183.5,300.5C 185.415,300.784 187.081,300.451 188.5,299.5 Z"/></g>
<g><path style="opacity:1" fill="#272727" d="M 432.5,290.5 C 432.933,293.166 433.433,295.832 434,298.5C 435.011,299.337 436.178,299.67 437.5,299.5C 436.645,300.531 435.978,301.697 435.5,303C 436.098,305.959 436.431,308.959 436.5,312C 434.771,359.818 433.604,407.651 433,455.5C 432.444,473.173 430.944,490.84 428.5,508.5C 428.667,510.833 428.833,513.167 429,515.5C 429.667,516.167 430.333,516.833 431,517.5C 432.257,515.254 434.09,513.921 436.5,513.5C 435.26,518.918 431.927,521.418 426.5,521C 425.853,517.751 425.519,514.418 425.5,511C 427.941,484.555 429.441,458.055 430,431.5C 430.771,390.83 431.604,350.164 432.5,309.5C 432.486,305.761 431.82,302.428 430.5,299.5C 428.833,299.5 427.167,299.5 425.5,299.5C 425.5,298.5 425.5,297.5 425.5,296.5C 427.604,296.799 429.604,296.466 431.5,295.5C 429.827,293.239 430.16,291.572 432.5,290.5 Z"/></g>
<g><path style="opacity:1" fill="#383838" d="M 160.5,290.5 C 160.833,290.5 161.167,290.5 161.5,290.5C 162.239,290.369 162.906,290.536 163.5,291C 159.389,295.773 160.722,297.607 167.5,296.5C 167.5,297.5 167.5,298.5 167.5,299.5C 166.5,299.5 165.5,299.5 164.5,299.5C 163.167,299.5 161.833,299.5 160.5,299.5C 159.5,299.5 158.5,299.5 157.5,299.5C 158.641,351.496 159.808,403.496 161,455.5C 161.906,474.017 163.073,492.517 164.5,511C 164.167,514.167 163.833,517.333 163.5,520.5C 161.194,517.036 159.194,513.37 157.5,509.5C 155.876,509.64 154.71,508.973 154,507.5C 153.51,508.793 153.343,510.127 153.5,511.5C 150.643,505.239 148.977,498.572 148.5,491.5C 148.54,488.119 148.207,484.786 147.5,481.5C 148.162,479.696 148.495,477.696 148.5,475.5C 147.5,455.491 146.5,440.158 145.5,429.5C 144.628,415.665 143.961,401.665 143.5,387.5C 144.166,381.676 144.5,375.676 144.5,369.5C 143.722,345.835 143.056,322.168 142.5,298.5C 143.833,298.5 145.167,298.5 146.5,298.5C 145.224,303.085 144.557,307.918 144.5,313C 146.799,371.63 149.132,430.13 151.5,488.5C 151.674,491.874 152.174,495.207 153,498.5C 153.228,501.934 154.895,504.934 158,507.5C 158.333,507.167 158.667,506.833 159,506.5C 159.333,508.167 159.667,509.833 160,511.5C 158.753,493.545 157.753,475.545 157,457.5C 155.703,404.834 154.536,352.168 153.5,299.5C 154.583,299.461 155.583,299.127 156.5,298.5C 157.317,295.533 158.65,292.866 160.5,290.5 Z"/></g>
<g><path style="opacity:0.792" fill="#b7b7b7" d="M 146.5,297.5 C 146.5,297.833 146.5,298.167 146.5,298.5C 145.167,298.5 143.833,298.5 142.5,298.5C 141.505,309.654 141.172,320.988 141.5,332.5C 140.505,321.012 140.172,309.345 140.5,297.5C 142.5,297.5 144.5,297.5 146.5,297.5 Z"/></g>
<g><path style="opacity:1" fill="#030303" d="M 296.5,328.5 C 297.75,328.577 298.583,329.244 299,330.5C 301.384,335.596 302.884,340.929 303.5,346.5C 299.25,346.791 295.25,347.957 291.5,350C 297.825,350.5 304.158,350.666 310.5,350.5C 309.5,353.167 308.5,355.833 307.5,358.5C 300.8,358.83 294.134,358.497 287.5,357.5C 286.627,355.587 285.627,353.753 284.5,352C 286.421,351.64 288.088,350.806 289.5,349.5C 292.127,342.583 294.46,335.583 296.5,328.5 Z"/></g>
<g><path style="opacity:1" fill="#1b1b1b" d="M 142.5,298.5 C 143.056,322.168 143.722,345.835 144.5,369.5C 144.5,375.676 144.166,381.676 143.5,387.5C 143.308,368.991 142.641,350.658 141.5,332.5C 141.172,320.988 141.505,309.654 142.5,298.5 Z"/></g>
<g><path style="opacity:0.231" fill="#cccccc" d="M 141.5,332.5 C 142.641,350.658 143.308,368.991 143.5,387.5C 143.961,401.665 144.628,415.665 145.5,429.5C 145.286,446.874 145.953,464.208 147.5,481.5C 148.207,484.786 148.54,488.119 148.5,491.5C 146.507,482.414 145.34,473.081 145,463.5C 143.371,419.844 142.204,376.177 141.5,332.5 Z"/></g>
<g><path style="opacity:1" fill="#e1e1e1" d="M 295.5,381.5 C 296.833,381.5 298.167,381.5 299.5,381.5C 299.5,382.833 299.5,384.167 299.5,385.5C 298.167,385.5 296.833,385.5 295.5,385.5C 295.5,384.167 295.5,382.833 295.5,381.5 Z"/></g>
<g><path style="opacity:1" fill="#2f2f2f" d="M 448.5,297.5 C 450.5,297.5 452.5,297.5 454.5,297.5C 453.969,345.348 452.636,393.015 450.5,440.5C 449.637,457.719 448.304,475.053 446.5,492.5C 445.327,505.709 440.661,517.376 432.5,527.5C 432.657,526.127 432.49,524.793 432,523.5C 430.318,523.807 428.652,524.14 427,524.5C 425.739,524.241 424.739,523.574 424,522.5C 423.137,519.731 422.637,516.898 422.5,514C 424.124,497.176 425.624,480.343 427,463.5C 427.667,408.806 428.834,354.139 430.5,299.5C 431.82,302.428 432.486,305.761 432.5,309.5C 431.604,350.164 430.771,390.83 430,431.5C 429.441,458.055 427.941,484.555 425.5,511C 425.519,514.418 425.853,517.751 426.5,521C 431.927,521.418 435.26,518.918 436.5,513.5C 437.469,512.691 438.302,511.691 439,510.5C 439.584,503.829 441.25,497.495 444,491.5C 444.203,487.579 444.703,483.745 445.5,480C 445.167,479.667 444.833,479.333 444.5,479C 446.889,471.112 448.222,462.945 448.5,454.5C 448.656,442.668 448.322,430.668 447.5,418.5C 449.691,378.863 450.691,339.197 450.5,299.5C 450.938,299.565 451.272,299.399 451.5,299C 450.263,298.768 449.263,298.268 448.5,297.5 Z"/></g>
<g><path style="opacity:1" fill="#313131" d="M 437.5,299.5 C 438.978,299.238 440.311,299.571 441.5,300.5C 439.043,349.435 437.543,398.435 437,447.5C 436.618,464.388 435.452,481.221 433.5,498C 433.833,500.167 434.167,502.333 434.5,504.5C 435.086,504.709 435.586,505.043 436,505.5C 436.192,503.423 436.692,501.423 437.5,499.5C 439.134,499.032 440.3,498.032 441,496.5C 443.176,485.602 444.509,474.602 445,463.5C 447.002,408.774 448.502,354.108 449.5,299.5C 449.833,299.5 450.167,299.5 450.5,299.5C 450.691,339.197 449.691,378.863 447.5,418.5C 448.322,430.668 448.656,442.668 448.5,454.5C 448.222,462.945 446.889,471.112 444.5,479C 444.833,479.333 445.167,479.667 445.5,480C 444.703,483.745 444.203,487.579 444,491.5C 441.25,497.495 439.584,503.829 439,510.5C 438.302,511.691 437.469,512.691 436.5,513.5C 434.09,513.921 432.257,515.254 431,517.5C 430.333,516.833 429.667,516.167 429,515.5C 428.833,513.167 428.667,510.833 428.5,508.5C 430.944,490.84 432.444,473.173 433,455.5C 433.604,407.651 434.771,359.818 436.5,312C 436.431,308.959 436.098,305.959 435.5,303C 435.978,301.697 436.645,300.531 437.5,299.5 Z"/></g>
<g><path style="opacity:1" fill="#e2e2e2" d="M 296.5,402.5 C 299.956,403.536 300.29,405.203 297.5,407.5C 295.296,406.218 294.962,404.551 296.5,402.5 Z"/></g>
<g><path style="opacity:1" fill="#e8e8e8" d="M 299.5,425.5 C 299.737,426.791 299.404,427.791 298.5,428.5C 297.5,428.5 296.5,428.5 295.5,428.5C 295.5,427.167 295.5,425.833 295.5,424.5C 296.959,424.433 298.292,424.766 299.5,425.5 Z"/></g>
<g><path style="opacity:1" fill="#dddddd" d="M 296.5,445.5 C 298.252,445.418 299.252,446.251 299.5,448C 299.252,449.749 298.252,450.582 296.5,450.5C 295.167,448.833 295.167,447.167 296.5,445.5 Z"/></g>
<g><path style="opacity:1" fill="#181818" d="M 147.5,481.5 C 145.953,464.208 145.286,446.874 145.5,429.5C 146.5,440.158 147.5,455.491 148.5,475.5C 148.495,477.696 148.162,479.696 147.5,481.5 Z"/></g>
<g><path style="opacity:0.518" fill="#bdbdbd" d="M 450.5,440.5 C 451.141,458.135 449.807,475.468 446.5,492.5C 448.304,475.053 449.637,457.719 450.5,440.5 Z"/></g>
<g><path style="opacity:1" fill="#050505" d="M 413.5,540.5 C 412.432,541.434 411.099,541.768 409.5,541.5C 402.174,542.022 394.841,542.522 387.5,543C 326.168,543.5 264.834,543.667 203.5,543.5C 199.069,543.769 194.735,543.436 190.5,542.5C 188.095,541.232 185.428,540.565 182.5,540.5C 195.969,541.434 209.635,541.434 223.5,540.5C 216.152,540.337 209.152,540.337 202.5,540.5C 199.528,538.347 198.195,535.347 198.5,531.5C 193.5,531.5 188.5,531.5 183.5,531.5C 183.5,527.5 183.5,523.5 183.5,519.5C 182.167,519.5 180.833,519.5 179.5,519.5C 179.5,510.167 179.5,500.833 179.5,491.5C 182.167,491.5 184.833,491.5 187.5,491.5C 187.5,492.833 187.5,494.167 187.5,495.5C 194.167,495.5 200.833,495.5 207.5,495.5C 207.5,496.833 207.5,498.167 207.5,499.5C 271.5,499.5 335.5,499.5 399.5,499.5C 399.5,498.167 399.5,496.833 399.5,495.5C 400.833,495.5 402.167,495.5 403.5,495.5C 403.5,494.167 403.5,492.833 403.5,491.5C 406.167,491.5 408.833,491.5 411.5,491.5C 411.5,506.167 411.5,520.833 411.5,535.5C 409.5,535.5 407.5,535.5 405.5,535.5C 405.5,536.833 405.5,538.167 405.5,539.5C 406.069,540.463 408.736,540.13 413.5,538.5C 414.167,538.667 414.833,538.833 415.5,539C 414.584,539.278 413.918,539.778 413.5,540.5 Z"/></g>
<g><path style="opacity:0.722" fill="#a6a6a6" d="M 168.5,533.5 C 170.027,533.427 171.027,534.094 171.5,535.5C 169.973,535.573 168.973,534.906 168.5,533.5 Z"/></g>
<g><path style="opacity:0.647" fill="#a9a9a9" d="M 171.5,535.5 C 173.027,535.427 174.027,536.094 174.5,537.5C 172.973,537.573 171.973,536.906 171.5,535.5 Z"/></g>
<g><path style="opacity:0.706" fill="#aaaaaa" d="M 181.5,540.5 C 181.833,540.5 182.167,540.5 182.5,540.5C 185.428,540.565 188.095,541.232 190.5,542.5C 187.219,542.58 184.219,541.913 181.5,540.5 Z"/></g>
<g><path style="opacity:0.255" fill="#c6c6c6" d="M 409.5,541.5 C 403.734,542.988 397.734,543.822 391.5,544C 328.665,544.832 265.999,544.665 203.5,543.5C 264.834,543.667 326.168,543.5 387.5,543C 394.841,542.522 402.174,542.022 409.5,541.5 Z"/></g>
</svg>
