<?xml version="1.0" encoding="UTF-8"?>
<!DOCTYPE svg PUBLIC "-//W3C//DTD SVG 1.1//EN" "http://www.w3.org/Graphics/SVG/1.1/DTD/svg11.dtd">
<svg xmlns="http://www.w3.org/2000/svg" version="1.1" width="600px" height="600px" style="shape-rendering:geometricPrecision; text-rendering:geometricPrecision; image-rendering:optimizeQuality; fill-rule:evenodd; clip-rule:evenodd" xmlns:xlink="http://www.w3.org/1999/xlink">
<g><path style="opacity:0.016" fill="#fcfdfc" d="M 189.5,42.5 C 191.337,42.6395 191.67,43.3061 190.5,44.5C 189.702,44.0431 189.369,43.3764 189.5,42.5 Z"/></g>
<g><path style="opacity:0.02" fill="#fafbfa" d="M 210.5,42.5 C 211.833,43.1667 211.833,43.1667 210.5,42.5 Z"/></g>
<g><path style="opacity:0.031" fill="#fafafa" d="M 210.5,43.5 C 210.5,43.8333 210.5,44.1667 210.5,44.5C 209.474,45.853 208.141,46.853 206.5,47.5C 199.634,46.3158 192.634,46.4825 185.5,48C 184.748,48.6708 184.414,49.5041 184.5,50.5C 176.18,53.0008 167.847,55.6675 159.5,58.5C 158.833,58.5 158.167,58.5 157.5,58.5C 157.5,58.1667 157.5,57.8333 157.5,57.5C 158.458,57.0472 159.292,56.3805 160,55.5C 161.016,56.6341 161.683,56.3008 162,54.5C 162.333,54.8333 162.667,55.1667 163,55.5C 164.825,54.8971 166.659,54.2304 168.5,53.5C 167.833,52.8333 167.167,52.1667 166.5,51.5C 168.818,50.1656 170.485,50.8323 171.5,53.5C 175.414,52.9192 179.414,51.7525 183.5,50C 182.289,48.8869 182.289,47.7202 183.5,46.5C 189.353,45.5356 195.187,44.5356 201,43.5C 203.379,43.6537 205.546,44.3203 207.5,45.5C 207.911,44.7376 208.077,43.7376 208,42.5C 208.671,43.2524 209.504,43.5858 210.5,43.5 Z"/></g>
<g><path style="opacity:0.004" fill="#fafbfa" d="M 214.5,43.5 C 215.833,44.1667 215.833,44.1667 214.5,43.5 Z"/></g>
<g><path style="opacity:1" fill="#dabfc3" d="M 272.5,45.5 C 276.724,47.0572 280.057,49.7239 282.5,53.5C 279.676,53.108 276.676,53.108 273.5,53.5C 273.5,54.5 273.5,55.5 273.5,56.5C 270.833,57.1667 268.167,57.8333 265.5,58.5C 265.785,60.288 265.452,61.9547 264.5,63.5C 263.5,64.8333 262.5,64.8333 261.5,63.5C 260.833,64.1667 260.167,64.8333 259.5,65.5C 256.845,63.9797 256.178,64.4797 257.5,67C 255.659,69.6381 255.659,72.4714 257.5,75.5C 257.768,77.099 257.434,78.4324 256.5,79.5C 255.496,73.1743 253.162,67.5076 249.5,62.5C 246.132,55.3909 240.799,51.7242 233.5,51.5C 231.784,49.7917 229.784,48.4584 227.5,47.5C 232.435,43.6842 238.101,41.5175 244.5,41C 254.145,39.8292 263.145,41.6625 271.5,46.5C 272.107,46.3764 272.44,46.0431 272.5,45.5 Z"/></g>
<g><path style="opacity:1" fill="#e1cdd0" d="M 355.5,40.5 C 347.964,40.0943 340.298,40.5943 332.5,42C 331.869,43.7683 332.702,44.935 335,45.5C 336.559,44.9706 338.059,44.304 339.5,43.5C 339.833,43.8333 340.167,44.1667 340.5,44.5C 338.984,48.2527 339.651,51.586 342.5,54.5C 339.849,57.4804 336.849,60.147 333.5,62.5C 329.522,63.9055 325.855,63.2388 322.5,60.5C 321.614,59.675 321.281,58.675 321.5,57.5C 320.5,57.5 319.5,57.5 318.5,57.5C 318.67,56.1779 318.337,55.0113 317.5,54C 315.5,53.3333 313.5,53.3333 311.5,54C 307.017,58.3103 303.851,63.477 302,69.5C 301.329,70.2524 300.496,70.5858 299.5,70.5C 305.709,55.356 316.709,45.1894 332.5,40C 340.215,39.2332 347.882,39.3999 355.5,40.5 Z"/></g>
<g><path style="opacity:0.008" fill="#fefffe" d="M 402.5,43.5 C 403.833,44.1667 403.833,44.1667 402.5,43.5 Z"/></g>
<g><path style="opacity:1" fill="#dad9da" d="M 402.5,44.5 C 403.542,45.7911 404.708,45.7911 406,44.5C 406.953,46.5922 408.286,46.9255 410,45.5C 410.417,46.756 411.25,47.4226 412.5,47.5C 419.277,47.5487 426.943,49.0487 435.5,52C 437.177,53.9947 438.677,56.1614 440,58.5C 439.571,71.7709 437.905,85.1042 435,98.5C 433.803,101.089 432.803,103.756 432,106.5C 430.513,109.859 428.346,112.525 425.5,114.5C 429.971,108.216 432.804,101.216 434,93.5C 435.51,82.7761 437.343,72.1094 439.5,61.5C 439.547,59.9996 438.881,58.9996 437.5,58.5C 435.76,59.7158 434.76,61.3825 434.5,63.5C 432.095,76.8186 429.428,90.1519 426.5,103.5C 424.474,106.897 422.474,110.23 420.5,113.5C 420.586,112.504 420.252,111.671 419.5,111C 422.167,110.333 422.167,109.667 419.5,109C 420.308,108.692 420.975,108.192 421.5,107.5C 421.154,106.304 420.654,106.304 420,107.5C 420.109,106.231 419.942,105.231 419.5,104.5C 428.401,81.7037 421.735,65.2037 399.5,55C 394.558,53.6721 389.558,53.3388 384.5,54C 380.995,54.1191 377.995,55.2857 375.5,57.5C 374.391,57.5569 373.391,57.8902 372.5,58.5C 370.875,57.6749 369.208,58.0082 367.5,59.5C 364.112,63.5542 360.446,67.2209 356.5,70.5C 355.914,70.2907 355.414,69.9574 355,69.5C 353,74.1667 351,78.8333 349,83.5C 348.586,83.0426 348.086,82.7093 347.5,82.5C 346.833,86.5 346.167,90.5 345.5,94.5C 344.914,94.2907 344.414,93.9574 344,93.5C 343.501,89.1794 343.334,84.8461 343.5,80.5C 344.06,73.4843 346.393,67.151 350.5,61.5C 353.152,57.1831 356.485,53.5164 360.5,50.5C 361.167,50.1667 361.833,49.8333 362.5,49.5C 363.167,50.8333 363.833,50.8333 364.5,49.5C 365.492,49.6716 366.158,49.3382 366.5,48.5C 367.583,48.4606 368.583,48.1272 369.5,47.5C 370.604,48.6313 370.271,49.4646 368.5,50C 370.766,51.3395 373.099,51.1729 375.5,49.5C 375.833,50.8333 376.167,50.8333 376.5,49.5C 380.105,48.3959 383.772,47.3959 387.5,46.5C 385.306,46.642 382.973,46.3086 380.5,45.5C 382.048,44.2057 384.048,43.5391 386.5,43.5C 391.819,43.8476 397.153,44.1809 402.5,44.5 Z M 368.5,52.5 C 368.44,53.0431 368.107,53.3764 367.5,53.5C 366.205,52.9017 364.872,52.4017 363.5,52C 365.265,51.3603 366.932,51.5269 368.5,52.5 Z"/></g>
<g><path style="opacity:0.029" fill="#fdfdfd" d="M 380.5,45.5 C 380.052,47.4646 379.052,47.7979 377.5,46.5C 378.325,45.6143 379.325,45.281 380.5,45.5 Z"/></g>
<g><path style="opacity:0.022" fill="#fdfcfd" d="M 376.5,49.5 C 376.167,49.5 375.833,49.5 375.5,49.5C 371.392,47.6701 371.725,46.6701 376.5,46.5C 376.5,47.5 376.5,48.5 376.5,49.5 Z"/></g>
<g><path style="opacity:0.012" fill="#fbfcfb" d="M 412.5,46.5 C 413.833,47.1667 413.833,47.1667 412.5,46.5 Z"/></g>
<g><path style="opacity:0.019" fill="#fcfdfc" d="M 167.5,47.5 C 169.337,47.6395 169.67,48.3061 168.5,49.5C 167.702,49.0431 167.369,48.3764 167.5,47.5 Z"/></g>
<g><path style="opacity:0.035" fill="#fcfcfc" d="M 170.5,47.5 C 174.588,47.2184 175.088,47.8851 172,49.5C 170.97,49.1639 170.47,48.4972 170.5,47.5 Z"/></g>
<g><path style="opacity:0.022" fill="#fdfdfd" d="M 162.5,49.5 C 163.386,48.2241 164.386,48.2241 165.5,49.5C 164.289,50.7202 164.289,51.8869 165.5,53C 164.5,53.6667 163.5,53.6667 162.5,53C 162.598,51.7153 162.598,50.5486 162.5,49.5 Z"/></g>
<g><path style="opacity:0.018" fill="#fcfdfc" d="M 175.5,48.5 C 178.001,48.5109 178.168,49.1776 176,50.5C 175.536,49.9056 175.369,49.2389 175.5,48.5 Z"/></g>
<g><path style="opacity:1" fill="#d7d6d6" d="M 272.5,45.5 C 272.44,46.0431 272.107,46.3764 271.5,46.5C 263.145,41.6625 254.145,39.8292 244.5,41C 238.101,41.5175 232.435,43.6842 227.5,47.5C 229.784,48.4584 231.784,49.7917 233.5,51.5C 237.212,54.2109 240.212,57.5442 242.5,61.5C 246.399,66.8605 248.733,72.8605 249.5,79.5C 249.666,84.1785 249.499,88.8452 249,93.5C 248.667,93.8333 248.333,94.1667 248,94.5C 247.667,91.8333 247.333,89.1667 247,86.5C 246.667,86.8333 246.333,87.1667 246,87.5C 245.751,86.376 245.251,85.376 244.5,84.5C 243.342,89.1031 242.509,93.7698 242,98.5C 240.194,102.918 238.194,107.251 236,111.5C 231.565,116.056 226.898,120.39 222,124.5C 219.969,127.223 218.302,130.223 217,133.5C 216.667,171.5 216.333,209.5 216,247.5C 214.257,252.91 210.757,256.744 205.5,259C 210.573,259.758 211.239,261.258 207.5,263.5C 207.5,263.833 207.5,264.167 207.5,264.5C 204.5,264.5 201.5,264.5 198.5,264.5C 194.835,263.003 191.502,261.003 188.5,258.5C 184.484,252.1 182.817,245.1 183.5,237.5C 183.5,205.5 183.5,173.5 183.5,141.5C 177.457,142.515 171.79,144.682 166.5,148C 160.348,152.323 154.681,157.157 149.5,162.5C 142.993,168.011 137.993,174.678 134.5,182.5C 128.675,191.97 125.008,202.303 123.5,213.5C 121.608,214.702 119.774,216.035 118,217.5C 117.333,223.5 117.333,229.5 118,235.5C 119.11,237.037 120.61,237.703 122.5,237.5C 122.833,237.5 123.167,237.5 123.5,237.5C 124.078,240.28 124.745,242.947 125.5,245.5C 131.009,272.859 146.009,293.192 170.5,306.5C 173.088,308.592 176.088,309.925 179.5,310.5C 180.167,311.167 180.833,311.833 181.5,312.5C 174.131,313.506 166.797,313.506 159.5,312.5C 156.55,308.558 152.884,305.225 148.5,302.5C 141.58,294.948 134.913,287.282 128.5,279.5C 128.5,278.833 128.167,278.5 127.5,278.5C 124.352,270.865 121.186,263.199 118,255.5C 116.498,245.476 114.998,235.476 113.5,225.5C 113.797,221.233 113.464,217.066 112.5,213C 114.301,212.683 114.634,212.016 113.5,211C 114.793,206.963 115.626,202.796 116,198.5C 117.688,197.675 117.855,196.675 116.5,195.5C 118.283,190.447 120.616,186.114 123.5,182.5C 124.653,181.687 124.653,180.687 123.5,179.5C 123.846,178.304 124.346,178.304 125,179.5C 127.852,171.13 132.685,164.13 139.5,158.5C 139.833,158.5 140.167,158.5 140.5,158.5C 152.246,147.3 165.579,138.633 180.5,132.5C 181.318,130.892 181.985,129.225 182.5,127.5C 175.803,121.969 169.97,115.636 165,108.5C 161.834,101.839 160.001,94.8386 159.5,87.5C 159.167,86.1667 158.833,86.1667 158.5,87.5C 157.806,85.5357 157.806,83.7023 158.5,82C 157.833,81.6667 157.167,81.3333 156.5,81C 157.591,78.9361 157.758,76.7695 157,74.5C 156.346,75.6956 155.846,75.6956 155.5,74.5C 157.139,71.9597 156.806,69.7931 154.5,68C 155.672,66.1316 155.505,64.2983 154,62.5C 153.346,63.6956 152.846,63.6956 152.5,62.5C 153.061,60.5741 153.227,58.5741 153,56.5C 154.11,58.0368 155.61,58.7035 157.5,58.5C 158.167,59.8333 158.833,59.8333 159.5,58.5C 167.847,55.6675 176.18,53.0008 184.5,50.5C 186.017,50.4894 187.184,49.8228 188,48.5C 188.414,48.9574 188.914,49.2907 189.5,49.5C 195.068,48.1035 200.735,47.4368 206.5,47.5C 208.141,46.853 209.474,45.853 210.5,44.5C 211.833,44.5 213.167,44.5 214.5,44.5C 217.626,46.2681 220.793,47.2681 224,47.5C 231.66,41.2597 240.494,38.5931 250.5,39.5C 258.642,38.8858 265.976,40.8858 272.5,45.5 Z"/></g>
<g><path style="opacity:0.027" fill="#fcfdfc" d="M 157.5,51.5 C 161.276,51.4692 161.443,52.1359 158,53.5C 156.316,53.3166 156.15,52.6499 157.5,51.5 Z"/></g>
<g><path style="opacity:1" fill="#d4b3b7" d="M 282.5,53.5 C 284.914,54.9108 286.581,56.9108 287.5,59.5C 286.167,59.5 284.833,59.5 283.5,59.5C 283.714,61.1439 283.38,62.6439 282.5,64C 283.516,64.5194 284.182,65.3527 284.5,66.5C 283.485,69.2101 281.985,71.5434 280,73.5C 275.53,73.2093 271.03,72.8759 266.5,72.5C 263.247,72.975 260.247,73.975 257.5,75.5C 255.659,72.4714 255.659,69.6381 257.5,67C 256.178,64.4797 256.845,63.9797 259.5,65.5C 260.167,64.8333 260.833,64.1667 261.5,63.5C 262.5,64.8333 263.5,64.8333 264.5,63.5C 265.452,61.9547 265.785,60.288 265.5,58.5C 268.167,57.8333 270.833,57.1667 273.5,56.5C 273.5,55.5 273.5,54.5 273.5,53.5C 276.676,53.108 279.676,53.108 282.5,53.5 Z"/></g>
<g><path style="opacity:0.023" fill="#fcfdfc" d="M 157.5,57.5 C 153.69,56.2458 153.69,55.2458 157.5,54.5C 157.5,55.5 157.5,56.5 157.5,57.5 Z"/></g>
<g><path style="opacity:1" fill="#1e1617" d="M 360.5,50.5 C 356.485,53.5164 353.152,57.1831 350.5,61.5C 348.138,60.7804 345.971,61.447 344,63.5C 343.601,63.2716 343.435,62.9382 343.5,62.5C 347.216,56.2921 352.549,51.9587 359.5,49.5C 360.107,49.6236 360.44,49.9569 360.5,50.5 Z"/></g>
<g><path style="opacity:1" fill="#ddc3c6" d="M 355.5,40.5 C 359.547,41.8413 363.547,43.1747 367.5,44.5C 367.567,45.9587 367.234,47.2921 366.5,48.5C 365.508,48.3284 364.842,48.6618 364.5,49.5C 363.833,49.5 363.167,49.5 362.5,49.5C 361.833,49.8333 361.167,50.1667 360.5,50.5C 360.44,49.9569 360.107,49.6236 359.5,49.5C 352.549,51.9587 347.216,56.2921 343.5,62.5C 341.992,64.1815 340.992,66.1815 340.5,68.5C 338.005,73.0689 336.672,78.0689 336.5,83.5C 335.681,86.3054 335.181,89.3054 335,92.5C 334.667,89.5 334.333,86.5 334,83.5C 333.724,85.7665 333.057,88.0999 332,90.5C 330.742,87.9447 328.909,87.2781 326.5,88.5C 323.018,85.3667 319.018,83.0334 314.5,81.5C 312.024,80.1851 309.857,78.5185 308,76.5C 307.586,76.9574 307.086,77.2907 306.5,77.5C 305.465,74.7344 303.799,74.0677 301.5,75.5C 301.631,74.7611 301.464,74.0944 301,73.5C 300.329,74.2524 299.496,74.5858 298.5,74.5C 298.577,73.2502 299.244,72.4169 300.5,72C 299.944,71.6174 299.611,71.1174 299.5,70.5C 300.496,70.5858 301.329,70.2524 302,69.5C 303.851,63.477 307.017,58.3103 311.5,54C 313.5,53.3333 315.5,53.3333 317.5,54C 318.337,55.0113 318.67,56.1779 318.5,57.5C 319.5,57.5 320.5,57.5 321.5,57.5C 321.281,58.675 321.614,59.675 322.5,60.5C 325.855,63.2388 329.522,63.9055 333.5,62.5C 336.849,60.147 339.849,57.4804 342.5,54.5C 339.651,51.586 338.984,48.2527 340.5,44.5C 340.167,44.1667 339.833,43.8333 339.5,43.5C 338.059,44.304 336.559,44.9706 335,45.5C 332.702,44.935 331.869,43.7683 332.5,42C 340.298,40.5943 347.964,40.0943 355.5,40.5 Z"/></g>
<g><path style="opacity:1" fill="#24191b" d="M 233.5,51.5 C 240.799,51.7242 246.132,55.3909 249.5,62.5C 249.5,63.1667 249.167,63.5 248.5,63.5C 247.383,60.3178 245.383,59.6511 242.5,61.5C 240.212,57.5442 237.212,54.2109 233.5,51.5 Z"/></g>
<g><path style="opacity:1" fill="#c5c5c7" d="M 419.5,104.5 C 410.81,116.803 398.81,122.303 383.5,121C 380.401,120.613 377.734,119.446 375.5,117.5C 368.022,113.018 362.689,106.685 359.5,98.5C 359.667,97.8333 359.833,97.1667 360,96.5C 361.713,104.454 365.213,105.454 370.5,99.5C 371.258,100.811 372.258,101.311 373.5,101C 372.624,99.414 371.624,97.914 370.5,96.5C 370.833,96.1667 371.167,95.8333 371.5,95.5C 372.182,96.2427 372.849,96.9094 373.5,97.5C 375.434,99.7595 377.101,102.26 378.5,105C 386.188,105.831 393.855,105.665 401.5,104.5C 403.098,102.302 404.431,99.9687 405.5,97.5C 406.043,97.44 406.376,97.1067 406.5,96.5C 398.01,95.8333 389.676,95.1666 381.5,94.5C 386.04,92.7091 390.707,91.2091 395.5,90C 396.428,89.6121 397.095,88.9454 397.5,88C 395.197,80.7581 392.697,73.5915 390,66.5C 386.372,75.3475 383.206,84.3475 380.5,93.5C 377.452,96.0352 374.285,96.0352 371,93.5C 370.493,92.0039 370.993,90.8373 372.5,90C 372.039,86.6561 371.039,83.4894 369.5,80.5C 370.52,78.5675 370.687,76.5675 370,74.5C 369.692,75.3081 369.192,75.9747 368.5,76.5C 367.573,74.8872 366.739,73.2205 366,71.5C 364.984,72.6341 364.317,72.3008 364,70.5C 361.046,72.8746 360.88,75.3746 363.5,78C 362.256,78.4561 361.423,77.9561 361,76.5C 360.333,78.5 359.667,80.5 359,82.5C 358.538,77.3956 359.872,72.7289 363,68.5C 366.767,64.2235 370.934,60.5569 375.5,57.5C 377.995,55.2857 380.995,54.1191 384.5,54C 389.558,53.3388 394.558,53.6721 399.5,55C 421.735,65.2037 428.401,81.7037 419.5,104.5 Z"/></g>
<g><path style="opacity:1" fill="#6a484c" d="M 350.5,61.5 C 346.393,67.151 344.06,73.4843 343.5,80.5C 342.514,84.97 342.181,89.6367 342.5,94.5C 340.989,92.5242 340.156,90.1909 340,87.5C 339.1,81.3661 339.6,75.3661 341.5,69.5C 341.376,68.8933 341.043,68.56 340.5,68.5C 340.992,66.1815 341.992,64.1815 343.5,62.5C 343.435,62.9382 343.601,63.2716 344,63.5C 345.971,61.447 348.138,60.7804 350.5,61.5 Z"/></g>
<g><path style="opacity:1" fill="#c5c4c6" d="M 219.5,58.5 C 236.737,71.3936 240.237,87.3936 230,106.5C 227.5,109 225,111.5 222.5,114C 218.616,115.547 215.616,117.38 213.5,119.5C 213.158,120.338 212.492,120.672 211.5,120.5C 205.286,119.821 198.953,118.988 192.5,118C 187.817,115.996 183.484,113.496 179.5,110.5C 172.357,104.201 169.024,96.2007 169.5,86.5C 170.853,70.975 178.853,60.475 193.5,55C 202.845,52.296 211.511,53.4627 219.5,58.5 Z"/></g>
<g><path style="opacity:1" fill="#5b383b" d="M 249.5,62.5 C 253.162,67.5076 255.496,73.1743 256.5,79.5C 256.5,80.1667 256.5,80.8333 256.5,81.5C 256.572,87.5453 256.072,93.5453 255,99.5C 254.722,100.416 254.222,101.082 253.5,101.5C 252.146,102.206 250.479,102.206 248.5,101.5C 250.182,94.2813 250.848,86.948 250.5,79.5C 251.302,80.9516 251.802,82.6183 252,84.5C 252.692,83.9747 253.192,83.3081 253.5,82.5C 252.814,79.2349 251.814,76.0683 250.5,73C 251.542,69.5471 250.875,66.3805 248.5,63.5C 249.167,63.5 249.5,63.1667 249.5,62.5 Z"/></g>
<g><path style="opacity:1" fill="#bbbbbc" d="M 375.5,57.5 C 370.934,60.5569 366.767,64.2235 363,68.5C 359.872,72.7289 358.538,77.3956 359,82.5C 359.667,80.5 360.333,78.5 361,76.5C 361.423,77.9561 362.256,78.4561 363.5,78C 360.88,75.3746 361.046,72.8746 364,70.5C 364.317,72.3008 364.984,72.6341 366,71.5C 366.739,73.2205 367.573,74.8872 368.5,76.5C 369.192,75.9747 369.692,75.3081 370,74.5C 370.687,76.5675 370.52,78.5675 369.5,80.5C 371.039,83.4894 372.039,86.6561 372.5,90C 370.993,90.8373 370.493,92.0039 371,93.5C 374.285,96.0352 377.452,96.0352 380.5,93.5C 380.5,94.1667 380.833,94.5 381.5,94.5C 389.676,95.1666 398.01,95.8333 406.5,96.5C 406.376,97.1067 406.043,97.44 405.5,97.5C 394.833,96.1667 384.167,96.1667 373.5,97.5C 372.849,96.9094 372.182,96.2427 371.5,95.5C 371.167,95.8333 370.833,96.1667 370.5,96.5C 371.624,97.914 372.624,99.414 373.5,101C 372.258,101.311 371.258,100.811 370.5,99.5C 365.213,105.454 361.713,104.454 360,96.5C 359.833,97.1667 359.667,97.8333 359.5,98.5C 362.689,106.685 368.022,113.018 375.5,117.5C 363.194,111.662 356.528,101.829 355.5,88C 356.165,75.157 361.832,65.3236 372.5,58.5C 373.391,57.8902 374.391,57.5569 375.5,57.5 Z"/></g>
<g><path style="opacity:1" fill="#795257" d="M 248.5,63.5 C 250.875,66.3805 251.542,69.5471 250.5,73C 251.814,76.0683 252.814,79.2349 253.5,82.5C 253.192,83.3081 252.692,83.9747 252,84.5C 251.802,82.6183 251.302,80.9516 250.5,79.5C 250.167,79.5 249.833,79.5 249.5,79.5C 248.733,72.8605 246.399,66.8605 242.5,61.5C 245.383,59.6511 247.383,60.3178 248.5,63.5 Z"/></g>
<g><path style="opacity:1" fill="#cea8ad" d="M 287.5,59.5 C 291.37,64.0913 293.703,69.4246 294.5,75.5C 293.265,75.2786 292.265,74.6119 291.5,73.5C 290.357,78.9694 287.69,83.4694 283.5,87C 275.119,86.541 266.785,86.7077 258.5,87.5C 258.66,89.1992 258.494,90.8659 258,92.5C 257.823,88.6437 257.323,84.977 256.5,81.5C 256.5,80.8333 256.5,80.1667 256.5,79.5C 257.434,78.4324 257.768,77.099 257.5,75.5C 260.247,73.975 263.247,72.975 266.5,72.5C 271.03,72.8759 275.53,73.2093 280,73.5C 281.985,71.5434 283.485,69.2101 284.5,66.5C 284.182,65.3527 283.516,64.5194 282.5,64C 283.38,62.6439 283.714,61.1439 283.5,59.5C 284.833,59.5 286.167,59.5 287.5,59.5 Z"/></g>
<g><path style="opacity:1" fill="#6f6f71" d="M 202.5,67.5 C 203.75,67.5774 204.583,68.244 205,69.5C 207.673,76.0191 209.84,82.6858 211.5,89.5C 205.989,90.6667 200.656,92.3333 195.5,94.5C 194.833,94.1667 194.167,93.8333 193.5,93.5C 197.096,84.9886 200.096,76.3219 202.5,67.5 Z"/></g>
<g><path style="opacity:1" fill="#6e6e70" d="M 381.5,94.5 C 380.833,94.5 380.5,94.1667 380.5,93.5C 383.206,84.3475 386.372,75.3475 390,66.5C 392.697,73.5915 395.197,80.7581 397.5,88C 397.095,88.9454 396.428,89.6121 395.5,90C 390.707,91.2091 386.04,92.7091 381.5,94.5 Z"/></g>
<g><path style="opacity:1" fill="#d5b4b8" d="M 336.5,83.5 C 336.45,88.5518 336.95,93.5518 338,98.5C 338.278,99.4158 338.778,100.082 339.5,100.5C 339.629,102.216 339.962,103.883 340.5,105.5C 340.631,106.239 340.464,106.906 340,107.5C 339,105.5 338,103.5 337,101.5C 336.28,103.112 336.446,104.612 337.5,106C 336.093,107.452 334.593,107.285 333,105.5C 332.691,104.234 332.191,103.067 331.5,102C 327.844,101.921 324.51,100.921 321.5,99C 321.273,97.8647 320.94,96.698 320.5,95.5C 312.408,95.2623 306.908,91.2623 304,83.5C 303.667,83.8333 303.333,84.1667 303,84.5C 301.711,81.6492 301.211,78.6492 301.5,75.5C 303.799,74.0677 305.465,74.7344 306.5,77.5C 307.086,77.2907 307.586,76.9574 308,76.5C 309.857,78.5185 312.024,80.1851 314.5,81.5C 319.018,83.0334 323.018,85.3667 326.5,88.5C 328.909,87.2781 330.742,87.9447 332,90.5C 333.057,88.0999 333.724,85.7665 334,83.5C 334.333,86.5 334.667,89.5 335,92.5C 335.181,89.3054 335.681,86.3054 336.5,83.5 Z"/></g>
<g><path style="opacity:1" fill="#4d2f31" d="M 340.5,68.5 C 341.043,68.56 341.376,68.8933 341.5,69.5C 339.6,75.3661 339.1,81.3661 340,87.5C 340.156,90.1909 340.989,92.5242 342.5,94.5C 343.319,96.7722 343.985,99.1055 344.5,101.5C 342.708,101.634 341.042,101.301 339.5,100.5C 338.778,100.082 338.278,99.4158 338,98.5C 336.95,93.5518 336.45,88.5518 336.5,83.5C 336.672,78.0689 338.005,73.0689 340.5,68.5 Z"/></g>
<g><path style="opacity:1" fill="#cfa9ad" d="M 301.5,75.5 C 301.211,78.6492 301.711,81.6492 303,84.5C 303.333,84.1667 303.667,83.8333 304,83.5C 306.908,91.2623 312.408,95.2623 320.5,95.5C 320.94,96.698 321.273,97.8647 321.5,99C 324.51,100.921 327.844,101.921 331.5,102C 332.191,103.067 332.691,104.234 333,105.5C 334.593,107.285 336.093,107.452 337.5,106C 336.446,104.612 336.28,103.112 337,101.5C 338,103.5 339,105.5 340,107.5C 340.464,106.906 340.631,106.239 340.5,105.5C 343.473,109.14 346.806,112.473 350.5,115.5C 349.207,116.645 348.041,116.311 347,114.5C 345.915,115.293 344.748,115.96 343.5,116.5C 341.183,113.683 338.683,111.016 336,108.5C 335.439,109.022 334.772,109.355 334,109.5C 331.549,107.405 328.715,106.405 325.5,106.5C 325.649,105.448 325.483,104.448 325,103.5C 320.425,104.214 315.925,104.547 311.5,104.5C 311.833,106.5 312.167,108.5 312.5,110.5C 301.763,100.97 297.096,88.9704 298.5,74.5C 299.496,74.5858 300.329,74.2524 301,73.5C 301.464,74.0944 301.631,74.7611 301.5,75.5 Z"/></g>
<g><path style="opacity:1" fill="#c4989a" d="M 294.5,75.5 C 295.628,86.595 292.628,96.2616 285.5,104.5C 282.097,106.9 279.43,109.9 277.5,113.5C 270.706,118.727 263.04,122.061 254.5,123.5C 249.156,123.666 243.823,123.499 238.5,123C 237.584,122.722 236.918,122.222 236.5,121.5C 237.443,118.891 239.11,116.891 241.5,115.5C 247.353,112.486 251.353,107.819 253.5,101.5C 254.222,101.082 254.722,100.416 255,99.5C 256.072,93.5453 256.572,87.5453 256.5,81.5C 257.323,84.977 257.823,88.6437 258,92.5C 258.494,90.8659 258.66,89.1992 258.5,87.5C 266.785,86.7077 275.119,86.541 283.5,87C 287.69,83.4694 290.357,78.9694 291.5,73.5C 292.265,74.6119 293.265,75.2786 294.5,75.5 Z"/></g>
<g><path style="opacity:1" fill="#aaaaab" d="M 219.5,58.5 C 233.209,66.0754 239.042,77.742 237,93.5C 233.823,106.504 225.99,115.171 213.5,119.5C 215.616,117.38 218.616,115.547 222.5,114C 225,111.5 227.5,109 230,106.5C 240.237,87.3936 236.737,71.3936 219.5,58.5 Z"/></g>
<g><path style="opacity:1" fill="#6f6f72" d="M 187.5,96.5 C 198.172,96.3335 208.839,96.5002 219.5,97C 218.039,99.4206 216.706,101.921 215.5,104.5C 207.5,105.833 199.5,105.833 191.5,104.5C 190.14,101.78 188.807,99.1136 187.5,96.5 Z"/></g>
<g><path style="opacity:1" fill="#1b1413" d="M 339.5,100.5 C 341.042,101.301 342.708,101.634 344.5,101.5C 346.025,106.213 348.358,110.546 351.5,114.5C 351.5,115.167 351.167,115.5 350.5,115.5C 346.806,112.473 343.473,109.14 340.5,105.5C 339.962,103.883 339.629,102.216 339.5,100.5 Z"/></g>
<g><path style="opacity:1" fill="#6f7072" d="M 373.5,97.5 C 384.167,96.1667 394.833,96.1667 405.5,97.5C 404.431,99.9687 403.098,102.302 401.5,104.5C 393.855,105.665 386.188,105.831 378.5,105C 377.101,102.26 375.434,99.7595 373.5,97.5 Z"/></g>
<g><path style="opacity:1" fill="#9cc3d7" d="M 379.5,98.5 C 381.048,98.8212 381.715,99.8212 381.5,101.5C 378.752,101.598 378.086,100.598 379.5,98.5 Z"/></g>
<g><path style="opacity:0.063" fill="#eee4e4" d="M 285.5,104.5 C 283.57,108.1 280.903,111.1 277.5,113.5C 279.43,109.9 282.097,106.9 285.5,104.5 Z"/></g>
<g><path style="opacity:1" fill="#221718" d="M 253.5,101.5 C 251.353,107.819 247.353,112.486 241.5,115.5C 244.393,111.047 246.727,106.38 248.5,101.5C 250.479,102.206 252.146,102.206 253.5,101.5 Z"/></g>
<g><path style="opacity:1" fill="#c8a0a3" d="M 350.5,115.5 C 351.167,115.5 351.5,115.167 351.5,114.5C 353.497,116.513 355.164,118.846 356.5,121.5C 355.624,122.251 354.624,122.751 353.5,123C 348.511,123.499 343.511,123.666 338.5,123.5C 337.833,123.5 337.167,123.5 336.5,123.5C 336.289,121.576 335.623,121.243 334.5,122.5C 326.307,120.07 318.974,116.07 312.5,110.5C 312.167,108.5 311.833,106.5 311.5,104.5C 315.925,104.547 320.425,104.214 325,103.5C 325.483,104.448 325.649,105.448 325.5,106.5C 328.715,106.405 331.549,107.405 334,109.5C 334.772,109.355 335.439,109.022 336,108.5C 338.683,111.016 341.183,113.683 343.5,116.5C 344.748,115.96 345.915,115.293 347,114.5C 348.041,116.311 349.207,116.645 350.5,115.5 Z"/></g>
<g><path style="opacity:1" fill="#acacae" d="M 179.5,110.5 C 183.484,113.496 187.817,115.996 192.5,118C 198.953,118.988 205.286,119.821 211.5,120.5C 198.785,123.327 188.118,119.994 179.5,110.5 Z"/></g>
<g><path style="opacity:1" fill="#d6d5d5" d="M 372.5,58.5 C 361.832,65.3236 356.165,75.157 355.5,88C 356.528,101.829 363.194,111.662 375.5,117.5C 377.734,119.446 380.401,120.613 383.5,121C 398.81,122.303 410.81,116.803 419.5,104.5C 419.942,105.231 420.109,106.231 420,107.5C 420.654,106.304 421.154,106.304 421.5,107.5C 420.975,108.192 420.308,108.692 419.5,109C 422.167,109.667 422.167,110.333 419.5,111C 420.252,111.671 420.586,112.504 420.5,113.5C 416.169,117.663 411.669,121.663 407,125.5C 405.516,128.445 404.182,131.445 403,134.5C 402.667,172.5 402.333,210.5 402,248.5C 401.07,250.936 399.903,253.269 398.5,255.5C 400.736,256.812 402.736,256.479 404.5,254.5C 405.298,254.957 405.631,255.624 405.5,256.5C 399.167,263.973 391.167,266.307 381.5,263.5C 380.71,262.599 379.71,261.932 378.5,261.5C 374.565,257.967 371.899,253.634 370.5,248.5C 370.667,211.498 370.5,174.498 370,137.5C 369.768,136.263 369.268,135.263 368.5,134.5C 366.608,130.385 364.442,126.385 362,122.5C 361.51,123.793 361.343,125.127 361.5,126.5C 353.167,126.5 344.833,126.5 336.5,126.5C 337.167,125.833 337.833,125.167 338.5,124.5C 338.5,124.167 338.5,123.833 338.5,123.5C 343.511,123.666 348.511,123.499 353.5,123C 354.624,122.751 355.624,122.251 356.5,121.5C 355.164,118.846 353.497,116.513 351.5,114.5C 348.358,110.546 346.025,106.213 344.5,101.5C 343.985,99.1055 343.319,96.7722 342.5,94.5C 342.181,89.6367 342.514,84.97 343.5,80.5C 343.334,84.8461 343.501,89.1794 344,93.5C 344.414,93.9574 344.914,94.2907 345.5,94.5C 346.167,90.5 346.833,86.5 347.5,82.5C 348.086,82.7093 348.586,83.0426 349,83.5C 351,78.8333 353,74.1667 355,69.5C 355.414,69.9574 355.914,70.2907 356.5,70.5C 360.446,67.2209 364.112,63.5542 367.5,59.5C 369.208,58.0082 370.875,57.6749 372.5,58.5 Z"/></g>
<g><path style="opacity:0.076" fill="#f4f4f4" d="M 158.5,87.5 C 158.833,87.5 159.167,87.5 159.5,87.5C 160.001,94.8386 161.834,101.839 165,108.5C 169.97,115.636 175.803,121.969 182.5,127.5C 181.985,129.225 181.318,130.892 180.5,132.5C 165.579,138.633 152.246,147.3 140.5,158.5C 140.351,157.448 140.517,156.448 141,155.5C 152.349,144.56 165.516,136.227 180.5,130.5C 179.289,129.28 179.289,128.113 180.5,127C 165.806,118.093 158.472,104.926 158.5,87.5 Z"/></g>
<g><path style="opacity:0.431" fill="#efefef" d="M 334.5,122.5 C 335.623,121.243 336.289,121.576 336.5,123.5C 336.842,124.338 337.508,124.672 338.5,124.5C 337.833,125.167 337.167,125.833 336.5,126.5C 309.299,126.549 282.299,126.549 255.5,126.5C 256.75,126.423 257.583,125.756 258,124.5C 258.333,125.167 258.667,125.833 259,126.5C 283.761,125.672 308.594,125.172 333.5,125C 335.359,124.399 335.692,123.566 334.5,122.5 Z"/></g>
<g><path style="opacity:1" fill="#d2cecf" d="M 236.5,121.5 C 236.918,122.222 237.584,122.722 238.5,123C 243.823,123.499 249.156,123.666 254.5,123.5C 255.11,124.391 255.443,125.391 255.5,126.5C 282.299,126.549 309.299,126.549 336.5,126.5C 344.833,126.5 353.167,126.5 361.5,126.5C 361.343,125.127 361.51,123.793 362,122.5C 364.442,126.385 366.608,130.385 368.5,134.5C 358.494,134.334 348.494,134.5 338.5,135C 334.97,137.596 331.303,139.929 327.5,142C 308.167,142.667 288.833,142.667 269.5,142C 266.437,138.802 262.771,136.636 258.5,135.5C 247.679,134.505 236.679,134.172 225.5,134.5C 226.286,129.947 228.786,126.613 233,124.5C 233.333,123.167 233.667,121.833 234,120.5C 234.671,121.252 235.504,121.586 236.5,121.5 Z"/></g>
<g><path style="opacity:1" fill="#c8c5c6" d="M 249.5,79.5 C 249.833,79.5 250.167,79.5 250.5,79.5C 250.848,86.948 250.182,94.2813 248.5,101.5C 246.727,106.38 244.393,111.047 241.5,115.5C 239.11,116.891 237.443,118.891 236.5,121.5C 235.504,121.586 234.671,121.252 234,120.5C 233.667,121.833 233.333,123.167 233,124.5C 228.786,126.613 226.286,129.947 225.5,134.5C 236.679,134.172 247.679,134.505 258.5,135.5C 246.833,135.5 235.167,135.5 223.5,135.5C 222.525,172.809 222.192,210.143 222.5,247.5C 221.041,254.142 217.375,259.308 211.5,263C 210.207,263.49 208.873,263.657 207.5,263.5C 211.239,261.258 210.573,259.758 205.5,259C 210.757,256.744 214.257,252.91 216,247.5C 216.333,209.5 216.667,171.5 217,133.5C 218.302,130.223 219.969,127.223 222,124.5C 226.898,120.39 231.565,116.056 236,111.5C 238.194,107.251 240.194,102.918 242,98.5C 242.509,93.7698 243.342,89.1031 244.5,84.5C 245.251,85.376 245.751,86.376 246,87.5C 246.333,87.1667 246.667,86.8333 247,86.5C 247.333,89.1667 247.667,91.8333 248,94.5C 248.333,94.1667 248.667,93.8333 249,93.5C 249.499,88.8452 249.666,84.1785 249.5,79.5 Z"/></g>
<g><path style="opacity:1" fill="#bfbaba" d="M 368.5,134.5 C 369.268,135.263 369.768,136.263 370,137.5C 370.5,174.498 370.667,211.498 370.5,248.5C 369.502,218.005 369.169,187.338 369.5,156.5C 369.5,153.167 369.5,149.833 369.5,146.5C 333.847,145.38 298.181,145.214 262.5,146C 261.874,146.75 261.374,147.584 261,148.5C 253.758,146.747 246.258,145.747 238.5,145.5C 233.534,146.331 228.534,146.664 223.5,146.5C 223.832,180.337 223.498,214.004 222.5,247.5C 222.192,210.143 222.525,172.809 223.5,135.5C 235.167,135.5 246.833,135.5 258.5,135.5C 262.771,136.636 266.437,138.802 269.5,142C 288.833,142.667 308.167,142.667 327.5,142C 331.303,139.929 334.97,137.596 338.5,135C 348.494,134.5 358.494,134.334 368.5,134.5 Z"/></g>
<g><path style="opacity:1" fill="#bcb8b9" d="M 270.5,128.5 C 289.836,128.333 309.17,128.5 328.5,129C 333.861,132.985 333.528,136.651 327.5,140C 308.833,140.667 290.167,140.667 271.5,140C 265.185,136.599 264.852,132.766 270.5,128.5 Z"/></g>
<g><path style="opacity:1" fill="#d1cdce" d="M 271.5,129.5 C 290.17,129.333 308.836,129.5 327.5,130C 331.065,132.178 331.399,134.844 328.5,138C 309.167,138.667 289.833,138.667 270.5,138C 267.83,134.838 268.163,132.005 271.5,129.5 Z"/></g>
<g><path style="opacity:1" fill="#b6b0b2" d="M 369.5,156.5 C 368.267,167.65 367.433,178.983 367,190.5C 366.852,184.751 366.186,179.085 365,173.5C 364.667,176.5 364.333,179.5 364,182.5C 363.667,179.167 363.333,175.833 363,172.5C 361.812,173.563 361.312,174.897 361.5,176.5C 357.449,176.077 353.616,176.744 350,178.5C 344.352,176.649 338.519,175.982 332.5,176.5C 332.5,178.833 332.5,181.167 332.5,183.5C 331.5,183.5 330.5,183.5 329.5,183.5C 329.5,181.167 329.5,178.833 329.5,176.5C 328.167,176.5 326.833,176.5 325.5,176.5C 325.5,177.5 325.5,178.5 325.5,179.5C 323.194,179.993 320.861,180.326 318.5,180.5C 318.5,182.833 318.5,185.167 318.5,187.5C 315.833,187.5 313.167,187.5 310.5,187.5C 310.5,190.167 310.5,192.833 310.5,195.5C 309.167,195.5 307.833,195.5 306.5,195.5C 306.5,194.167 306.5,192.833 306.5,191.5C 305.167,191.5 303.833,191.5 302.5,191.5C 302.5,190.167 302.5,188.833 302.5,187.5C 304.5,187.5 306.5,187.5 308.5,187.5C 308.5,186.167 308.5,184.833 308.5,183.5C 305.5,183.5 302.5,183.5 299.5,183.5C 299.5,184.833 299.5,186.167 299.5,187.5C 298.167,187.5 296.833,187.5 295.5,187.5C 295.5,188.833 295.5,190.167 295.5,191.5C 294.5,191.5 293.5,191.5 292.5,191.5C 292.5,192.833 292.5,194.167 292.5,195.5C 291.167,195.5 289.833,195.5 288.5,195.5C 288.5,197.833 288.5,200.167 288.5,202.5C 285.833,202.5 283.167,202.5 280.5,202.5C 280.5,205.167 280.5,207.833 280.5,210.5C 285.5,210.5 290.5,210.5 295.5,210.5C 295.5,212.833 295.5,215.167 295.5,217.5C 299.215,217.423 302.881,217.756 306.5,218.5C 306.5,220.833 306.5,223.167 306.5,225.5C 302.833,225.5 299.167,225.5 295.5,225.5C 295.5,230.167 295.5,234.833 295.5,239.5C 298.167,239.5 300.833,239.5 303.5,239.5C 303.5,242.167 303.5,244.833 303.5,247.5C 305.833,247.5 308.167,247.5 310.5,247.5C 310.5,249.833 310.5,252.167 310.5,254.5C 308.143,254.337 305.81,254.503 303.5,255C 302.663,256.011 302.33,257.178 302.5,258.5C 301.5,258.5 300.5,258.5 299.5,258.5C 299.5,257.167 299.5,255.833 299.5,254.5C 296.267,255.746 292.934,256.246 289.5,256C 291.219,254.943 293.053,254.11 295,253.5C 295.49,252.207 295.657,250.873 295.5,249.5C 292.565,249.283 289.731,248.617 287,247.5C 282.173,249.979 277.506,249.979 273,247.5C 269.7,249.557 269.867,250.557 273.5,250.5C 273.5,251.833 273.5,253.167 273.5,254.5C 276.167,254.5 278.833,254.5 281.5,254.5C 281.5,257.167 281.5,259.833 281.5,262.5C 278.833,262.5 276.167,262.5 273.5,262.5C 273.5,260.167 273.5,257.833 273.5,255.5C 272.167,255.5 270.833,255.5 269.5,255.5C 269.5,260.167 269.5,264.833 269.5,269.5C 270.833,269.5 272.167,269.5 273.5,269.5C 273.5,271.833 273.5,274.167 273.5,276.5C 275.901,277.049 278.235,277.882 280.5,279C 281.406,280.699 281.739,282.533 281.5,284.5C 278.833,284.5 276.167,284.5 273.5,284.5C 272.833,287.167 272.167,289.833 271.5,292.5C 269.5,292.5 267.5,292.5 265.5,292.5C 265.5,291.167 265.5,289.833 265.5,288.5C 263.167,288.5 260.833,288.5 258.5,288.5C 258.5,289.833 258.5,291.167 258.5,292.5C 251.5,294.167 248.833,291.5 250.5,284.5C 249.5,284.5 248.5,284.5 247.5,284.5C 247.5,279.833 247.5,275.167 247.5,270.5C 240.159,270.666 232.826,270.5 225.5,270C 224.695,265.251 224.195,260.418 224,255.5C 223.503,257.81 223.337,260.143 223.5,262.5C 220.446,262.704 217.946,264.038 216,266.5C 214.56,265.393 213.06,265.393 211.5,266.5C 208.937,266.263 208.937,265.763 211.5,265C 210.207,264.51 208.873,264.343 207.5,264.5C 207.5,264.167 207.5,263.833 207.5,263.5C 208.873,263.657 210.207,263.49 211.5,263C 217.375,259.308 221.041,254.142 222.5,247.5C 223.498,214.004 223.832,180.337 223.5,146.5C 228.534,146.664 233.534,146.331 238.5,145.5C 246.258,145.747 253.758,146.747 261,148.5C 261.374,147.584 261.874,146.75 262.5,146C 298.181,145.214 333.847,145.38 369.5,146.5C 369.5,149.833 369.5,153.167 369.5,156.5 Z"/></g>
<g><path style="opacity:1" fill="#b1acac" d="M 412.5,139.5 C 428.214,144.555 441.547,153.222 452.5,165.5C 451.761,165.369 451.094,165.536 450.5,166C 451.313,167.314 452.313,168.481 453.5,169.5C 452.5,170.5 451.5,171.5 450.5,172.5C 447.972,171.483 447.972,170.316 450.5,169C 449.725,167.77 448.725,167.437 447.5,168C 447.665,170.257 447.165,172.424 446,174.5C 445.417,172.998 444.584,171.665 443.5,170.5C 440.642,174.615 438.642,174.282 437.5,169.5C 436.5,169.5 435.5,169.5 434.5,169.5C 436.423,174.414 435.256,175.414 431,172.5C 430.505,174.473 430.338,176.473 430.5,178.5C 428.857,178.48 427.524,179.147 426.5,180.5C 425.526,182.743 425.192,185.076 425.5,187.5C 424.5,187.5 423.5,187.5 422.5,187.5C 422.5,191.5 422.5,195.5 422.5,199.5C 419.751,199.726 417.084,199.393 414.5,198.5C 413.526,200.743 413.192,203.076 413.5,205.5C 411.801,205.527 410.467,206.194 409.5,207.5C 409.78,184.811 409.447,162.145 408.5,139.5C 409.833,139.5 411.167,139.5 412.5,139.5 Z"/></g>
<g><path style="opacity:0.031" fill="#f7f8f7" d="M 139.5,158.5 C 138.833,157.167 138.833,157.167 139.5,158.5 Z"/></g>
<g><path style="opacity:1" fill="#aea7a8" d="M 183.5,237.5 C 182.778,237.082 182.278,236.416 182,235.5C 181.667,237.167 181.333,238.833 181,240.5C 180.667,239.833 180.333,239.167 180,238.5C 178.817,239.731 177.651,239.731 176.5,238.5C 177.106,236.291 177.773,234.124 178.5,232C 176.321,230.858 173.988,230.025 171.5,229.5C 170.996,223.434 169.329,217.767 166.5,212.5C 165.675,211.614 164.675,211.281 163.5,211.5C 163.36,209.876 164.027,208.71 165.5,208C 164.128,202.241 162.795,196.408 161.5,190.5C 162.873,185.636 164.206,180.802 165.5,176C 164.406,168.116 160.74,166.283 154.5,170.5C 153.476,169.147 152.143,168.48 150.5,168.5C 150.795,166.265 150.461,164.265 149.5,162.5C 154.681,157.157 160.348,152.323 166.5,148C 171.79,144.682 177.457,142.515 183.5,141.5C 183.5,173.5 183.5,205.5 183.5,237.5 Z"/></g>
<g><path style="opacity:1" fill="#aaa4a6" d="M 452.5,165.5 C 461.143,175.113 467.476,186.113 471.5,198.5C 470.21,197.942 469.377,196.942 469,195.5C 466.906,197.921 465.24,200.588 464,203.5C 462.093,201.544 460.926,199.21 460.5,196.5C 458.282,193.285 457.115,189.618 457,185.5C 455.103,187.016 452.936,187.683 450.5,187.5C 450.823,191.226 450.489,194.893 449.5,198.5C 448.167,198.833 446.833,199.167 445.5,199.5C 444.571,200.689 444.238,202.022 444.5,203.5C 443.5,203.5 442.5,203.5 441.5,203.5C 441.5,205.833 441.5,208.167 441.5,210.5C 440.167,210.5 438.833,210.5 437.5,210.5C 437.5,211.5 437.5,212.5 437.5,213.5C 436.167,213.5 434.833,213.5 433.5,213.5C 434.363,211.105 434.363,208.771 433.5,206.5C 432.329,208.842 431.162,211.176 430,213.5C 428.989,214.337 427.822,214.67 426.5,214.5C 426.5,215.5 426.5,216.5 426.5,217.5C 423.833,217.833 421.167,218.167 418.5,218.5C 418.214,220.277 417.547,221.944 416.5,223.5C 418.064,226.306 418.73,229.306 418.5,232.5C 416.167,232.5 413.833,232.5 411.5,232.5C 410.873,235.734 410.873,238.901 411.5,242C 411.361,243.301 410.695,244.134 409.5,244.5C 409.5,232.167 409.5,219.833 409.5,207.5C 410.467,206.194 411.801,205.527 413.5,205.5C 413.192,203.076 413.526,200.743 414.5,198.5C 417.084,199.393 419.751,199.726 422.5,199.5C 422.5,195.5 422.5,191.5 422.5,187.5C 423.5,187.5 424.5,187.5 425.5,187.5C 425.192,185.076 425.526,182.743 426.5,180.5C 427.524,179.147 428.857,178.48 430.5,178.5C 430.338,176.473 430.505,174.473 431,172.5C 435.256,175.414 436.423,174.414 434.5,169.5C 435.5,169.5 436.5,169.5 437.5,169.5C 438.642,174.282 440.642,174.615 443.5,170.5C 444.584,171.665 445.417,172.998 446,174.5C 447.165,172.424 447.665,170.257 447.5,168C 448.725,167.437 449.725,167.77 450.5,169C 447.972,170.316 447.972,171.483 450.5,172.5C 451.5,171.5 452.5,170.5 453.5,169.5C 452.313,168.481 451.313,167.314 450.5,166C 451.094,165.536 451.761,165.369 452.5,165.5 Z"/></g>
<g><path style="opacity:1" fill="#b3aaac" d="M 369.5,156.5 C 369.169,187.338 369.502,218.005 370.5,248.5C 371.899,253.634 374.565,257.967 378.5,261.5C 378.058,262.231 377.891,263.231 378,264.5C 376.647,265.685 375.48,267.019 374.5,268.5C 372.647,269.76 370.814,269.76 369,268.5C 368.047,270.592 366.714,270.925 365,269.5C 364.51,270.793 364.343,272.127 364.5,273.5C 360.551,273.693 360.551,274.193 364.5,275C 361.649,276.289 358.649,276.789 355.5,276.5C 355.5,275.5 355.5,274.5 355.5,273.5C 354.167,273.5 352.833,273.5 351.5,273.5C 351.5,272.5 351.5,271.5 351.5,270.5C 349.5,270.5 347.5,270.5 345.5,270.5C 345.5,271.5 345.5,272.5 345.5,273.5C 346.5,273.5 347.5,273.5 348.5,273.5C 348.5,279.833 348.5,286.167 348.5,292.5C 345.833,292.5 343.167,292.5 340.5,292.5C 340.5,294.833 340.5,297.167 340.5,299.5C 337.467,299.868 334.8,299.202 332.5,297.5C 333.476,296.185 334.476,294.852 335.5,293.5C 333.244,292.579 332.244,290.912 332.5,288.5C 330.167,288.5 327.833,288.5 325.5,288.5C 325.5,284.5 325.5,280.5 325.5,276.5C 326.833,276.5 328.167,276.5 329.5,276.5C 329.5,269.167 329.5,261.833 329.5,254.5C 330.5,254.5 331.5,254.5 332.5,254.5C 332.078,249.28 330.911,244.28 329,239.5C 328.298,244.638 327.132,249.638 325.5,254.5C 323.8,254.374 322.3,253.707 321,252.5C 320.5,252.833 320,253.167 319.5,253.5C 320.946,255.618 321.613,257.951 321.5,260.5C 319.167,260.5 316.833,260.5 314.5,260.5C 314.5,258.833 314.5,257.167 314.5,255.5C 312.901,255.768 311.568,255.434 310.5,254.5C 310.5,252.167 310.5,249.833 310.5,247.5C 308.167,247.5 305.833,247.5 303.5,247.5C 303.5,244.833 303.5,242.167 303.5,239.5C 300.833,239.5 298.167,239.5 295.5,239.5C 295.5,234.833 295.5,230.167 295.5,225.5C 299.167,225.5 302.833,225.5 306.5,225.5C 306.5,223.167 306.5,220.833 306.5,218.5C 302.881,217.756 299.215,217.423 295.5,217.5C 295.5,215.167 295.5,212.833 295.5,210.5C 290.5,210.5 285.5,210.5 280.5,210.5C 280.5,207.833 280.5,205.167 280.5,202.5C 283.167,202.5 285.833,202.5 288.5,202.5C 288.5,200.167 288.5,197.833 288.5,195.5C 289.833,195.5 291.167,195.5 292.5,195.5C 292.5,194.167 292.5,192.833 292.5,191.5C 293.5,191.5 294.5,191.5 295.5,191.5C 295.5,190.167 295.5,188.833 295.5,187.5C 296.833,187.5 298.167,187.5 299.5,187.5C 299.5,186.167 299.5,184.833 299.5,183.5C 302.5,183.5 305.5,183.5 308.5,183.5C 308.5,184.833 308.5,186.167 308.5,187.5C 306.5,187.5 304.5,187.5 302.5,187.5C 302.5,188.833 302.5,190.167 302.5,191.5C 303.833,191.5 305.167,191.5 306.5,191.5C 306.5,192.833 306.5,194.167 306.5,195.5C 307.833,195.5 309.167,195.5 310.5,195.5C 310.5,192.833 310.5,190.167 310.5,187.5C 313.167,187.5 315.833,187.5 318.5,187.5C 318.5,185.167 318.5,182.833 318.5,180.5C 320.861,180.326 323.194,179.993 325.5,179.5C 325.5,178.5 325.5,177.5 325.5,176.5C 326.833,176.5 328.167,176.5 329.5,176.5C 329.5,178.833 329.5,181.167 329.5,183.5C 330.5,183.5 331.5,183.5 332.5,183.5C 332.5,181.167 332.5,178.833 332.5,176.5C 338.519,175.982 344.352,176.649 350,178.5C 353.616,176.744 357.449,176.077 361.5,176.5C 361.312,174.897 361.812,173.563 363,172.5C 363.333,175.833 363.667,179.167 364,182.5C 364.333,179.5 364.667,176.5 365,173.5C 366.186,179.085 366.852,184.751 367,190.5C 367.433,178.983 368.267,167.65 369.5,156.5 Z"/></g>
<g><path style="opacity:1" fill="#a1989a" d="M 192.5,296.5 C 193.787,298.637 194.621,300.97 195,303.5C 198.544,304.688 201.71,306.522 204.5,309C 202.821,309.395 201.155,309.228 199.5,308.5C 198.068,308.733 197.568,309.4 198,310.5C 201.27,311.132 204.437,311.799 207.5,312.5C 199.5,312.5 191.5,312.5 183.5,312.5C 182.833,312.5 182.167,312.5 181.5,312.5C 180.833,311.833 180.167,311.167 179.5,310.5C 181.282,309.28 183.282,308.614 185.5,308.5C 186.464,303.258 184.464,299.758 179.5,298C 180.308,297.692 180.975,297.192 181.5,296.5C 180.3,295.708 178.967,295.708 177.5,296.5C 178.312,293.412 179.645,290.579 181.5,288C 180.194,284.841 177.86,282.841 174.5,282C 179.702,279.785 179.702,278.618 174.5,278.5C 175.025,277.808 175.692,277.308 176.5,277C 173.014,275.908 172.681,274.075 175.5,271.5C 172.048,265.552 167.714,260.385 162.5,256C 163.624,255.751 164.624,255.251 165.5,254.5C 162.061,250.64 158.395,246.973 154.5,243.5C 156.395,241.133 156.895,238.466 156,235.5C 153.333,232.833 150.667,230.167 148,227.5C 148.706,224.056 147.539,221.223 144.5,219C 145.258,215.775 145.591,212.609 145.5,209.5C 143.914,207.827 143.247,205.827 143.5,203.5C 142.325,203.719 141.325,203.386 140.5,202.5C 142.162,201.673 143.495,200.507 144.5,199C 143.357,196.575 142.024,194.408 140.5,192.5C 143.466,186.585 146.799,180.918 150.5,175.5C 151.5,174.167 152.5,174.167 153.5,175.5C 151.672,179.083 151.672,182.416 153.5,185.5C 152.034,189.03 151.034,192.697 150.5,196.5C 150.878,198.135 151.544,199.635 152.5,201C 152.601,205.319 152.267,209.653 151.5,214C 154.788,215.358 156.288,217.858 156,221.5C 157.419,222.46 158.919,223.293 160.5,224C 158.771,225.789 158.104,227.956 158.5,230.5C 159.93,230.421 161.264,230.754 162.5,231.5C 163.664,234.495 164.83,237.495 166,240.5C 168.445,241.977 170.612,243.81 172.5,246C 170.503,247.153 170.17,248.653 171.5,250.5C 172.167,249.5 172.833,248.5 173.5,247.5C 175.187,251.063 176.854,254.563 178.5,258C 178.043,258.414 177.709,258.914 177.5,259.5C 179.022,262.64 179.855,265.973 180,269.5C 181.135,269.727 182.302,270.06 183.5,270.5C 182.833,271.833 182.167,273.167 181.5,274.5C 184.195,278.619 186.529,282.953 188.5,287.5C 187.754,288.736 187.421,290.07 187.5,291.5C 191.161,291.35 192.161,292.85 190.5,296C 191.094,296.464 191.761,296.631 192.5,296.5 Z"/></g>
<g><path style="opacity:0.004" fill="#fcfdfc" d="M 123.5,182.5 C 122.833,181.167 122.833,181.167 123.5,182.5 Z"/></g>
<g><path style="opacity:1" fill="#a89fa0" d="M 149.5,162.5 C 150.461,164.265 150.795,166.265 150.5,168.5C 152.143,168.48 153.476,169.147 154.5,170.5C 160.74,166.283 164.406,168.116 165.5,176C 164.206,180.802 162.873,185.636 161.5,190.5C 162.795,196.408 164.128,202.241 165.5,208C 164.027,208.71 163.36,209.876 163.5,211.5C 164.675,211.281 165.675,211.614 166.5,212.5C 169.329,217.767 170.996,223.434 171.5,229.5C 173.988,230.025 176.321,230.858 178.5,232C 177.773,234.124 177.106,236.291 176.5,238.5C 177.651,239.731 178.817,239.731 180,238.5C 180.333,239.167 180.667,239.833 181,240.5C 181.333,238.833 181.667,237.167 182,235.5C 182.278,236.416 182.778,237.082 183.5,237.5C 182.817,245.1 184.484,252.1 188.5,258.5C 187.065,259.985 187.232,261.318 189,262.5C 189.497,264.81 189.663,267.143 189.5,269.5C 190.675,269.281 191.675,269.614 192.5,270.5C 191.042,273.205 191.375,275.705 193.5,278C 191.093,281.776 191.093,285.609 193.5,289.5C 192.777,291.782 192.443,294.116 192.5,296.5C 191.761,296.631 191.094,296.464 190.5,296C 192.161,292.85 191.161,291.35 187.5,291.5C 187.421,290.07 187.754,288.736 188.5,287.5C 186.529,282.953 184.195,278.619 181.5,274.5C 182.167,273.167 182.833,271.833 183.5,270.5C 182.302,270.06 181.135,269.727 180,269.5C 179.855,265.973 179.022,262.64 177.5,259.5C 177.709,258.914 178.043,258.414 178.5,258C 176.854,254.563 175.187,251.063 173.5,247.5C 172.833,248.5 172.167,249.5 171.5,250.5C 170.17,248.653 170.503,247.153 172.5,246C 170.612,243.81 168.445,241.977 166,240.5C 164.83,237.495 163.664,234.495 162.5,231.5C 161.264,230.754 159.93,230.421 158.5,230.5C 158.104,227.956 158.771,225.789 160.5,224C 158.919,223.293 157.419,222.46 156,221.5C 156.288,217.858 154.788,215.358 151.5,214C 152.267,209.653 152.601,205.319 152.5,201C 151.544,199.635 150.878,198.135 150.5,196.5C 151.034,192.697 152.034,189.03 153.5,185.5C 151.672,182.416 151.672,179.083 153.5,175.5C 152.5,174.167 151.5,174.167 150.5,175.5C 146.799,180.918 143.466,186.585 140.5,192.5C 139.974,196.415 138.308,199.748 135.5,202.5C 129.018,197.167 129.351,192.001 136.5,187C 135.692,186.692 135.025,186.192 134.5,185.5C 135.653,184.313 135.653,183.313 134.5,182.5C 137.993,174.678 142.993,168.011 149.5,162.5 Z"/></g>
<g><path style="opacity:1" fill="#c2c1c1" d="M 425.5,114.5 C 423.823,117.363 421.49,119.196 418.5,120C 419.673,116.89 419.173,116.723 417,119.5C 414.587,124.87 412.42,130.37 410.5,136C 410.862,137.434 411.528,138.601 412.5,139.5C 411.167,139.5 409.833,139.5 408.5,139.5C 409.447,162.145 409.78,184.811 409.5,207.5C 409.5,219.833 409.5,232.167 409.5,244.5C 409.283,248.978 407.95,252.978 405.5,256.5C 405.631,255.624 405.298,254.957 404.5,254.5C 402.736,256.479 400.736,256.812 398.5,255.5C 399.903,253.269 401.07,250.936 402,248.5C 402.333,210.5 402.667,172.5 403,134.5C 404.182,131.445 405.516,128.445 407,125.5C 411.669,121.663 416.169,117.663 420.5,113.5C 422.474,110.23 424.474,106.897 426.5,103.5C 429.428,90.1519 432.095,76.8186 434.5,63.5C 434.76,61.3825 435.76,59.7158 437.5,58.5C 438.881,58.9996 439.547,59.9996 439.5,61.5C 437.343,72.1094 435.51,82.7761 434,93.5C 432.804,101.216 429.971,108.216 425.5,114.5 Z"/></g>
<g><path style="opacity:1" fill="#9b9293" d="M 134.5,182.5 C 135.653,183.313 135.653,184.313 134.5,185.5C 135.025,186.192 135.692,186.692 136.5,187C 129.351,192.001 129.018,197.167 135.5,202.5C 138.308,199.748 139.974,196.415 140.5,192.5C 142.024,194.408 143.357,196.575 144.5,199C 143.495,200.507 142.162,201.673 140.5,202.5C 141.325,203.386 142.325,203.719 143.5,203.5C 143.247,205.827 143.914,207.827 145.5,209.5C 145.591,212.609 145.258,215.775 144.5,219C 147.539,221.223 148.706,224.056 148,227.5C 150.667,230.167 153.333,232.833 156,235.5C 156.895,238.466 156.395,241.133 154.5,243.5C 158.395,246.973 162.061,250.64 165.5,254.5C 164.624,255.251 163.624,255.751 162.5,256C 167.714,260.385 172.048,265.552 175.5,271.5C 172.681,274.075 173.014,275.908 176.5,277C 175.692,277.308 175.025,277.808 174.5,278.5C 179.702,278.618 179.702,279.785 174.5,282C 177.86,282.841 180.194,284.841 181.5,288C 179.645,290.579 178.312,293.412 177.5,296.5C 174.408,295.505 173.741,293.505 175.5,290.5C 173.696,289.232 171.696,288.565 169.5,288.5C 169.5,286.167 169.5,283.833 169.5,281.5C 171.346,281.778 172.68,281.111 173.5,279.5C 172.055,277.937 170.389,276.604 168.5,275.5C 166.985,273.453 166.151,271.119 166,268.5C 165.333,269.833 164.667,269.833 164,268.5C 162.277,264.743 160.444,261.076 158.5,257.5C 157.328,257.081 156.328,256.415 155.5,255.5C 153.82,251.648 151.82,247.981 149.5,244.5C 150.309,242.929 150.643,241.262 150.5,239.5C 149.127,239.657 147.793,239.49 146.5,239C 145.692,236.912 144.692,234.912 143.5,233C 144.591,230.936 144.758,228.769 144,226.5C 142.092,223.785 140.759,220.785 140,217.5C 137.195,216.527 136.695,214.86 138.5,212.5C 138.14,210.392 137.473,208.392 136.5,206.5C 134.209,207.896 133.875,209.729 135.5,212C 133.107,216.512 131.94,221.345 132,226.5C 131.667,226.833 131.333,227.167 131,227.5C 128.565,224.816 126.231,222.15 124,219.5C 123.501,225.491 123.334,231.491 123.5,237.5C 123.167,237.5 122.833,237.5 122.5,237.5C 122.302,229.466 122.635,221.466 123.5,213.5C 125.008,202.303 128.675,191.97 134.5,182.5 Z"/></g>
<g><path style="opacity:1" fill="#a7a0a3" d="M 460.5,196.5 C 459.883,196.389 459.383,196.056 459,195.5C 458.504,197.035 458.67,198.535 459.5,200C 457.178,203.485 456.012,202.985 456,198.5C 454.933,199.191 453.766,199.691 452.5,200C 453.308,200.308 453.975,200.808 454.5,201.5C 452.995,202.842 452.328,204.508 452.5,206.5C 451.167,206.5 449.833,206.5 448.5,206.5C 448.5,207.5 448.5,208.5 448.5,209.5C 449.873,209.343 451.207,209.51 452.5,210C 445.143,212.582 443.143,217.415 446.5,224.5C 444.955,225.452 443.288,225.785 441.5,225.5C 441.813,228.247 441.48,230.914 440.5,233.5C 440.167,232.833 439.833,232.167 439.5,231.5C 437.884,235.751 435.55,239.417 432.5,242.5C 431.995,246.544 431.329,250.544 430.5,254.5C 431.167,255.5 431.833,256.5 432.5,257.5C 430.833,258.167 429.167,258.833 427.5,259.5C 430.251,260.5 432.918,261.667 435.5,263C 433.2,265.005 433.2,267.172 435.5,269.5C 434.5,270.333 433.5,271.167 432.5,272C 433.5,273 434.5,274 435.5,275C 440.352,274.534 440.519,275.367 436,277.5C 435.51,278.793 435.343,280.127 435.5,281.5C 437.429,281.231 439.095,281.731 440.5,283C 437.965,283.928 436.965,285.762 437.5,288.5C 439.792,288.244 441.959,288.577 444,289.5C 445.84,287.83 447.674,286.163 449.5,284.5C 450.518,285.193 451.518,285.859 452.5,286.5C 450.552,289.508 448.219,292.341 445.5,295C 438.772,300.577 431.438,305.077 423.5,308.5C 418.039,307.45 412.706,307.616 407.5,309C 393.701,309.141 380.201,309.307 367,309.5C 366.5,309 366,308.5 365.5,308C 366.662,307.173 367.829,306.34 369,305.5C 370.15,306.424 371.15,306.424 372,305.5C 372.333,303.5 372.667,301.5 373,299.5C 373.452,302.149 374.286,304.649 375.5,307C 377.076,306.848 378.409,306.015 379.5,304.5C 380.62,305.833 381.953,306.333 383.5,306C 386.375,301.625 389.042,297.125 391.5,292.5C 392.738,296.311 393.404,296.311 393.5,292.5C 395.857,292.663 398.19,292.497 400.5,292C 399.253,290.542 399.253,289.042 400.5,287.5C 396.787,285.663 396.787,284.163 400.5,283C 394.282,282.57 393.949,281.07 399.5,278.5C 397.74,275.788 397.073,272.788 397.5,269.5C 399.5,269.5 401.5,269.5 403.5,269.5C 403.5,268.5 403.5,267.5 403.5,266.5C 397.223,266.055 390.89,265.888 384.5,266C 383.5,265.667 382.5,265.333 381.5,265C 380.262,264.31 380.262,263.81 381.5,263.5C 391.167,266.307 399.167,263.973 405.5,256.5C 407.95,252.978 409.283,248.978 409.5,244.5C 410.695,244.134 411.361,243.301 411.5,242C 410.873,238.901 410.873,235.734 411.5,232.5C 413.833,232.5 416.167,232.5 418.5,232.5C 418.73,229.306 418.064,226.306 416.5,223.5C 417.547,221.944 418.214,220.277 418.5,218.5C 421.167,218.167 423.833,217.833 426.5,217.5C 426.5,216.5 426.5,215.5 426.5,214.5C 427.822,214.67 428.989,214.337 430,213.5C 431.162,211.176 432.329,208.842 433.5,206.5C 434.363,208.771 434.363,211.105 433.5,213.5C 434.833,213.5 436.167,213.5 437.5,213.5C 437.5,212.5 437.5,211.5 437.5,210.5C 438.833,210.5 440.167,210.5 441.5,210.5C 441.5,208.167 441.5,205.833 441.5,203.5C 442.5,203.5 443.5,203.5 444.5,203.5C 444.238,202.022 444.571,200.689 445.5,199.5C 446.833,199.167 448.167,198.833 449.5,198.5C 450.489,194.893 450.823,191.226 450.5,187.5C 452.936,187.683 455.103,187.016 457,185.5C 457.115,189.618 458.282,193.285 460.5,196.5 Z"/></g>
<g><path style="opacity:1" fill="#a1999b" d="M 460.5,196.5 C 460.926,199.21 462.093,201.544 464,203.5C 465.24,200.588 466.906,197.921 469,195.5C 469.377,196.942 470.21,197.942 471.5,198.5C 479.983,227.892 475.65,255.226 458.5,280.5C 456.861,282.806 454.861,284.806 452.5,286.5C 451.518,285.859 450.518,285.193 449.5,284.5C 447.674,286.163 445.84,287.83 444,289.5C 441.959,288.577 439.792,288.244 437.5,288.5C 436.965,285.762 437.965,283.928 440.5,283C 439.095,281.731 437.429,281.231 435.5,281.5C 435.343,280.127 435.51,278.793 436,277.5C 440.519,275.367 440.352,274.534 435.5,275C 434.5,274 433.5,273 432.5,272C 433.5,271.167 434.5,270.333 435.5,269.5C 433.2,267.172 433.2,265.005 435.5,263C 432.918,261.667 430.251,260.5 427.5,259.5C 429.167,258.833 430.833,258.167 432.5,257.5C 431.833,256.5 431.167,255.5 430.5,254.5C 431.329,250.544 431.995,246.544 432.5,242.5C 435.55,239.417 437.884,235.751 439.5,231.5C 439.833,232.167 440.167,232.833 440.5,233.5C 441.48,230.914 441.813,228.247 441.5,225.5C 443.288,225.785 444.955,225.452 446.5,224.5C 443.143,217.415 445.143,212.582 452.5,210C 451.207,209.51 449.873,209.343 448.5,209.5C 448.5,208.5 448.5,207.5 448.5,206.5C 449.833,206.5 451.167,206.5 452.5,206.5C 452.328,204.508 452.995,202.842 454.5,201.5C 453.975,200.808 453.308,200.308 452.5,200C 453.766,199.691 454.933,199.191 456,198.5C 456.012,202.985 457.178,203.485 459.5,200C 458.67,198.535 458.504,197.035 459,195.5C 459.383,196.056 459.883,196.389 460.5,196.5 Z"/></g>
<g><path style="opacity:1" fill="#b9b3b5" d="M 123.5,213.5 C 122.635,221.466 122.302,229.466 122.5,237.5C 120.61,237.703 119.11,237.037 118,235.5C 117.333,229.5 117.333,223.5 118,217.5C 119.774,216.035 121.608,214.702 123.5,213.5 Z"/></g>
<g><path style="opacity:1" fill="#8a8283" d="M 170.5,306.5 C 146.009,293.192 131.009,272.859 125.5,245.5C 125.369,244.761 125.536,244.094 126,243.5C 126.44,245.076 127.273,246.41 128.5,247.5C 127.266,249.398 127.599,251.065 129.5,252.5C 130.672,252.081 131.672,251.415 132.5,250.5C 130.391,248.38 129.724,246.046 130.5,243.5C 131.5,244.833 132.5,246.167 133.5,247.5C 133.833,246.833 134.167,246.167 134.5,245.5C 133.256,239.836 133.256,234.169 134.5,228.5C 135.478,228.977 136.311,229.643 137,230.5C 137.249,233.177 138.249,235.51 140,237.5C 140.497,239.81 140.663,242.143 140.5,244.5C 145.322,244.561 145.655,245.727 141.5,248C 142.5,248.333 143.5,248.667 144.5,249C 143.663,250.011 143.33,251.178 143.5,252.5C 144.833,252.5 146.167,252.5 147.5,252.5C 147.595,255.358 148.762,257.691 151,259.5C 151.339,265.277 153.839,269.944 158.5,273.5C 159.298,275.078 159.798,276.744 160,278.5C 163.462,278.983 163.962,280.15 161.5,282C 162.253,283.487 163.086,283.654 164,282.5C 165.498,284.984 166.998,287.484 168.5,290C 168.355,290.772 168.022,291.439 167.5,292C 168.833,294.333 170.167,296.667 171.5,299C 170.929,300.205 170.262,301.372 169.5,302.5C 169.331,301.603 168.998,300.603 168.5,299.5C 167.713,300.242 167.047,301.075 166.5,302C 168.5,303.333 170.5,304.667 172.5,306C 171.906,306.464 171.239,306.631 170.5,306.5 Z"/></g>
<g><path style="opacity:0.997" fill="#cecbcc" d="M 425.5,114.5 C 425.649,115.552 425.483,116.552 425,117.5C 421.478,120.266 418.145,123.266 415,126.5C 414.517,127.448 414.351,128.448 414.5,129.5C 441.327,137.858 461.327,154.192 474.5,178.5C 477.284,186.09 480.117,193.756 483,201.5C 485.441,214.722 486.108,228.055 485,241.5C 483.533,249.728 481.366,257.728 478.5,265.5C 479.072,267.223 479.072,268.723 478.5,270C 471.174,283.156 461.841,294.656 450.5,304.5C 454.265,299.559 458.265,294.726 462.5,290C 463.175,286.981 463.175,283.814 462.5,280.5C 461.914,280.291 461.414,279.957 461,279.5C 460.751,280.624 460.251,281.624 459.5,282.5C 458.702,282.043 458.369,281.376 458.5,280.5C 475.65,255.226 479.983,227.892 471.5,198.5C 467.476,186.113 461.143,175.113 452.5,165.5C 441.547,153.222 428.214,144.555 412.5,139.5C 411.528,138.601 410.862,137.434 410.5,136C 412.42,130.37 414.587,124.87 417,119.5C 419.173,116.723 419.673,116.89 418.5,120C 421.49,119.196 423.823,117.363 425.5,114.5 Z"/></g>
<g><path style="opacity:1" fill="#191919" d="M 202.5,242.5 C 204.048,242.821 204.715,243.821 204.5,245.5C 201.752,245.598 201.086,244.598 202.5,242.5 Z"/></g>
<g><path style="opacity:1" fill="#2b2b2b" d="M 388.5,242.5 C 391.861,243.203 392.194,244.537 389.5,246.5C 387.358,245.563 387.024,244.23 388.5,242.5 Z"/></g>
<g><path style="opacity:1" fill="#b3aeb0" d="M 332.5,297.5 C 332.37,302.66 330.036,304.66 325.5,303.5C 325.762,302.022 325.429,300.689 324.5,299.5C 324.251,300.582 324.085,301.915 324,303.5C 323.586,303.957 323.086,304.291 322.5,304.5C 311.282,304.471 300.449,304.471 290,304.5C 288.72,304.613 287.887,305.28 287.5,306.5C 278.014,307.363 268.514,308.03 259,308.5C 250.848,307.773 242.848,307.773 235,308.5C 234.5,308.333 234,308.167 233.5,308C 234.833,306.16 234.666,305.66 233,306.5C 230.581,304.415 227.747,303.415 224.5,303.5C 224.404,299.689 223.738,299.689 222.5,303.5C 221.667,301.5 220.833,299.5 220,297.5C 218.266,296.751 216.433,296.251 214.5,296C 213.663,294.989 213.33,293.822 213.5,292.5C 211.167,292.5 208.833,292.5 206.5,292.5C 206.783,287.246 205.783,282.246 203.5,277.5C 201.792,275.309 199.792,274.976 197.5,276.5C 193.017,275.6 192.683,274.267 196.5,272.5C 196.062,271.494 195.396,271.494 194.5,272.5C 193.881,269.968 192.881,267.635 191.5,265.5C 193.957,265.083 196.29,264.749 198.5,264.5C 201.5,264.5 204.5,264.5 207.5,264.5C 208.873,264.343 210.207,264.51 211.5,265C 208.937,265.763 208.937,266.263 211.5,266.5C 213.06,265.393 214.56,265.393 216,266.5C 217.946,264.038 220.446,262.704 223.5,262.5C 223.337,260.143 223.503,257.81 224,255.5C 224.195,260.418 224.695,265.251 225.5,270C 232.826,270.5 240.159,270.666 247.5,270.5C 247.5,275.167 247.5,279.833 247.5,284.5C 248.5,284.5 249.5,284.5 250.5,284.5C 248.833,291.5 251.5,294.167 258.5,292.5C 258.5,291.167 258.5,289.833 258.5,288.5C 260.833,288.5 263.167,288.5 265.5,288.5C 265.5,289.833 265.5,291.167 265.5,292.5C 267.5,292.5 269.5,292.5 271.5,292.5C 272.167,289.833 272.833,287.167 273.5,284.5C 276.167,284.5 278.833,284.5 281.5,284.5C 281.739,282.533 281.406,280.699 280.5,279C 278.235,277.882 275.901,277.049 273.5,276.5C 273.5,274.167 273.5,271.833 273.5,269.5C 272.167,269.5 270.833,269.5 269.5,269.5C 269.5,264.833 269.5,260.167 269.5,255.5C 270.833,255.5 272.167,255.5 273.5,255.5C 273.5,257.833 273.5,260.167 273.5,262.5C 276.167,262.5 278.833,262.5 281.5,262.5C 281.5,259.833 281.5,257.167 281.5,254.5C 278.833,254.5 276.167,254.5 273.5,254.5C 273.5,253.167 273.5,251.833 273.5,250.5C 269.867,250.557 269.7,249.557 273,247.5C 277.506,249.979 282.173,249.979 287,247.5C 289.731,248.617 292.565,249.283 295.5,249.5C 295.657,250.873 295.49,252.207 295,253.5C 293.053,254.11 291.219,254.943 289.5,256C 292.934,256.246 296.267,255.746 299.5,254.5C 299.5,255.833 299.5,257.167 299.5,258.5C 300.5,258.5 301.5,258.5 302.5,258.5C 302.33,257.178 302.663,256.011 303.5,255C 305.81,254.503 308.143,254.337 310.5,254.5C 311.568,255.434 312.901,255.768 314.5,255.5C 314.5,257.167 314.5,258.833 314.5,260.5C 316.833,260.5 319.167,260.5 321.5,260.5C 321.613,257.951 320.946,255.618 319.5,253.5C 320,253.167 320.5,252.833 321,252.5C 322.3,253.707 323.8,254.374 325.5,254.5C 327.132,249.638 328.298,244.638 329,239.5C 330.911,244.28 332.078,249.28 332.5,254.5C 331.5,254.5 330.5,254.5 329.5,254.5C 329.5,261.833 329.5,269.167 329.5,276.5C 328.167,276.5 326.833,276.5 325.5,276.5C 325.5,280.5 325.5,284.5 325.5,288.5C 327.833,288.5 330.167,288.5 332.5,288.5C 332.244,290.912 333.244,292.579 335.5,293.5C 334.476,294.852 333.476,296.185 332.5,297.5 Z"/></g>
<g><path style="opacity:1" fill="#928a8c" d="M 177.5,296.5 C 178.967,295.708 180.3,295.708 181.5,296.5C 180.975,297.192 180.308,297.692 179.5,298C 184.464,299.758 186.464,303.258 185.5,308.5C 183.282,308.614 181.282,309.28 179.5,310.5C 176.088,309.925 173.088,308.592 170.5,306.5C 171.239,306.631 171.906,306.464 172.5,306C 170.5,304.667 168.5,303.333 166.5,302C 167.047,301.075 167.713,300.242 168.5,299.5C 168.998,300.603 169.331,301.603 169.5,302.5C 170.262,301.372 170.929,300.205 171.5,299C 170.167,296.667 168.833,294.333 167.5,292C 168.022,291.439 168.355,290.772 168.5,290C 166.998,287.484 165.498,284.984 164,282.5C 163.086,283.654 162.253,283.487 161.5,282C 163.962,280.15 163.462,278.983 160,278.5C 159.798,276.744 159.298,275.078 158.5,273.5C 153.839,269.944 151.339,265.277 151,259.5C 148.762,257.691 147.595,255.358 147.5,252.5C 146.167,252.5 144.833,252.5 143.5,252.5C 143.33,251.178 143.663,250.011 144.5,249C 143.5,248.667 142.5,248.333 141.5,248C 145.655,245.727 145.322,244.561 140.5,244.5C 140.663,242.143 140.497,239.81 140,237.5C 138.249,235.51 137.249,233.177 137,230.5C 136.311,229.643 135.478,228.977 134.5,228.5C 133.256,234.169 133.256,239.836 134.5,245.5C 134.167,246.167 133.833,246.833 133.5,247.5C 132.5,246.167 131.5,244.833 130.5,243.5C 129.724,246.046 130.391,248.38 132.5,250.5C 131.672,251.415 130.672,252.081 129.5,252.5C 127.599,251.065 127.266,249.398 128.5,247.5C 127.273,246.41 126.44,245.076 126,243.5C 125.536,244.094 125.369,244.761 125.5,245.5C 124.745,242.947 124.078,240.28 123.5,237.5C 123.334,231.491 123.501,225.491 124,219.5C 126.231,222.15 128.565,224.816 131,227.5C 131.333,227.167 131.667,226.833 132,226.5C 131.94,221.345 133.107,216.512 135.5,212C 133.875,209.729 134.209,207.896 136.5,206.5C 137.473,208.392 138.14,210.392 138.5,212.5C 136.695,214.86 137.195,216.527 140,217.5C 140.759,220.785 142.092,223.785 144,226.5C 144.758,228.769 144.591,230.936 143.5,233C 144.692,234.912 145.692,236.912 146.5,239C 147.793,239.49 149.127,239.657 150.5,239.5C 150.643,241.262 150.309,242.929 149.5,244.5C 151.82,247.981 153.82,251.648 155.5,255.5C 156.328,256.415 157.328,257.081 158.5,257.5C 160.444,261.076 162.277,264.743 164,268.5C 164.667,269.833 165.333,269.833 166,268.5C 166.151,271.119 166.985,273.453 168.5,275.5C 170.389,276.604 172.055,277.937 173.5,279.5C 172.68,281.111 171.346,281.778 169.5,281.5C 169.5,283.833 169.5,286.167 169.5,288.5C 171.696,288.565 173.696,289.232 175.5,290.5C 173.741,293.505 174.408,295.505 177.5,296.5 Z"/></g>
<g><path style="opacity:0.175" fill="#ebebeb" d="M 474.5,178.5 C 486.822,200.382 490.322,223.716 485,248.5C 483.691,254.607 481.525,260.274 478.5,265.5C 481.366,257.728 483.533,249.728 485,241.5C 486.108,228.055 485.441,214.722 483,201.5C 480.117,193.756 477.284,186.09 474.5,178.5 Z"/></g>
<g><path style="opacity:0.067" fill="#f0f0f0" d="M 113.5,225.5 C 114.998,235.476 116.498,245.476 118,255.5C 121.186,263.199 124.352,270.865 127.5,278.5C 127.565,278.938 127.399,279.272 127,279.5C 126.232,276.489 124.732,273.989 122.5,272C 122.5,271 122.5,270 122.5,269C 120.699,268.683 120.366,268.016 121.5,267C 117.91,260.749 115.91,254.249 115.5,247.5C 113.703,244.292 112.703,241.126 112.5,238C 113.167,237.333 113.833,236.667 114.5,236C 113.28,234.475 112.613,232.641 112.5,230.5C 112.507,228.631 112.84,226.964 113.5,225.5 Z"/></g>
<g><path style="opacity:1" fill="#aaa7aa" d="M 188.5,258.5 C 191.502,261.003 194.835,263.003 198.5,264.5C 196.29,264.749 193.957,265.083 191.5,265.5C 192.881,267.635 193.881,269.968 194.5,272.5C 195.396,271.494 196.062,271.494 196.5,272.5C 192.683,274.267 193.017,275.6 197.5,276.5C 199.792,274.976 201.792,275.309 203.5,277.5C 205.783,282.246 206.783,287.246 206.5,292.5C 208.833,292.5 211.167,292.5 213.5,292.5C 213.33,293.822 213.663,294.989 214.5,296C 216.433,296.251 218.266,296.751 220,297.5C 220.833,299.5 221.667,301.5 222.5,303.5C 223.738,299.689 224.404,299.689 224.5,303.5C 227.747,303.415 230.581,304.415 233,306.5C 234.666,305.66 234.833,306.16 233.5,308C 234,308.167 234.5,308.333 235,308.5C 242.848,307.773 250.848,307.773 259,308.5C 268.514,308.03 278.014,307.363 287.5,306.5C 287.887,305.28 288.72,304.613 290,304.5C 300.449,304.471 311.282,304.471 322.5,304.5C 323.086,304.291 323.586,303.957 324,303.5C 324.085,301.915 324.251,300.582 324.5,299.5C 325.429,300.689 325.762,302.022 325.5,303.5C 330.036,304.66 332.37,302.66 332.5,297.5C 334.8,299.202 337.467,299.868 340.5,299.5C 340.5,297.167 340.5,294.833 340.5,292.5C 343.167,292.5 345.833,292.5 348.5,292.5C 348.5,286.167 348.5,279.833 348.5,273.5C 347.5,273.5 346.5,273.5 345.5,273.5C 345.5,272.5 345.5,271.5 345.5,270.5C 347.5,270.5 349.5,270.5 351.5,270.5C 351.5,271.5 351.5,272.5 351.5,273.5C 352.833,273.5 354.167,273.5 355.5,273.5C 355.5,274.5 355.5,275.5 355.5,276.5C 358.649,276.789 361.649,276.289 364.5,275C 360.551,274.193 360.551,273.693 364.5,273.5C 364.343,272.127 364.51,270.793 365,269.5C 366.714,270.925 368.047,270.592 369,268.5C 370.814,269.76 372.647,269.76 374.5,268.5C 375.48,267.019 376.647,265.685 378,264.5C 377.891,263.231 378.058,262.231 378.5,261.5C 379.71,261.932 380.71,262.599 381.5,263.5C 380.262,263.81 380.262,264.31 381.5,265C 382.5,265.333 383.5,265.667 384.5,266C 390.89,265.888 397.223,266.055 403.5,266.5C 403.5,267.5 403.5,268.5 403.5,269.5C 401.5,269.5 399.5,269.5 397.5,269.5C 397.073,272.788 397.74,275.788 399.5,278.5C 393.949,281.07 394.282,282.57 400.5,283C 396.787,284.163 396.787,285.663 400.5,287.5C 399.253,289.042 399.253,290.542 400.5,292C 398.19,292.497 395.857,292.663 393.5,292.5C 393.404,296.311 392.738,296.311 391.5,292.5C 389.042,297.125 386.375,301.625 383.5,306C 381.953,306.333 380.62,305.833 379.5,304.5C 378.409,306.015 377.076,306.848 375.5,307C 374.286,304.649 373.452,302.149 373,299.5C 372.667,301.5 372.333,303.5 372,305.5C 371.15,306.424 370.15,306.424 369,305.5C 367.829,306.34 366.662,307.173 365.5,308C 366,308.5 366.5,309 367,309.5C 380.201,309.307 393.701,309.141 407.5,309C 412.706,307.616 418.039,307.45 423.5,308.5C 421.458,310.83 418.792,311.996 415.5,312C 346.167,312.5 276.834,312.667 207.5,312.5C 204.437,311.799 201.27,311.132 198,310.5C 197.568,309.4 198.068,308.733 199.5,308.5C 201.155,309.228 202.821,309.395 204.5,309C 201.71,306.522 198.544,304.688 195,303.5C 194.621,300.97 193.787,298.637 192.5,296.5C 192.443,294.116 192.777,291.782 193.5,289.5C 191.093,285.609 191.093,281.776 193.5,278C 191.375,275.705 191.042,273.205 192.5,270.5C 191.675,269.614 190.675,269.281 189.5,269.5C 189.663,267.143 189.497,264.81 189,262.5C 187.232,261.318 187.065,259.985 188.5,258.5 Z"/></g>
<g><path style="opacity:0.205" fill="#f1efef" d="M 128.5,279.5 C 134.913,287.282 141.58,294.948 148.5,302.5C 152.884,305.225 156.55,308.558 159.5,312.5C 158.952,315.084 157.285,316.084 154.5,315.5C 143.992,314.833 133.326,314.167 122.5,313.5C 122.624,312.893 122.957,312.56 123.5,312.5C 134.654,313.495 145.988,313.828 157.5,313.5C 157.719,312.325 157.386,311.325 156.5,310.5C 145.425,302.927 136.259,293.593 129,282.5C 128.517,281.552 128.351,280.552 128.5,279.5 Z"/></g>
<g><path style="opacity:1" fill="#c7c1c2" d="M 450.5,304.5 C 447.146,307.188 444.146,310.188 441.5,313.5C 437.833,313.5 434.167,313.5 430.5,313.5C 347.998,313.833 265.665,313.499 183.5,312.5C 191.5,312.5 199.5,312.5 207.5,312.5C 276.834,312.667 346.167,312.5 415.5,312C 418.792,311.996 421.458,310.83 423.5,308.5C 431.438,305.077 438.772,300.577 445.5,295C 448.219,292.341 450.552,289.508 452.5,286.5C 454.861,284.806 456.861,282.806 458.5,280.5C 458.369,281.376 458.702,282.043 459.5,282.5C 460.251,281.624 460.751,280.624 461,279.5C 461.414,279.957 461.914,280.291 462.5,280.5C 463.175,283.814 463.175,286.981 462.5,290C 458.265,294.726 454.265,299.559 450.5,304.5 Z"/></g>
<g><path style="opacity:1" fill="#dbbfbe" d="M 159.5,312.5 C 166.797,313.506 174.131,313.506 181.5,312.5C 182.167,312.5 182.833,312.5 183.5,312.5C 265.665,313.499 347.998,313.833 430.5,313.5C 428.031,314.317 425.365,314.817 422.5,315C 423.833,315.333 425.167,315.667 426.5,316C 423.833,316.667 423.833,317.333 426.5,318C 322.167,318.5 217.834,318.667 113.5,318.5C 121.485,316.8 129.818,315.8 138.5,315.5C 143.738,315.738 149.071,315.738 154.5,315.5C 157.285,316.084 158.952,315.084 159.5,312.5 Z"/></g>
<g><path style="opacity:1" fill="#cab4b4" d="M 487.5,319.5 C 486.983,317.49 486.316,316.157 485.5,315.5C 473.406,314.466 461.406,314.966 449.5,317C 452.513,317.502 455.513,318.002 458.5,318.5C 453.695,319.487 448.695,319.821 443.5,319.5C 333.332,319.833 223.332,319.499 113.5,318.5C 217.834,318.667 322.167,318.5 426.5,318C 423.833,317.333 423.833,316.667 426.5,316C 425.167,315.667 423.833,315.333 422.5,315C 425.365,314.817 428.031,314.317 430.5,313.5C 434.167,313.5 437.833,313.5 441.5,313.5C 452.833,313.5 464.167,313.5 475.5,313.5C 475.5,312.5 475.5,311.5 475.5,310.5C 477.288,310.215 478.955,310.548 480.5,311.5C 480.291,312.086 479.957,312.586 479.5,313C 482.146,313.497 484.813,313.664 487.5,313.5C 487.5,315.5 487.5,317.5 487.5,319.5 Z"/></g>
<g><path style="opacity:1" fill="#c5a19b" d="M 485.5,315.5 C 485.5,316.5 485.5,317.5 485.5,318.5C 476.5,318.5 467.5,318.5 458.5,318.5C 455.513,318.002 452.513,317.502 449.5,317C 461.406,314.966 473.406,314.466 485.5,315.5 Z"/></g>
<g><path style="opacity:1" fill="#cbc0c0" d="M 123.5,312.5 C 122.957,312.56 122.624,312.893 122.5,313.5C 133.326,314.167 143.992,314.833 154.5,315.5C 149.071,315.738 143.738,315.738 138.5,315.5C 129.818,315.8 121.485,316.8 113.5,318.5C 223.332,319.499 333.332,319.833 443.5,319.5C 443.5,319.833 443.5,320.167 443.5,320.5C 440.5,320.5 437.5,320.5 434.5,320.5C 432.833,320.5 431.167,320.5 429.5,320.5C 354.833,320.5 280.167,320.5 205.5,320.5C 174.833,320.5 144.167,320.5 113.5,320.5C 112.532,318.393 112.198,316.059 112.5,313.5C 115.984,313.672 118.984,312.672 121.5,310.5C 122.713,310.747 123.38,311.414 123.5,312.5 Z"/></g>
<g><path style="opacity:1" fill="#aa9898" d="M 487.5,319.5 C 487.5,319.833 487.5,320.167 487.5,320.5C 486.833,320.5 486.167,320.5 485.5,320.5C 481.833,320.5 478.167,320.5 474.5,320.5C 471.167,320.5 467.833,320.5 464.5,320.5C 457.5,320.5 450.5,320.5 443.5,320.5C 443.5,320.167 443.5,319.833 443.5,319.5C 448.695,319.821 453.695,319.487 458.5,318.5C 467.5,318.5 476.5,318.5 485.5,318.5C 485.5,317.5 485.5,316.5 485.5,315.5C 486.316,316.157 486.983,317.49 487.5,319.5 Z"/></g>
<g><path style="opacity:1" fill="#d5d5d5" d="M 205.5,320.5 C 280.167,320.5 354.833,320.5 429.5,320.5C 418.828,321.393 408.161,322.726 397.5,324.5C 396.5,392.163 396.167,459.83 396.5,527.5C 327.98,526.355 259.647,526.355 191.5,527.5C 191.5,528.5 191.5,529.5 191.5,530.5C 178.162,530.552 164.995,530.218 152,529.5C 147.895,530.347 143.728,531.013 139.5,531.5C 139.5,533.833 139.5,536.167 139.5,538.5C 140.5,538.5 141.5,538.5 142.5,538.5C 142.5,541.5 142.5,544.5 142.5,547.5C 132.184,543.349 124.184,536.515 118.5,527C 119.108,526.13 119.941,525.63 121,525.5C 122.844,526.578 124.844,527.245 127,527.5C 133.604,527.578 140.104,527.245 146.5,526.5C 146.5,525.5 146.5,524.5 146.5,523.5C 148.5,523.5 150.5,523.5 152.5,523.5C 153.694,524.777 155.36,525.444 157.5,525.5C 161.457,524.463 165.457,523.796 169.5,523.5C 171.833,523.5 174.167,523.5 176.5,523.5C 176.5,458.833 176.5,394.167 176.5,329.5C 174.167,329.5 171.833,329.5 169.5,329.5C 169.5,327.833 169.5,326.167 169.5,324.5C 174.167,324.5 178.833,324.5 183.5,324.5C 183.636,327.35 183.969,330.183 184.5,333C 183.487,336.599 182.82,340.266 182.5,344C 182.782,357.653 182.782,371.32 182.5,385C 182.762,387.547 183.262,390.047 184,392.5C 185.011,393.337 186.178,393.67 187.5,393.5C 187.335,390.482 187.502,387.482 188,384.5C 188.26,382.382 189.26,380.716 191,379.5C 191.698,374.97 191.031,370.637 189,366.5C 188.362,363.464 188.528,360.464 189.5,357.5C 188.408,354.956 187.741,352.289 187.5,349.5C 188.094,340.657 189.594,331.991 192,323.5C 196.588,322.447 201.088,321.447 205.5,320.5 Z"/></g>
<g><path style="opacity:1" fill="#cccbcb" d="M 434.5,320.5 C 437.5,320.5 440.5,320.5 443.5,320.5C 450.5,320.5 457.5,320.5 464.5,320.5C 458.721,321.896 452.721,322.729 446.5,323C 448.495,390.619 449.161,458.452 448.5,526.5C 446.512,526.173 444.512,525.84 442.5,525.5C 439.563,526.47 436.563,527.137 433.5,527.5C 433.5,528.5 433.5,529.5 433.5,530.5C 425.02,530.998 416.353,531.665 407.5,532.5C 407.5,534.167 407.5,535.833 407.5,537.5C 403.202,538.2 398.869,538.533 394.5,538.5C 394.5,540.5 394.5,542.5 394.5,544.5C 401.488,545.066 408.488,545.566 415.5,546C 408.321,546.171 401.321,546.671 394.5,547.5C 319.5,547.5 244.5,547.5 169.5,547.5C 171.279,545.656 173.612,544.99 176.5,545.5C 176.5,543.167 176.5,540.833 176.5,538.5C 174.167,538.5 171.833,538.5 169.5,538.5C 169.5,537.5 169.5,536.5 169.5,535.5C 167.076,535.808 164.743,535.474 162.5,534.5C 179.371,533.585 196.204,532.252 213,530.5C 272.826,531.642 332.659,531.808 392.5,531C 398.216,528.54 404.049,528.04 410,529.5C 410.839,528.376 412.006,527.709 413.5,527.5C 417.798,526.703 422.132,526.37 426.5,526.5C 426.5,458.5 426.5,390.5 426.5,322.5C 429.553,322.889 432.22,322.223 434.5,320.5 Z"/></g>
<g><path style="opacity:1" fill="#dcdcdd" d="M 113.5,320.5 C 144.167,320.5 174.833,320.5 205.5,320.5C 201.088,321.447 196.588,322.447 192,323.5C 189.594,331.991 188.094,340.657 187.5,349.5C 187.741,352.289 188.408,354.956 189.5,357.5C 188.528,360.464 188.362,363.464 189,366.5C 191.031,370.637 191.698,374.97 191,379.5C 189.26,380.716 188.26,382.382 188,384.5C 187.502,387.482 187.335,390.482 187.5,393.5C 186.178,393.67 185.011,393.337 184,392.5C 183.262,390.047 182.762,387.547 182.5,385C 182.782,371.32 182.782,357.653 182.5,344C 182.82,340.266 183.487,336.599 184.5,333C 183.969,330.183 183.636,327.35 183.5,324.5C 178.833,324.5 174.167,324.5 169.5,324.5C 169.5,326.167 169.5,327.833 169.5,329.5C 168.432,393.984 168.432,458.65 169.5,523.5C 165.457,523.796 161.457,524.463 157.5,525.5C 155.36,525.444 153.694,524.777 152.5,523.5C 155.393,522.477 158.226,522.477 161,523.5C 161.5,493.502 161.667,463.502 161.5,433.5C 159.167,433.5 156.833,433.5 154.5,433.5C 154.5,431.167 154.5,428.833 154.5,426.5C 156.833,426.5 159.167,426.5 161.5,426.5C 161.5,414.167 161.5,401.833 161.5,389.5C 159.167,389.5 156.833,389.5 154.5,389.5C 154.5,381.833 154.5,374.167 154.5,366.5C 151.833,366.5 149.167,366.5 146.5,366.5C 146.5,361.5 146.5,356.5 146.5,351.5C 149.167,351.5 151.833,351.5 154.5,351.5C 154.5,349.167 154.5,346.833 154.5,344.5C 156.833,344.5 159.167,344.5 161.5,344.5C 161.38,337.404 162.047,330.404 163.5,323.5C 155.514,322.901 147.514,322.568 139.5,322.5C 139.5,323.5 139.5,324.5 139.5,325.5C 140.5,325.5 141.5,325.5 142.5,325.5C 142.5,330.5 142.5,335.5 142.5,340.5C 141.5,340.5 140.5,340.5 139.5,340.5C 139.079,364.201 139.746,387.867 141.5,411.5C 140.829,418.848 140.163,426.181 139.5,433.5C 141.833,433.5 144.167,433.5 146.5,433.5C 146.5,436.167 146.5,438.833 146.5,441.5C 144.167,441.5 141.833,441.5 139.5,441.5C 139.5,446.5 139.5,451.5 139.5,456.5C 141.833,456.5 144.167,456.5 146.5,456.5C 146.5,478.833 146.5,501.167 146.5,523.5C 146.5,524.5 146.5,525.5 146.5,526.5C 140.104,527.245 133.604,527.578 127,527.5C 124.844,527.245 122.844,526.578 121,525.5C 119.941,525.63 119.108,526.13 118.5,527C 124.184,536.515 132.184,543.349 142.5,547.5C 151.5,547.5 160.5,547.5 169.5,547.5C 244.5,547.5 319.5,547.5 394.5,547.5C 406.833,547.5 419.167,547.5 431.5,547.5C 440.167,547.5 448.833,547.5 457.5,547.5C 459.691,546.709 461.691,546.709 463.5,547.5C 355.334,548.666 247.001,548.833 138.5,548C 129.015,543.344 121.681,536.511 116.5,527.5C 116.245,505.069 116.245,482.235 116.5,459C 116.333,458.167 116.167,457.333 116,456.5C 115.346,457.696 114.846,457.696 114.5,456.5C 115.654,436.543 115.821,416.543 115,396.5C 114.346,397.696 113.846,397.696 113.5,396.5C 114.651,380.878 114.817,365.211 114,349.5C 113.346,350.696 112.846,350.696 112.5,349.5C 113.474,339.887 113.808,330.22 113.5,320.5 Z"/></g>
<g><path style="opacity:1" fill="#dadadc" d="M 152.5,523.5 C 150.5,523.5 148.5,523.5 146.5,523.5C 146.5,501.167 146.5,478.833 146.5,456.5C 144.167,456.5 141.833,456.5 139.5,456.5C 139.5,451.5 139.5,446.5 139.5,441.5C 141.833,441.5 144.167,441.5 146.5,441.5C 146.5,438.833 146.5,436.167 146.5,433.5C 144.167,433.5 141.833,433.5 139.5,433.5C 140.163,426.181 140.829,418.848 141.5,411.5C 139.746,387.867 139.079,364.201 139.5,340.5C 140.5,340.5 141.5,340.5 142.5,340.5C 142.5,335.5 142.5,330.5 142.5,325.5C 141.5,325.5 140.5,325.5 139.5,325.5C 139.5,324.5 139.5,323.5 139.5,322.5C 147.514,322.568 155.514,322.901 163.5,323.5C 162.047,330.404 161.38,337.404 161.5,344.5C 159.167,344.5 156.833,344.5 154.5,344.5C 154.5,346.833 154.5,349.167 154.5,351.5C 151.833,351.5 149.167,351.5 146.5,351.5C 146.5,356.5 146.5,361.5 146.5,366.5C 149.167,366.5 151.833,366.5 154.5,366.5C 154.5,374.167 154.5,381.833 154.5,389.5C 156.833,389.5 159.167,389.5 161.5,389.5C 161.5,401.833 161.5,414.167 161.5,426.5C 159.167,426.5 156.833,426.5 154.5,426.5C 154.5,428.833 154.5,431.167 154.5,433.5C 156.833,433.5 159.167,433.5 161.5,433.5C 161.667,463.502 161.5,493.502 161,523.5C 158.226,522.477 155.393,522.477 152.5,523.5 Z"/></g>
<g><path style="opacity:1" fill="#d1d1d1" d="M 429.5,320.5 C 431.167,320.5 432.833,320.5 434.5,320.5C 432.22,322.223 429.553,322.889 426.5,322.5C 426.5,390.5 426.5,458.5 426.5,526.5C 422.132,526.37 417.798,526.703 413.5,527.5C 412.006,527.709 410.839,528.376 410,529.5C 404.049,528.04 398.216,528.54 392.5,531C 332.659,531.808 272.826,531.642 213,530.5C 196.204,532.252 179.371,533.585 162.5,534.5C 164.743,535.474 167.076,535.808 169.5,535.5C 169.5,536.5 169.5,537.5 169.5,538.5C 171.833,538.5 174.167,538.5 176.5,538.5C 176.5,540.833 176.5,543.167 176.5,545.5C 173.612,544.99 171.279,545.656 169.5,547.5C 160.5,547.5 151.5,547.5 142.5,547.5C 142.5,544.5 142.5,541.5 142.5,538.5C 141.5,538.5 140.5,538.5 139.5,538.5C 139.5,536.167 139.5,533.833 139.5,531.5C 143.728,531.013 147.895,530.347 152,529.5C 164.995,530.218 178.162,530.552 191.5,530.5C 191.5,529.5 191.5,528.5 191.5,527.5C 259.647,526.355 327.98,526.355 396.5,527.5C 396.167,459.83 396.5,392.163 397.5,324.5C 408.161,322.726 418.828,321.393 429.5,320.5 Z"/></g>
<g><path style="opacity:1" fill="#c5c5c5" d="M 464.5,320.5 C 467.833,320.5 471.167,320.5 474.5,320.5C 474.611,321.117 474.944,321.617 475.5,322C 470.5,322.333 465.5,322.667 460.5,323C 461.793,323.49 463.127,323.657 464.5,323.5C 465.295,333.002 464.961,342.502 463.5,352C 466.15,387.014 465.816,422.014 462.5,457C 463.761,479.165 463.761,501.331 462.5,523.5C 456.261,528.915 448.928,531.582 440.5,531.5C 440.5,532.5 440.5,533.5 440.5,534.5C 439.5,534.5 438.5,534.5 437.5,534.5C 437.5,536.833 437.5,539.167 437.5,541.5C 436.167,541.5 434.833,541.5 433.5,541.5C 433.5,542.833 433.5,544.167 433.5,545.5C 431.007,545.131 430.34,545.797 431.5,547.5C 419.167,547.5 406.833,547.5 394.5,547.5C 401.321,546.671 408.321,546.171 415.5,546C 408.488,545.566 401.488,545.066 394.5,544.5C 394.5,542.5 394.5,540.5 394.5,538.5C 398.869,538.533 403.202,538.2 407.5,537.5C 407.5,535.833 407.5,534.167 407.5,532.5C 416.353,531.665 425.02,530.998 433.5,530.5C 433.5,529.5 433.5,528.5 433.5,527.5C 436.563,527.137 439.563,526.47 442.5,525.5C 444.512,525.84 446.512,526.173 448.5,526.5C 449.161,458.452 448.495,390.619 446.5,323C 452.721,322.729 458.721,321.896 464.5,320.5 Z"/></g>
<g><path style="opacity:1" fill="#bfbfbf" d="M 474.5,320.5 C 478.167,320.5 481.833,320.5 485.5,320.5C 482.753,322.029 479.753,323.363 476.5,324.5C 475.558,375.87 474.891,427.204 474.5,478.5C 473.5,478.5 472.5,478.5 471.5,478.5C 472.333,493.494 472.5,508.494 472,523.5C 471.044,524.579 470.211,525.745 469.5,527C 466.124,528.05 463.124,529.55 460.5,531.5C 460.5,532.5 460.5,533.5 460.5,534.5C 459.167,534.5 457.833,534.5 456.5,534.5C 456.231,538.931 456.564,543.265 457.5,547.5C 448.833,547.5 440.167,547.5 431.5,547.5C 430.34,545.797 431.007,545.131 433.5,545.5C 433.5,544.167 433.5,542.833 433.5,541.5C 434.833,541.5 436.167,541.5 437.5,541.5C 437.5,539.167 437.5,536.833 437.5,534.5C 438.5,534.5 439.5,534.5 440.5,534.5C 440.5,533.5 440.5,532.5 440.5,531.5C 448.928,531.582 456.261,528.915 462.5,523.5C 463.761,501.331 463.761,479.165 462.5,457C 465.816,422.014 466.15,387.014 463.5,352C 464.961,342.502 465.295,333.002 464.5,323.5C 463.127,323.657 461.793,323.49 460.5,323C 465.5,322.667 470.5,322.333 475.5,322C 474.944,321.617 474.611,321.117 474.5,320.5 Z"/></g>
<g><path style="opacity:1" fill="#b7b7b7" d="M 485.5,320.5 C 486.167,320.5 486.833,320.5 487.5,320.5C 486.533,387.836 485.367,455.169 484,522.5C 483.846,526.098 482.846,529.431 481,532.5C 476.5,537 472,541.5 467.5,546C 466.255,546.791 464.922,547.291 463.5,547.5C 461.691,546.709 459.691,546.709 457.5,547.5C 456.564,543.265 456.231,538.931 456.5,534.5C 457.833,534.5 459.167,534.5 460.5,534.5C 460.5,533.5 460.5,532.5 460.5,531.5C 463.124,529.55 466.124,528.05 469.5,527C 470.211,525.745 471.044,524.579 472,523.5C 472.5,508.494 472.333,493.494 471.5,478.5C 472.5,478.5 473.5,478.5 474.5,478.5C 474.891,427.204 475.558,375.87 476.5,324.5C 479.753,323.363 482.753,322.029 485.5,320.5 Z"/></g>
<g><path style="opacity:1" fill="#dad9db" d="M 169.5,329.5 C 171.833,329.5 174.167,329.5 176.5,329.5C 176.5,394.167 176.5,458.833 176.5,523.5C 174.167,523.5 171.833,523.5 169.5,523.5C 168.432,458.65 168.432,393.984 169.5,329.5 Z"/></g>
<g><path style="opacity:0.034" fill="#fafbfa" d="M 113.5,398.5 C 114.573,399.251 114.74,400.251 114,401.5C 113.517,400.552 113.351,399.552 113.5,398.5 Z"/></g>
<g><path style="opacity:1" fill="#aa9fa1" d="M 280.5,403.5 C 291.329,401.837 298.496,406.17 302,416.5C 304.392,427.548 300.558,435.382 290.5,440C 280.135,441.636 273.302,437.47 270,427.5C 267.836,416.842 271.336,408.842 280.5,403.5 Z"/></g>
<g><path style="opacity:1" fill="#d5d5d5" d="M 281.5,406.5 C 298.115,408.384 302.781,417.05 295.5,432.5C 286.201,440.288 279.034,438.621 274,427.5C 273.333,423.5 273.333,419.5 274,415.5C 276.305,412.36 278.805,409.36 281.5,406.5 Z"/></g>
<g><path style="opacity:1" fill="#a89c9e" d="M 343.5,391.5 C 345.423,395.029 346.089,399.029 345.5,403.5C 349.5,403.5 353.5,403.5 357.5,403.5C 357.5,404.5 357.5,405.5 357.5,406.5C 353.5,406.5 349.5,406.5 345.5,406.5C 345.334,415.839 345.5,425.173 346,434.5C 349.918,436.774 354.085,437.107 358.5,435.5C 359.429,436.689 359.762,438.022 359.5,439.5C 354.871,440.481 350.204,440.648 345.5,440C 344.667,439.167 343.833,438.333 343,437.5C 341.549,427.271 341.049,416.938 341.5,406.5C 337.818,406.665 334.152,406.499 330.5,406C 331.167,405.333 331.833,404.667 332.5,404C 335.482,403.502 338.482,403.335 341.5,403.5C 340.99,399.187 341.657,395.187 343.5,391.5 Z"/></g>
<g><path style="opacity:1" fill="#a99e9f" d="M 312.5,403.5 C 316.767,403.203 320.934,403.536 325,404.5C 329.795,416.386 334.295,428.386 338.5,440.5C 334.774,440.823 331.107,440.489 327.5,439.5C 328.248,437.668 329.248,436.001 330.5,434.5C 324.862,433.67 319.196,433.17 313.5,433C 317.021,431.326 320.687,430.16 324.5,429.5C 323.358,423.907 321.525,418.574 319,413.5C 316.497,420.186 313.997,426.853 311.5,433.5C 310.167,433.5 308.833,433.5 307.5,433.5C 307.781,435.963 308.781,438.13 310.5,440C 306.848,440.499 303.182,440.665 299.5,440.5C 303.988,428.21 308.322,415.876 312.5,403.5 Z"/></g>
<g><path style="opacity:1" fill="#a99ea1" d="M 237.5,390.5 C 239.074,390.937 240.241,391.937 241,393.5C 241.333,398.167 241.667,402.833 242,407.5C 251.98,400.861 260.313,402.527 267,412.5C 270.519,422.467 268.352,430.967 260.5,438C 252.919,441.127 245.252,441.294 237.5,438.5C 237.5,422.5 237.5,406.5 237.5,390.5 Z"/></g>
<g><path style="opacity:1" fill="#d5d5d5" d="M 246.5,406.5 C 263.19,405.836 268.69,413.503 263,429.5C 258.142,437.223 251.309,439.556 242.5,436.5C 241.335,428.187 241.168,419.853 242,411.5C 243.707,409.963 245.207,408.296 246.5,406.5 Z"/></g>
</svg>
